<mxfile host="app.diagrams.net" agent="Mozilla/5.0 (Windows NT 10.0; Win64; x64) AppleWebKit/537.36 (KHTML, like Gecko) Chrome/128.0.0.0 Safari/537.36" version="24.7.7">
  <diagram name="Page-1" id="9oHlsZphIxAshfcpiJtG">
    <mxGraphModel dx="1434" dy="778" grid="1" gridSize="10" guides="1" tooltips="1" connect="1" arrows="1" fold="1" page="1" pageScale="1" pageWidth="827" pageHeight="1169" math="0" shadow="0">
      <root>
        <mxCell id="0" />
        <mxCell id="1" parent="0" />
        <mxCell id="y6cjsjqeQ_f7NjafJzEn-3" value="" style="image;aspect=fixed;html=1;points=[];align=center;fontSize=12;image=img/lib/azure2/databases/Azure_Database_PostgreSQL_Server.svg;" vertex="1" parent="1">
          <mxGeometry x="140" y="98" width="48" height="64" as="geometry" />
        </mxCell>
        <mxCell id="y6cjsjqeQ_f7NjafJzEn-4" value="" style="shape=image;verticalLabelPosition=bottom;verticalAlign=top;imageAspect=0;aspect=fixed;image=data:image/png,iVBORw0KGgoAAAANSUhEUgAAANwAAACHCAYAAAB9Eze1AAAABGdBTUEAALGPC/xhBQAAACBjSFJNAAB6JgAAgIQAAPoAAACA6AAAdTAAAOpgAAA6mAAAF3CculE8AAAABmJLR0QA/wD/AP+gvaeTAAAAB3RJTUUH6AcEDBs1/R6O1QAAH3lJREFUeNrtnXl8VNX5/z/PuTOTIQugiLiiIIr+UCRzJyz1V4tWa1vl97Uq1A3JBglQEBT3Le7gBqgQEgIJVKsSqlb51dYuYvtVxGQmiKX6ba1VRAXLErLOzL33PN8/MgmTMIRJZsvA+bxegeTu95zzvs/znJWgpBQDjRs3bohpmu8CMJj5fq/X+5pKlYMlVBIoxUKmaU4AMBLAuUT0qq7rf8nJyclRKaOAU4qDiEjrsun7UsrNuq6vGzt27DCVQgo4pQRwCGCyZVmf6rq+VNf1AQo4JaX4ywFgLoB/6bp+88SJE20KOCWl+GsQgCWNjY1/03V9sgJOSSkxGglgna7rf3K73dkKOCWlxOhiZq7Vdf0hBZySUuLK4H1ut3usAk5JKUGSUo5RwCkpJUhh2vEUcEpKSgo4JSUFnJKSkgJOSUkBp6SkgFNSUlLAKSkp4JSUlBRwSkoKOCUlBZySkpICTklJAaekpKSAU1JSwCkpKSnglJQUcEpKCjglJSUFnJJSaipeM+AKl8t1HYDvE9E/DMMo27p1a/ORmIC5ZVef3SoDI14pfvO3IEhVpFJXOTk5pzKzyzTNj7Zs2fJFPO5Bsb6gy+X6PhEtAeAK2fw1Ed1VW1v7AgA+EjLn+vIrx/Tv56zOdGaMkMzYu6/B3+T3P7B+7puLjqRCqOv6UCJ6lJmvAbALwBNZWVnlGzduNEOPc7vdVzPz+ihuNcvj8ZQm4x3PO++8YxwOxwMAZgGwA7AAlGuadt+HH364p08CN27cuFMMw3iMiG481HWJqBbAvNra2vdStQBOenNS+uC9zheOycq8UoMglgTJDL/fQGtLAD7L2Osz/Lm/nrvhzRQHLR3AHAD3AsjssvtTIrqltrb2rRQHTrjd7huZ+UkAx4fZvw/AIp/Pt3jbtm2BPgHc6NGjM+x2+50AbgXQL4JTmIheNAzjzo8++ujrVCqE09Ze9fCxmRl3pNnsdpYElkA7cCwZjU1+SMsCCGg2/B+B5aSXZ//mqxRjjdxu97XMvAjAqYc59nVmvs3r9X4WPOelVAHO5XJdTESLAYyO4PBtQoh5NTU1f0wmcBT8OjwO4ORenN8MYKHD4Xh606ZNrX3afVx7xU8H9kuv6p/ebzCxQBtsBwNnmBaam/wgAogIFktuDvhe5+Md11ZPqQ70ddJcLpdOREsBXNCD0/zM/CIRTQBwTl8HLicnZzgzP8nMV/Xi9NeFELfW1NR8nlDgsrOz3UKIJT3MmENpBxHdU1tb+8u+Ft/9vOwnZ2QOtP/6mKzM8wUEBGvoDjjJjNaWAEzTAoGAIHiGZbQ0m/47qme/8XwfdR+PA3AfgNkAkjUha1yBGz16dIbD4biNme8A4IziUgaAUpvNdt/mzZsb4gpcdnb2SZqmPcDMhYh9k8KHzHyz1+v9INkFMLdyolOmpa88ZkC/6+2aTVAQtEiAk1KiucnfHrO2WbsgfK2msavVCkxeP+s3f+0joNmDFQUPAeif5MeJF3Ck6/o1AJ4CMDSG1/2WmUu8Xm8FEHntdETATZgwoV8gEJgL4B4AWXFMdGbmFzRNu72mpmZnMnL9xpd+siCjv/Zwut3hPABZ5MAxM3w+A0bA6nAtO/4HgcFoCvg+8Alc9WrRq98mq3Tn5ORcIqV8Nko3sE8Dl52d7SaipUT0vbgFvES1RHRzTU3N+zEBzuVyTQr69Ylcp7mZiJ7KzMxcuHHjRl8ibnjtC5f+MCNTVGVkOU4hFhAyFLKeASclo6XF3/bd64AuFDzAYmk1+1tX/Wrm6zMT2X7ndrtHMvMzAH7axzzbmAEXZ08sKkNB3WRMNoAlzHxhEjPhMwB3ezye6njdYOraHx1PGViXeQz9QEMIXFECZ5oSfp/RyaXsBF3wf79pNLf4A/Nfnv3ayngmZLCtqSToQvbFJX+jBm7UqFEOp9M5E8DDcfbEujUU9fX1j3/22Wf+iIAbO3bsIMuy7k9yAN1V7zDzPK/XuzVWFywpKbH969z3l2X0F4WanQWAznBFCVy7aykt7gxZWPgIzb7Wz5uswM9+PeuNrbFMuIkTJ9oaGhryiegRAIPRdxUVcEnyxHpsKChMAP0ggAF9MEMkM79omuaCrVu3fhfNhaa9fFleWn9+1t6POjXoxho4y5LwtxpAGMtGaPs9dB+D0djS8m6TT175+vzX66NNsGBb0xIA56Hvq1fAuVyuc4LtaZf1tRcioj+hraPH3zoBF/w6PANgRApkzD4AJcOHD19WXV1t9ch9fOmnbkeGfMWZxcPD7Y81cJIZRsCEZcqgZQsDXtDqhcJnWJbRFGh+/ldFv7mll6CNIKKnAPwXUkc9Ai47O3uwpmmPMHNBH/LEwslg5uellA9t2bKlntxu9/xgEJ1SYuaXvV7vdZEe/7OlV+QNGm5WpGXyIYPoeAAnLUbAbwDoXGkS3uodcDFBQLPf982/d3x3xsaSyCqOgu5jCREtAJCWYlkaMXBut/tSZl4HYGAKvd8uIcQkwcx3IgVFRNeOGTPm9EiOnfzMFScTqKxxlyYS/5yAsAkwM5jR9n/bJ6Otmb9je/DPto8JwECrP3CSdMh5kd6rsbHxLiK6JwVh64kEM69NMdgAYIiUcqVA+E6bKSFN04ZEZA1ttlGCyG62CPgaRBKeU4AEOkPHACMIXxA8hABpSgu7GvcBkNk9sPqTcIRr9OjRxwE4IUUf/7yUHoBKRJF1BSNoba6aQNNOG8CU8GcVNnHAsrXz1WHZOGjdDli9/zTuhyUlwJGvfU1EziMduLS0tFQus+LoAE6zglXxgAwItOxL/GuLYFzWDllHt9EwVs+wTOxpaoTSEegPI34dhrcEq6Tfjtc9mCMzVRoAEAd/gJbvbOAkjM0WNoIEHzae29m4H5L73ODxeuCIH9H+FYANAPzxBC7W+oaZizwej15bWzvf4/FcRkTjiWhT0iwcABIIVr0zpARadie+swUBYOJgpUj4eM5nGGho6VOzUTQT0YNZWVknMvNYAP99BILWEnzHszwezyRmPhdAXHo3xbLUtQJ41ul0Pvree+918odqa2s/BHCB2+2eGhzYGJOg1zRNjvgtJbdDCjDQsleD8xgLmp0TTp3FEkQaCNy2gQ+4AN817muvSkm2GMB6AAtqa2u3B7d5AFwY7H3/JIDTUhy0cO8Ir9f7GYApPRykmlCXcp2U8hyPx3NnV9hCX662tnatzWYbycxPAIh6QKbNZqOeFHRQiGsJoGVPctpLJUlIlp0qTQCgxe9Dc8DXFwriB0Q03uPxTPF4PNu75qPH46k2DGMUgEeCH9pU1AcAJhziHdvB+3NWVpbOzL8AEIu5TVpsMQBuusfjqYj04OCgvTt0XX8VwEZEMRgwYgvXHsN16jrK8NULpB9D0NISa1Haq/1tgoI+PQGQ2N3S0NbFi5Nm4b4hojsjmewpOAvbfdnZ2RVCiCcBTE4R0BqJaHa4dyyqLLyUwFNZcGnZtNWbACA4WdKyCRMmvOT3+58kovwo7l0dbQz3j57AFiqPx7OZiNYnJIm1A/Fbe8VJ+0/T7uRYORPtVq6tQaDR70PAMiGIIEgc6JGSOO11Op1n93TkfV1d3Zcej2cKET2YEj4k87Nd33FWRcGI4sqCdQR+G8BUkvRecWXButkVBR0u86ZNm/Z6vd4CAF/24rYWgOUAZkUL3I4oz9+eqOIN4k4VJ+3gBZoFjJbEt8sxGAHLDHYLAxp8zRAdnZqp7XcSgEjYs+3vJhyIpCDvSAXgiKg+9O/iysJHpYZtXSw0AZgsNWwrriq8tcsl9vUwXd6VUuoej2e2x+NpEVE+fFS+j5SSE3b/ENA6wBNtfzf9JznDwww2YUgLjYFmWMwdoLWDJ4igEZTipBllM44D+G4AjkO4/hkAL+ytMSKiaV6v96K6urqPOuodkMITs0YMnC1o1DtFUcGxaQBMA2jdD2QkYVaPVtMPvxmAIAr2NqHgv23DdYjVbPQpplYAz/p8vke2bdvWFK4oHh0S7XXvFBa8b7YbGDFKS3TcBIsttI8kALdZ3vZOzASAFXCppA2WZc3pbpr0owY4CpLEdDB4La0BtDQZ2L1T4PgT+iXh4RgCBA5atVDwSPGWCtoipby5rq7uL4f97uMImes/kkLd3p8yNH5jMJqa2tq+dn0dQE9aGmIp2SmGa6ulFMEKlCPKve9DSncEzMOWfyajq1MS8vt/mLlo+PDh7khgO3qA0zpXmoSC19TshxWsu7FMxnffJKfh2ZIy2FIRUnFCAkKtKBY3Lcmrqmem60CHrG3/JwPXdPmwVKGtvXKJZVlneb3e8p7MPHB0jBZot3CiM3iWJdHU1LnDy+6dAfj9VhLehoPtcKJjzhNBpFzK2KvTfD1l+RWvSL82koA7QWgKBhvNAD1ob0w/ryyv4rehx9fW1j7v8XhOrq2tnb9ly5b6HlclHBVJbOvS/hYEb/9+X1jXbueO5PRWMqQJi2VntzJxLuWJbrd7Ym9OHDduXH9mvjxFSsMcl8s1JTSILy8qbynNW7VIM3EuM+4mWCNW5FWUPDf3OX8ciuLRYOEsgERHCjMYvlYLPl94S7Z3TwDHDzGR2c+R8HfyGX5kOvu1NYAD4MQNlnUy8zu6rm/QNG3uhx9++O9IssDtdk81TTNmHdITYeGI6BVd12/tOrX+ssJVXwJ4PJ43P3ocltBuXWA01Hffd3rHV8kZImNKC6ZpBmO4toqTBOsKy7I+1XV96QUXXHDIyVTdbvdYXdffZ+Y1SM0pD8YS0fsul2ttTk5Owp4/pStNetR5OSR+a2o0YBrdj6Vsagxg//7krDDVYgQAEAQEKDmD8h0A5vp8vk9dLteM0A/z+eeff7LL5VrLzB8AGJ/qn2Eimiql/MztdpdMnDjRqYDrzh+OdHiOdsDCSQaa6s2ITvtqRyOS0XFfskSr6QvGcElN4pOIqEzX9fdcLtdluq4/aLPZ/klEUwEcSZ3OMpj5gcbGxm0ul+uqeAOXsorUwtnQXmkC1O8JINIunD6fid17W5Lybq0BP5gZ1DfK9Xgi+h2A+xHZKrepquFE9Gtd19/JyckZo4DrbaWJrc3CGX6J1kazR/f4+ptGRNnHutdq9LdACNUukARNlFJ6XC7X2nHjxg2JNXC9Lk1SykCUwER1fqSTCMFki4lRv9vo8T0ChoVvv0vODFoBy4DPDJygyv8B+f3+RE1kJIhoqmma/6Pr+q2jRo1yxAq43p8sxB+iBO5P0QAfsYUTtr+31LMMtPYur77d1QjDtJJTwIxAT2jfk6ogEVFEC7SMHDlyD4D/JPDRBgB4yul0/s3lck2KBXC9KfAmgGeGDRv2bDQ3r62tfQ/ADAAN8UyxF69+a4fhN9f0NhyypMSOnfsTXggddvt3AWFN7UGhXYIuA5FSRH+32+2/jeTA6upqi4gKASQ6uD6TiN7Qdf3tnJycUYm0cH8gomyPx3NrT1evCSePx1Nhs9nOArAynoXlt7Pezc881jY+LV183pvzv9vTiFa/kZCcFUJY6Q5H+R8X/PnEjQs27u7BB+w3UsqLAXyUIqBZAEoDgcD/3bRpU2sP3vMNIcTZAH6FxNeyXyql3OJ2u58fO3bsoB5bcl3XmwGkR3DsPwHcE8/VSF0u1zlCiGeY+ccRnjLa4/F83NP7/LT0ovm+ZusxM8A9anc5tn8Gzjn9xB6tnhO63ZIShmXBtKy2Bm7LgmGZB35nCbsQ79mMtJ+9dfdb0bhNwu1238jMT6Lvrh0Rk0U2s7Oz3UKIJQAuSMI77AOwyOfzLd62bVsgUuCaAGR0c0w9gEd8Pt9zkV40BuBdRURPAhgeD+AAYGLJRFu/43iZr1kWWlbkln70iJOR6UyPOXBM/G1amrjmN7Pffj9W6ThmzJiBNpvtAWaeDcDeR0D7nJlv83q9r8YyBHS5XNcT0eMATk3CO30ipSyoq6vbFA1wFjNXMPN9dXV1/0n0G4wYMSJtwIAB8wDcg0Ov19xr4No1aeWPhvlbA7/yN8vxkUxPl5XuxHnDT40ZcBasFkl825tzfrc8Xmmp6/rZRLS4B55DPNQE4LGsrKzFGzdu9MXpPdOZ+TYiuu0wRiQe+ofH4xkZCXCNADK7BN9/klLeEss1tXurnJycE6SUjwDI6xpzEtF5ocu5RqOfLpv4YyMg1/pb+bDrYJ916okYlJUVLXBSCnM9DUqfWj2lOiGeg67rlwN4BsBZCcxCBvBLKeVddXV13yTihuPGjTvFsqzHmfkGJK5HzCKPx3NnJMDV48AYoc8A3ObxeF7vaw6/2+3OBrCEmS8M2XyOx+P5NJb3uaL0B7e3NOMhMyAPuaih02HH+WecDmLqBXAmDJgf2dPMy9dO2/B1otNx1KhRDqfTOQfAfYj/Wu4fENHNwanuk1FmxgbLzIS4fU2Ya5h5QaQjvknX9YUApjBzqd/vX5qoOC2KRLyGme8D8NXw4cP/KxY1pQe5mWV6uhHIeqG1xbqSrfBfyGEnHI8hAwf2CDiTzd1+EbjhxdzX3052Oo4ePfp4u93+CIACxL7H0ddEdFckMzgnQOR2u38eXNNiaAyv+yWAuz0ez0s9eUc162F31m7FpWcG/Ea1r9k6v+s+m6Yh+4xhENAOC5xBZsCC/9HKm157KEU8h94qAGCF0+m8N5pJZeOhCRMm9AsEAnMB3A0gmgkRm4jo6czMzIW9iUUVcJHEd8svut7vs5YbPu7kgp086FicMmjwIYGzYLHBxoZdA1uvfXPSm1E11JaUlIjvTt9+iZQ0igU3sGb7bfnU8m9j9Y4ul2sSES0FMKyXl9gghLi5pqbm876cl9nZ2SdpmvYAMxcguHRghDKIqFLTtPs3b968q9fmVuHUA/Cen/hwa4u80zLZBrStajp62DDYNdtBwBnk/6cP9P+qrn8p6hizqLLgxwReDNDZoQWAQcv6wXxwSV5VfYytQHc1w131CTPP93q9v0+lvNR13RWsuT2sZWfmPwoh5seigk4B10P98Pmxg2wy/WVfs7yEmTF4wACcfvyQDuAMBPb5uXVGxXWvro8etNwzCdqj6H5lmr0MPLQ3o+H56imxiWezs7NPIqKFRHRjN2VkL4CHhg8f/nw84uhEKWjZlyBMmy8R1RLRgpqamndjFlAqhHpZsbJ84nhfgF8xWjD0nKGnwm4j0yd8T5VPqb4r2mvPWjYrU6YHFgB8J4C0iE5ifAKI+SvyV8bM0uTk5HyPmZcys7uLa7XMNM0HezNrVV/UxIkTnQ0NDbcQ0e1oq7n9N4B7e1ohooBLhJtZdtG4dLvtvGONYWvKi8qj6mw5ed1k7biWAQXM8mGAjj+YKbzOsO4XrH0PAo+AcdzBOcrrwfK2FXlVX8ToFUWwF8fVAL4F8Gysm2L6Enj79+8fUldX9xXitJ65Aq6PaObqvB9IEksIGBPGfH1KAreUTlv9VvuWeZW5A1uh3UnAvDBWMADmFQHGvasLVjeq1O07UsAlWYUrC0+x2fgxAOHipX0MPHjil6cuKykpCTtUffqa6WdpbD0NpivC7P6GiB4c8sUpFSUlJVKltgLuqNWMshnpwiFvB3A7wP265IrJklc7wPc+l18ZUT/WmavzL5FESwgYFSaXa4UUNy/PX/m+SnkF3NElBs2sKriGgScBnBbmgD9LyHnleVUf9wJiu5Ym8xj8aJj4jgGsl5q2oPym8u0qIxRwR36cVlWoM/NShBu7RfiMGHeX5q2KerxhQUXBsXbBD4BoNro07hLQzKCnfDAXVuVV+VSuKOCOPPfxlzNOJMMsCU4NIMIBYG/s93is57KftbbwHGnJxQBdFmb3V0x8b1nu6rUqhxRwR4Qmr5vsOLa5/0wCHsLB/fcYwAsC1u3L86p2xvM5iioLJhGwBGEad5nxjtBoXum0ikMOxZq5pnA0M88BQwAQxNhYmr9qjcphBVyf0ayq/B9JplKE7cGA/7akvLk8v9KbqOfJrcx1Osl2KzHfxV0HZxJMYip1Zuy/Y/GU6k5zixRVFVxIwLUgrCQmYWniG820LgLh3NLcVXernFbAJV1Fqwt/TsS/wsHDXrYz0+1leRXrQMkZtlK85qaTme0LiRFucOZfZEC7pKMBn0HFa/LXnfDF0Ot2nf7VOxL4AzFfZ5riUrvG04nEa8vzVm5ROR651LS+cbAkRPxcl7RtAbhEBrRzyvIrXkkWbACwYtrar8tyV00l0PcAdB0YeqFwmLntf8xeVTCUmf7V3gZIzNsZtD3NEWglEhssWBerHO+ZbCoJYiuHFG4IDA6J1N4SkEXL8yu/6kvPWZpX8QEY44vW5E8lFisOtAXS5WibshBGmhYg0wyZfoMEMQY7+rW2+JodTmIKqBxXFi65CWrD4M4+Oz8Tb9hyK3Ods5bNyuxFQMFttZT8ccgHoqMPZ/nU8m8F6Lg5L9zQHwDI4XiNBbb5mwZmS8ifmzb6/yrHlYVLqlgK6o3HOKNsRrqwW0VEcDCBpdBeDtdAPeeFG/oHzLQriekKELIBnA6GTab7UVxZALQNm/mEQTUgfq1s2qq/Hs6FJRx6VS4LWgkH+q0kgXml15fWF1YULiBN3kJMH1fcVPFvlePKwqWkyGmeD8IzDCwEY5FmmQetU1ZUlV9gmM5/EdMaAJPBGAE+6KN5LIALCDyPGO8WVxW8X7Qq//zePld5Xvmn0hCzWfKU4qrCX2p2+biEfHVF/qoylWvKwqWsNEsjSQf6FzNTpxrEmVUFjzGjN2PtxpOgv86sLLy8NK/ir72Crqh8N4A7VC4p4I4KzVqTf5GU6DrnYQOY/gTw34nQyCAC8zEseDAxjQPwf0KOzWLwi3NeuOHc5258sUGlqAJOqRtJS8wBdVoL79d2uy+/O3hmrsn/CUt6EcAxwU2nBgznjQCWqxRVMZxSt7nEOZ39T/usw1mq0mmr3wJxcac4kehnKjEVcEqH18CQ3y2f5YvILTzhi6Hr0TYtQntgeK5KSgWc0uHECJ1/UkuD7fE5q/MOuwZCSUmJJOJiBhYxsAhMD6nEVDGc0mFEoN8x+MwDf/M8g8TcosqCrQL0ASD/h1n7xLTxPyqmVnwR2u5Wmrv6DQBvqFRUwClFKMPEEzY7rusyilsQMIbBYwACSMJmAcVVBY2oxDZm3gqij5i035fnlv9LpaJyKZUiVMX0ih0wcRED2yI4PAvAeCKaQcAywdZnxZUFm2auzr9EpaQCTilCrShc9bcTvzx1NIOuJuAVAD0ZtDqeid4uqsy/RaWkcimVIlRwqrtXgz+YV5k7sIVppAZxNgNngnAGwGcANAIH2t86Qj8CPTFzTeEfuxvdraSAUzqEgot4bA7+HBCDZlTmjRUQV4HwCwDpwT0aW3wDAAWcAk4pnIorCx8FuH0qgz3kcJxZekPpvm5PInA5KjcD2Fxcmf8JQJUh+0aqVFUxnNIh2em0bNQgDgQu68n5LPG3LtbPoVJVAad0CEmSH3WJxArAkc9FQ5r4QefT6UuVqsqlVDqELENssNm4pSMOY76kuKqgWlZpd3TXvjZ53WTHoOb+N4K5c+8SIVUjuAJO6VCqmF6xq7iycCHQCZyrBVtXF1fmf8qgT8H8HQlqBuAkxrEMDEEzstG21lmo/jLk30N/r1JVAafUjVbkVjxSXFVwMoCiLg7j2QScDaKOZQO7mUthq03ydWoVHRXDKR02EAOvyFtVzEyT0eMqfWplYJHd7vv+8wWrv1GJqSycUoQqy69YD2D9jNV54zSiC5kwFkzDQBgAYCAYGgH1zNjJ4I9J4C92m+9NNcpbAXfkugwsG0KnI5EkLp9RNuPdaJcjDlV5fuXBjd291Oyq6aMsyDPafVEi7Fe5qFzKlFFAkheg1hBvcJ5wmFuLKgt+3N15UshOVf1EHNfZmQsqCo4tXp2/1ILc0mkUAuM9lYsKuJTRqsJVewG5KEzlxltFlQUbpq+ZflbYSEtSp+0MiosbWFJSYiuqLJhl1/APEM3tMs3elwGp5jxRwKWYTvhy6MPEuA9AoHPdBy7XpPx4ZmXB08VriztmOC6uzD2die/vdCzLmI9hK6oq+OHO03Z4CVgGYFDnvVxDzBe3fTCU4iW1ek4cVVSZe6aA9jQDk8LsNgjwchuUYwGkhezb1y+j4eSuS0f1VjOqZpxBbD1FwJVhdu9i4ntO/GJopWoyUMAdEQquFbcYneeK7CZT+J7SvNWPRXvf/FX5WQ6BuwGa3wVoAAgwaKnD3vqIqsVUwB1xKikpsX172vaZBLobwAndZMmLezL2T6ueUm1FcS+x87TtNwH0GIATw2T6mxLWrWV5Vf9UOaOAO6I159k5aYH+zT8XTNcwcBaAwQDqQeyF1NasyF+5ISo3dk3+BJJYClBOmN1/F8Tzl+euflvlhAJOKQr9YlX+SaaghQBuDJOv+whYtDujYXH1lGq1ppsCTqlDDCqunP4jkPUwmGwgumVFXsXGQx0+f93kfq3NAxYQ+I6D1u4GLABlmjDuXzZt7R6VuAo4pVB3sLLwUiJeDsaILrteNk26rWJ6xY7QjcVV+VPA9ASA08KQ+2cJOa88r+pjlbIKOKUwCi7K+AAI84AuI7MJTWB6dE/G/mcGtfYfBYklAC4Mc5nPIXjBimmrX1MpqoBTikAzV+WPlIKeJeBHYXbvQduMXKIrkCzxmJ+sxVV5VT6Vigo4pR67mAWTBLCUgWHdRn3AeqlpC8ItUaykgFPqgeavm9zP19x/LhPuBSOzS+7VCiluXp6/8n2VUgo4pVjGd2tnDBWWWUigMZJ4N5heK8tdtSF04Q6lvq//BXJE2EyDSJFmAAAAJXRFWHRkYXRlOmNyZWF0ZQAyMDI0LTA3LTA0VDEyOjI3OjUyKzAwOjAwVq7b9gAAACV0RVh0ZGF0ZTptb2RpZnkAMjAyNC0wNy0wNFQxMjoyNzo1MiswMDowMCfzY0oAAAAASUVORK5CYII=;" vertex="1" parent="1">
          <mxGeometry x="106.96000000000001" y="260" width="114.07" height="70" as="geometry" />
        </mxCell>
        <mxCell id="y6cjsjqeQ_f7NjafJzEn-5" value="" style="shape=image;verticalLabelPosition=bottom;verticalAlign=top;imageAspect=0;aspect=fixed;image=data:image/png,iVBORw0KGgoAAAANSUhEUgAABAAAAAOwCAYAAACgcAZ4AAAABGdBTUEAALGPC/xhBQAAACBjSFJNAAB6JgAAgIQAAPoAAACA6AAAdTAAAOpgAAA6mAAAF3CculE8AAAABmJLR0QA/wD/AP+gvaeTAAAAB3RJTUUH6AYTEAcJ0ZSzjQAAgABJREFUeNrs3XmYHEX5B/DvW7M707Obg0CAEJAz3PclchMORQ7xykp2ZxMjSJAbRY4kO6nMJlyiyKUkiJHszAY3ov4ABSFcciOI3LccEhIwkHunZ2an3t8fG5AjhGz2mu7+fp6HRwnJpuutqq6qt6urASIiIiIiIiIiIiIiIiIiIiIiIiIiIiIiIiIiIiIiIiIiIiIiIiIiIiIiIiIiIiIiIiIiIiIiIiIiIiIiIiIiIiIiIiIiIiIiIiIiIiIiIiIiIiIiIiIiIiIiIiIiIiIiIiIiIiIiIiIiIiIiIiIiIiIiIiIiIiIiIiIiIiIiIiIiIiIiIiIiIiIiIiIiIiIiIiIiIiIiIiIiIiIiIiIiIiIiIiIiIiIiIiIiIiIiIiIiIiIiIiIiIiIiIiIiIiIiIiIiIiIiIiIiIiIiIiIiIiIiIiIiIiIiIiIiIiIiIiIiIiIiIiIiIiIiIiIiIiIiIiIiIiIioh4hDAEREYDz2gYnqt3QmJTXAQAXcwMBU6VOqw1kwCd+r1FVyOKP/r0spTLKi2OxqiUJ3y1ZcnHDIgaUiKj7Bp+fG1LwzOAY3DrlsgxGTKsBQJ0TA7POp3+/M26ZwHSgLCUDXd55P8ciH7oQNrWUESUiJgCIiEKsZkLLRhqXzVDWTSHYDGI2heqXFLoeIOsBWBfAegCqevLvVWCxAEsEWKzAOxC8C5X/KPRdGP2PgVkgMG+329HvsJaIKDpUkhNnDYeRTcoSGybQTUQwDMAmcBgmgo0UWEeBwQKs08N/eQeA9zv/0Q8E8j6At6DyFgRvQstvmVj5zRV23ALWExExAUBEVKnsPVWJjre3MlWyszrdSVV2FMFOgG4BSKLCrz4vwKsOeBWCV0TxKiCvitFX8jb1NiuXiIIoOXH2l7S6tDXKsREqOgLACAOMUGAEgGSFX74P4HVVPCcizwrcs864ZwrPJV/DnLoya5eImAAgIuozKvFJLdsZMftCdD8F9hBghwAs9NfGIkCfFsjTCjwjRp7KLy8/h8vGrGA7IKKKYNsGJFHcScuyi4juosDO6PxnSAhL6yvwvABPQOUhVfdwYWrqZUCUDYGImAAgIuoJJ02v9jYcuB/EHSDAvgrsi85t+1HlAHkVoo+p00djMX2k/Z38U5gxvsTGQkS9fT+u2bB2tzJ0HxF8BZAvo/OJfpTnk++L4mGFPgzgfv/d9kd4PyYiJgCIiLrAm5jbTGPuSKg5UkQPAzCQUVmtPIB/qsijRvThGNzfl9sx7zEsRNQdA+ysDcowBzmVfUV1HwB7AvAYmdVaqsBdonI7HP7mT2t4kyEhIiYAiIg+zlrjlbfaXwXfEsiRALZnULpFATwvIvdA3b1VJnbfMlu/kGEhotUu+C9oW7+cKB4MlYNVdSSAHThX7LYXVOQ2I/KnPF5+CNY6hoSImAAgoiiuUSVpc/s4xfdEMQrAxoxJLwYbeBaQu51xtxfQcS/sOJ9hIYq4s9uSiYHFQ4zgSFUcCmBHzg171dsq0mYEv8/bhscYDiJiAoCIQi/elN1ZDFKiqAOwOSPSL9oFuMcp/irqbvOnjnmdISGKhsSkG7eClL4uIkcBOASVfyJ/WL0Owe+dM9lic/1zDAcRMQFAROFhZ3qei48C9GQA+zEgFedFFfmrOPdnP/bag9yiShQio9pi3o6l/dW5bwrM0YBuw6BUGn0AKtP9WOkP3J1FREwAEFFgJSblthbjTgDkBABDGZFAeB/AXxVmTsFU/Q22rsiQEAVv0Z/csWNfqBulna9YbcSgBCANACwW0TYnelXRjnmWESEiJgCIKBgL/3TLEQI5D8ChvM8E2iKI3OIUfywuev92XHVGgSEhqlB2pleDqiOdk28rcKwA6zAoQc4FyFxAL/EzqbsYDiJiAoCIKnDyaU3CbXO0wE0EsA8DErrBYokCN3fuDNjoNtiRHYwKUf/fd5PYZr+VT/rrwZ1WYcwE/EtUL/dfTOQwp67MiBAREwBE1M8T0La4Vy4cD5ELAGzHgETCPBHcBDFz8rb+AYaDqG/Fm1p3NFIeBcgYAFswIpHwb4VeWTAd03lOABExAUBEfW9UW8zbvjAGkCkAvsSARNZzovI7U5aWFRfWv8twEPWOWjtzmCtXj1HBWAA7MCKR9RaAtG9ebeGBrUTEBAAR9QnP5g4Xp5cpsCujQSuVobhHRGbkzfA/8RUBoh5grfGw9aFwehKAbwKoZlBopRcEMjmfaZjDUBAREwBE1CtqmrJ7O8ElAEYyGrQa8wGdpQa/KdjGVxkOoq5Z+QWVBkDGAdiUEaHVeBiq5/nNjfczFETEBAAR9czC384e7lz5FwDqeN+gLlAAdwtwTf6F+M08wIpoNew9VUn39nGq5hSIjuS9lrp4r20zJvbjdjv6HYaDiJgAIKK1nJBa45W3PhGiPwMwiAGhbpgP6Cwpu6vy08bOYziIOtVOaN3QVen3FfojAJsxItQNKwTSnH+h+jImXImICQAi6pIa27KHc3ItgL0ZDepBRQD/ByMzfNswl+GgyN5jm3J7OuNOgkojgCQjQj04uX8KBifnbeoRRoOImAAgotWzM9fxXPXFAH4IwDAg1ItD0OMC94u82WQODw2kSDhperU3bECdQn8swB4MCPUiJ9Dp+ULiAlxSt4ThICImAIjoM5K2ZT910gJgS0aD+tB8QGckiuaKJRc3LGI4KHTOvX5gwov/QCA/Bg/1o771FiDf9zMN9zAURMQEABF1sjM9z1VZQH4KPvWn/rNMBDO1Q37hT2t4k+GgoPPs7M3hOk5WyHgB1mFEqJ+oCK7Kf/DBubjqjALDQcQEABFFWHVTy64xkSyAnRgNqhAlQNuc0YuLdsyzDAcF8r5qcD5UvgugihGhCpn0P1M2JlW09U8zGkRMABBR5Kgkm1p/oqLTAMQZD6rIRgrcLIpp7c2pfzAcVOmSTbP2gchEhRzDORZV6G21IIoJ+ebU5YAo40HEBAARRcG51w9MeN5MgX6HwaCAeFBhLilk6m9hKKjiFv629QCU3XkqOIbRoGAsAPSWvOkYAztuMaNBxAQAEYVY3M7aybjYTYBuw2hQMBMBmFbIpG5jKKi/JdItRwtkAoD9GA0KoJecwbeLNvU8Q0HEBAARhVAy3TJaIdcBqGU0KOAeVZhp3BFA/cGzucPhdBqALzMaFHDLBTgxn0n9nqEgYgKAiMLC3lOV1Hk/V8UZDAaFzIMwLu3bMXczFNRHC/8MgH0ZDQoTFflF4fnqczGnrsxoEDEBQERBds6s2mTS3Mh3U4mJAKK1k2zK7q+QDEQPZTQoxP7m+4VRuPSEZQwFERMARBRANRNaNipXya0C7MFoUESGtTuN6kR+NYB6ZOFvs1/Rskzjwp8i5B+xDnPsigvr32UoiJgAIKIAidvsDsbhrwA2YzQocoOb4lYXK/+kYMe+zGhQVyUmtWwrRpoBfJdzJYqgN5xzRxWnjnmBoSBiAoCIAiBpW/ZTJ/8HYCijQRHWAdHfmhJs+4WN8xkO+iIDLmhbvxwvTlLFKQCqGBGKsEVQ8y2/uf4+hoKICQAiqmDxdO44A/d7QBKMBhEAYAUEl/uCn8GmljIc9BnntQ32vNK5UD0LQA0DQgQAWlAj3y3Y1K2MBRETAERUgZLp3CiF5gBUMxpEn7FQgUxhwYprMWN8ieEgnDS9OjGs5hSBNAFYjwEh+oyiAMfnM6k/MRRETAAQUSUt/ptyx6toC7htleiLhr6XBZiUzzTMYSyia+Un/X4JYEdGg2i1ylB8329OZRkKIiYAiKgiFv/ZehXcwMU/UZfc5Yz5cdHWP81QREd80qztjchlEDmK0SDqQhIAOMHPpG5gKIiYACCifuQ15U6C6K8BGEaDqMs6BHpdrJSYvPyiuv8yHOE1wM7aoEOlGSonAIgxIkRd5gA90c80zmQoiJgAIKJ+kEy3jFZIlot/ou5RYLEBpuYXrLiS5wOEjG2LJ8vFs1QwEcAgBoSoW8oCGc1XqIiYACCiPtb5/qq7laf9E/XosPiyGndmwTbezliE4D6Zzo0E9CrwPX+inlRSo9/gfZKICQAi6iPJpln7qJi7ANQyGkS9MDgqblUnp/nTGt5kNAJ4j5x4w8Yai10EoJHRIOoV7aL4ar459SBDQcQEABH1oridtZNx5j4A6zIaRL07wQX0Z/6iRRfhqjMKDEcA/O+zflMBDGBAiHqPAoud6iGl5sanGA0iJgCIqBd4dvbmcOWHAGzEaBD12VDJ1wICIJHOfl2AKwGMYDSI+sw8MW6/vB3zFkNBxAQAEfWkc68fmPQSDyqwM4NB1A8DpuJWuNgp+Wmj/8NoVI6aCS0buSq5BNzuT9RfnvMN9oNNLWUoiJgAIKKeYK1Juq3+rJBjGQyifrVCIM35F6ovw5y6MsPRv/dFr7z1iRD9GXi6P1H/Uv2r/2LiG7wvElU+fjqMKAASbsSlXPwTVYRahV6c2L7wj5qm7N4MR/+obmrZ1XMjHoLodC7+iSqAyFHe9sVmBoIoAN2VISCqbF46OxbA7xgJoorTIYJf5fOFSbj0hGUMRx+w02s8V5MG5BwAMQaEqOKWFif6mYbrGQciJgCIaC0kbesB6txdAOKMRq/4QKFvGpX/qNEFgFkoqh+oyvsS0+UKWQwAUta8QPwP/5DGJKlQDwDE6UBVGSzQdVR0HYFZR0XXh2ITQIYBugmAGoY61N5U6KmFTONfGIrek7At3xAnVwP4EqMRau2AvA3oAgjeVuA9UV0iKosVslhEl6iRzoRb2RUMTPv/7s0uoTA1nfdmN1jVDBTR9RRYD6LriZNhTvRLAtkM/JJOb/FFzaH55vqHGQoiJgCIqAtqJ7RuWK5yT4In/neXAnhNFU+LyHMCPFM25ReK8N6ArVveJ1dwXtvg2mRpCwcdgTJGqOgIACMA2Q7Ahqyi0Iyo2epi+axlF419n8HoOQMuaFu/o7p4BYDRjEZoLIDiRRh5VRSvAu7VDsWrpZi83mcHydm2AfFycYsYdHs1srMqdpTOQ3a34vy4296uKsX3WH5R3X8ZCiImAIhojSYm1nhu69sBPYLB6LJ2AA8D8pAaPOL5eHjJxQ2LKvViaye0bliO687idFcFdhZgNwV2Arc3B9V7Ajktn2mYw1B0XzLdMlqBKwBZn9EIpA4FnhXgKVF9WmPm6SqUn15ux7xXqRc8+PzcEN/DvqK6L5zsB9GvgLu4uk5xux979WhY6xgMIiYAiOgLeE3ZNARTGIk19m+IzlWN3VowhTthx/mBLs05s2qTA6p2d668p0D2BHAggM1ZzQEaXBW3IoYf5W3qbUaj62rtzGEd5eprRPBtRiNQ5oviCRV9QhF7omAK98OOWxzoEtmZnof4AXDucEAOB7Anq3mNTfAzqYsYBiImAIhotYv/1oMh7i7wCfAXeR7QOc7Ebiza+hdD3y5sbkuU3QEw2B8qRwLYlE2gsimwWFTO85vrrwNEGZE1k0znRin0WvAd7SB4F8DfoTLXQR4sNtc/F/578ezN1XUcJ5BGJgO+UBnGfdW3Y+5mKIiYACCiVeB7/1+4pPqvisxUZ2ZFYaK5OolJLdvCmEON6pEqOAxALdtHxfqbGJzI3QBfsPC3szZVF/sNX32qaMtVZS7E3Q7j7inYsS9HORhxO2snceb7AowFMJTNY5XmVRm3RyW/9kHEBAAR9dfiVrym3F8hOJKx+Iy/C/Ta/KJFf8RVZxQYjk85/cpEYsiQgyDmSFE9CsB2DEqF9W5gsaie6Tc3zmI0PstLt4wTyOUKDGY0Ks4LCvxVgNt8E78ftq7IkHz2HuwNWe+7gDsZkAMYkM8sNv6Sz6SOYSSImAAgoo9JNGVPFsGvGYmPOFH8FTFMy9vUIwxHFxZTk2ZtoUa+IZBRAPbjvb6i3GZM7MR2O/odhqJz11NHTK8V0W8yGhUlUq9Y9aSaptm7OymfDaAefJXv40uOE/1Mw/WMAxETAESEle93O30KwABGA2UIWrSsFxemNr7EcHRP0s7a1Dn5lkC+DeAAAIZR6XcLBXJK1L8UkExnv6fANQDWY5Podw6Kv6vgj8bgT3xdpfvitnU749z5AFJMBAAAlqIsu/jTGt5kKIiYACCKNmuN57a6G5CDIx8Lxdwy9JxSc+NTbBi9sOCaeMPGLma+u3JnwP6MSL+bU23MKcts/cJo3fNmruO56isBNLIJ9LvnAZ0DU/U7345+g+HohUTApFnbG2OmABjFMV7u9pvrD+ehqERMABBFe1HW1PJjFfl5tNf9+Keo+bHfXH8fW0QfTUqbWnc0RuuhWg9+YrA/zVejPyjYxtujUNhEOvt1AX4LYBirvt+8DqDVGbQWbep5hqNveE2tB6uULxfI7hEf788oZFJXsUUQMQFAFM1FWOeTgX8C8CIagqWq0lR4sfoazKkrs0X0y3RMPNsyEk5+AMh3ItwW+7cSgKvzpnQu7Dg/lCU8uy2ZHFS6VFVP5dyjX+QhuAkqv/Uz9ffyCWw/GdUWS2xXOlVEmwEMimgU2tXJboWpDa+wQRAxAUAUvYVXOntPZLf+C9pMSc9qv7BxPttChbAz10m46gYAPxBgDwakzz1XVm0I2ysw1U0tu8ZEWgHswCru8xvt4wr8tmCKs2HHLWY8KkONnT3cufIvEdXXAhRz/eYUP/dJxAQAUbR4TS1jIHJDBIv+gQCn5DOp37MVVPAEtfMk6x8BaABQw4j02cy4IJCJ+UzDLwL/lNZak3QjzlboNEASrNs+sxyCrBPz66Ktf5rhqFzJdMtohVwDYEj0FiBan880zmYrIGICgCgSBp+fG1KI64sANojW2gZzJYZxPGE6SIu47CCvLMdD9EzwCW4f9hW5W2I6Nqh9pXZC64blKjcTwNdZmX3mVYH8ptpUX7fU1n3AcASkr9iZw8rlqushclTEir7AN6XtuTOFiAkAokjw0tlrAYyPUJHLAJr8TMPFfPc0qIkAaxJu6yMM3KkKORr8nGBf+ECM/DBvG/4YpItO2ty31el1ANZlFfY6J4pbnejVhUxqLu+vQaXiNbVOhOiUKN1bReTq/JSG01n/REwAEIVaTVN2byd4JEKD/PtqUF+wqTtY++GQmHTjVibWcYYqTgBQy4j0uhbfrDgZdnx7RV+lnekltfoSVZzBKuv1BWMBkDZnzIVFW/8i4xEOXjo3EtAbEZ3dgU7U7ZdvHvMoa5+ICQCicLLWJNxWj0flM0AK/NMY9628HfMWKz98BtrWoaWyngzR0wBsyIj05mCtT5edHl+cOuaFSry+uM3uEHO4UYGdWVu9agGAq6tL5WuXXTT2fYYjhEkAO3tzdeU/CbBbRIr8D9+8+hVY61j7REwAEIVvYE+3jAPkt5EorOpf/Vjie7B1y1nzIXf6lQlvyHopQH8KYFsGpNe0A3KGn2m4vrLua9kfAvgleFhkb3oB0J/5ixa14qozCgxHyJ17/UDPS8wB8LWILEfG+JmGFlY8ERMAROFydlvSG1h8CcCXInBn+a0/f8XJmDG+xIqPEGtNwm1ztMA1AdibAekdCrnJK+KHSy5uWNS/9Z0d5DlcC2A0a6W3bqX6tCp+7r+YyGFOXZkRiZBRbTFvh+LVUJwcgdLO882KbSr+NSciJgCIqCu8dEsTIJkILE+m+JlGyxqP9BJVEjZ3tDhMALAv49ErMX7NqIxub079oz/+9mTTrH1UzGwAW7AuesVDamRawdbfxoP9Ij53mJxthmJS6BckigvyzamLWeNETAAQhUKtnTms7KpfATCAAzhFavJqZx2KsmmC4BBGo8cVVeWnheaGK/vur1RJplvPUuglAKpZBT3uHhjN+LbxXoaCPrqPprMTAUwN+YJkSawU33r5RXX/ZY0TMQFAFIbBewaAH4a4iCqQn+QzDZeztmlVkrb1AHUuA2Ako9HDnU/lz4VYcVyvf0/73OsHesnEb6CoY9R73EMA0n4mdRdDQau8h6azP1HgslAvSvhZQCImAIjCID5p1vbGmGcAxMJ7I5Efc/FPayKRzn1NoFMA7MNo9GgvfNkZGVW09U/3xk+vaZq9u5NyG4ARjHWPelihkwuZxjsZCvrCJEBT9lwVXBLiIpbUyY6FqQ2vsLaJeo9hCIh6uZPFJB3mxT+AaVz805oqZBr+5mdSX1HoMQr8kxHpKbqNce4Rryn7g57+yV46+0Mn5Ye4+O9J8rgCR/mZ1H5c/NOayjenLlXBpSEuYrXEwn/eAVG/j0AMAVHvWfn0/1mEN9k23c+kTmZN01ouWiWZbv2uQi/k4rJHtfjt7ke4bMyKbv2Us9uS3qDSlVA9kSHtMW9C5UI/9spv+N1zWtv7ppfOTUd4Xyssq9MdC1MbX2JdE/UO7gAg6s0OZkxTWPuZAn/yX4ifylqmtSeazzTM8U18RwXOAPAeY9IjGpM15uHEpNzWa/sDEpNatvUGFv/BxX+PeVeB0/wFK7b2mxtmcPFP3blv+i/EfySKm0NawJjEzATWM1Ev3kUYAqLeEean/wr8q9DuDuj2E0aijztnVm2yJnaaQicAGMSAdNtSBxlTzDT8X5cW/zZ3FJzmBFiHIey2FYBe7Ru5EDa1lOGgHmPbBiRd4UGF7BLC0nEXAFEv4g4Aot7qXDEzKaR9bIEpx77BxT/1uMvGrMhnGi6JmdK2EPkNgDKD0i2DDPSPXlPLBEDXIOGv4qVbmsTpLVz8d38BA2B6lXFb+pnG87n4p55PANQt17L5BsK5c4q7AIh6EXcAEPWCuG3dzjj3LEJ3+J8WRPXgfPOYR1nL1Nuqm1p2jcH8AqKHMhrd7LmQmwqm+vuwdctX+RvOvX5gIuHNEtFvMlrdnlrd6VR/UmxOPcNYUG9LNmX3V8HdAOIhK1qHGt2+YBtfZS0T9SzuACDqjY7lyucghCf/q8qPufinvlJqbnzKb244DEaOAPAcI9KNJSn0O54rPh63rdt9+r8lbMsIz0s8zMV/t6P8skDq/EzDV7n4p76Sb049KIrzQli0KlH5CWuYqDfmBETUo2ontG5YrnJvAPBCVrQ5fiZVxxqmfmHb4klXOlWhTQCGMCBrbZEarS/YxtsBIJFuOdpAcgoMZmjW2gcK2MKCFddixvgSw0F9TyWRzt0kwLdCVrD2amM2W2brF7KOiXpOFUNA1LPK1e40aNgW//qaX0j8kLVL/ZcAqCvmgcsH2bYbSlqcrIrTwF1sa2OIOPmrl85dKkYWq3PTlHFc6xsjgGxVKf6T5RfV/ZfhoP4jWjAzf+C56l0BbBmigtWUXPlHAJpZx0Q9eMdgCIh6cpEyvcZztW8CGBqiUnUYxX7tzal/sIKpUiSbZu2jYq4BsCejQf3gMaM4jfdFqsD74gMI1wO+d31T2hx2nM8aJuoZzPoT9aBEufb7IVv8A9BpnORSpck3j3nUN69+GapjAeXTV+orHyj0LP+FOJOiVJH3RYhcGrJibei5eANrl4gJAKLKY60RkTNDtfSHPukvaJ/GyqUK7XPOb26cVV1y20N0BgDHoHxRn6a15AT667iJb13INF6BOXX8RCVVJF+qpwj06ZDduc5es0+ZEtGaYGci6iEJmztKnP4lRANuwanszdOsKShqbMsezpnpgO7FaFDPTZT0aRgZn7epRxgNCoLqppZdYyKPIVyfBjzcz6TuYu0SdR93ABD1VGcq6/iQlegiLv4pSNpt4z99M3xfhZ4FYDkjQt1tUoBOyZvE3lz8U5CUmhufgshlISvWeNYsUc/gDgCiHpCceMPGGou9gfAcvPOKb0q78NAdCipv0qwtIHI1RI5iNKjLkyPFrerkNH9aw5uMBgXS2W1Jb2DxWYTnqwClmCltusKOW8DKJeoe7gAg6gFqYieEaPEPNTiNi38KMn/qmNf95sajBVIHYD4jQmtonhj5Tr45dSwX/xRol9fl1cjpISpRddlVj2PFEjEBQNT/rDUQ/CBEJfp9wabuYMVSGOQzDXP8QvzDQwJ5Bh6tzpy4ie+Stw1/ZCgoDAq24a+qCFN7/iGs5dqFiAkAov6VwIijAGwWlvWSGHcua5VC5ZK6Jf6UxvEK+ToAPtWlT3tDoV/1M6m6pbbuA4aDQjXRj+FMAPmQFGeLhNv6CNYqERMARP3biZyeFJrCiFyet2PeYq1SGBUyDX/zTXwnAa4BPxlIgBPBlX6726mQabyT4aAwytvU2wpcHZ4SKQ8DJOrudJ8hIFp7Ay5oW7+jujgPQHUIBtX/+kZGwKaWsmYp7JK2ZT91cj2A7RiNKNLXYHCibxvvZSwo9OzMdTxX/QqAoSEoTbG6VB6+7KKx77NiidYOdwAQdUOpqvC9cCz+AVWxXPxTVORt40P+svgeCr0c3A0QJU6Bn/umYycu/ik6CYBxixU6NSSliRerYqNYqURMABD1CxFJhaQorxZiG89gjVKkXF6XL2Qafww1hwJ4nQEJO31NjDm4kEmdw6+cUNQUTOLXCMkZKCLawBolYgKAqM8lbMsIAF8Ox7xYpsGO7GCtUhT5zfX3+WbFTiK4EvxSQChX/hCd4ZvEbnlb/wDDQZFk64pQuTAchZH9PZvbkpVKxAQAUd8OPw4phOIcDX3Njw3PskYp2pPj8e35KakzFfo1AP9hQEJjvkKP9ac0joetW85wUJT57y6fiXDsdhI4Hc0aJWICgKgvF80CSFi2oPHpP9FKhUzjnb4p7QJBBSbFuDmhi0uE3/mF+PaFTONfGAwiADPGlwBcFJLSpFihRGs7PBJRlyVt7svq9NEQFOXfvtl4WyYAiFbRz5tyxzvRXwuwDqMRKB+Iwfi8Tf2BoSD6lJOmV3vDal8BsFnQi2I0tkd78+gnWalEXew7DAFR16lz3w5FOVQv5+KfaNXyzQ03GuN2heJeRiMoNzW5Wwx25eKf6HPMGF8SyBVhKIoz5W+zQomYACDqI/LNEBRiUSGW+B3rkmg1SQA75i2/ueFQhZ4FoMiIVKwSoFP82CtH5G3qbYaDaDX3Nd//jQKLA18QBRMARGuzimEIiLombmftZJx5Jvi9Xy70pzRMZI0SrXnfjznTqsDOjEZFedEYbWi3jf9kKIjWTGJyy89E5Zygl8MZs33R1r/IGiVac9wBQNTVTuPkWyEoRtGIuYa1SdSFTmPHPJs3K74C0RmMRoUQXOsvi+/BxT9RF+cyHVVXAigFvhxlvgZAxAQAUS9TIAwJgN+329HvsDaJusiOb/enNI4Xg1Gh2EIb3PvwYoF+15+S+hEur8szIkRdk582+j8A/hj4goj5FmuTiAkAol7j2dmbC2T3wI+XiumsTaJuTJ5t6g/GuF0BPMho9LnHxMie+UzjTQwFUbdmAyGYC+he3qRZW7AuiZgAIOqdYcZ1HBeCYjybb05x0ULU7STAmLf8BStGQnAxAMeI9DoHkQt9s/H+vm34N8NB1D1+pv5eAC8Ffm5mzDGsTSImAIh6hUC+HviBEuD7y0Q9Zcb4kj8ldQGMOwLAO2vdK+mLvKdGj/anNEzkp0uJemxWowJcF4LFzNdYl0RMABD1PDu9BsBBAS9Fe8GUWliZRD3Lt2PujnWYPaBy91pMwhnA1cfnzirjdi7YxtsZC6KeVVUq/w6AH+QyKDASdqbH2iRiAoCoRyUw4BAAyWDPo/FH2HGLWZtEPW/FhfXv+i9WfxWQZvCVgJ7gAJ3im1eOXG7HvMdwEPW8ZReNfR+ifw54MWoSqD6ItUm0ZqoYAqI1Y5weGfSNuqqSZU0S9aI5dWUfSHt21r1wphXAhgzKWlmokFQhk/obQ0HUy3MDkZwojg90IZweCeAO1ibRGqxpGAKiNRwggaC///9ewQy/izVJ1Pt8O+ZuMdgL/ErA2vgHyrJXIdPAxT9RHyhg49sBvBvkMgjkSNYkERMARD3Gs7ktAYwIchkUmuPhWUR9J29Tb/tm40MAvQQ86W+NblMiuNJfsGJ/f1rDmwwHUR+xIzsE+EPAS7E9PwdIxAQAUc/NSl3wT5iNqcmxJon6fmLtZxrPF+goBPygrd69ySJvjH47PyV1JmaMLzEgRH2+Igj+K4Iih7EiiZgAIOqZMQV6cMBL8HJ7c8MTrEmi/uEUGwFIMBKfe5NNlJ3ZiIEg6h952/AogH8H/D5yCGuSiAkAop5yYLAvX29iFRL1j2S65acichX4vb9V351WzkcEek0ynf0JI0LUL6tnVdE/BrwMB7MeiZgAIOq2+KRZ2wMYHuiOrvgTa5KoPxb/ufMUcikjsZop+8dXIMBlXrrlYkaFqB/mChL4ucImiUk3bsWaJGICgKh7k1MxQc8oz2tvbnicNUnUt7zJ2WaFcjHb9bvueUwCEPW9PF57BMA7wZ6zdXAXABETAETdHExMsN//F8FNnQ/WiKhvqCTTuV9CMYmxWPskQHJy9hpA+doEUV+x1ongz8Fe2fA1ACImAIi6P5c/ONiX7/6PlUjUZxNo46Wz1yn0TAZjFfejrvxexSleOvdrWMu5ClGfzRkk2K8BqB7CWiRiAoBorSUm5bYGEOSTqZf58B5gTRL1xeL/nipPR7QAcgKDsWpr8Th/vOdG/Baj2mKMHlHv899//34AywNchE29ibnNWJNETAAQrd1k1eArQb5+BebC1hVZk0S9vfhviyfcOzdCUc9g9Lix3g7FVpw0vZqhIOplV51REOg9wZ67uX1YkURMABCt3SAC3SfY14/bWItEvez0KxNJV2wT6HcYjF6iqEsOq/0T7EyPwSDqXU7l9kBfvzFMABAxAUC0tnNOCXYCwLi/sRaJepGdXuMNWe8WBY5jMHr7foyjPVf9V9i2AYwGUS/OHdTdFuzrVyYAiJgAIFqbif1MD9BdAlyC5/J2zFusSKLeukdkB3mu5m+AHsFg9JmRXrl4C5MARL3HnzrmdQAvBbgIe/CVISImAIi6LFlO7A4gHtTrV8GdrEWi3jH4/NwQz2EuIAcwGn1McIjninfAzlyHwSDqrW6GuUGewtUMr9mZtUjEBABRF0c/DfYBgCr3shKJet4AO2uDYlzvAbA3o9Fv9k24qrsH2tahDAVRr0yC7gvy1ZcdzwEgYgKAqKsLaGiQJ/fOM9X3sxaJelaNnT28w5l7FdiV0ejn5Qlk9w7n7q6d0Loho0HUs2KmfB8ADez9QfTLrEUiJgCIumr34E6M8cxSW/cBq5Co5yRtdhPnyvcB2J7RqAwK7FyucvfVTGjZiNEg6jnL7Zj3ALwQ2HmQBncOR8QEAFF/OLstCWDr4BaA2/+JelLthNYN1eEOACMYjYqzrasy9zIJQNTDMwloYF8DUGAH2LY4a5GICQCiNZIcXNoZQCzAPfvvrEWinlv8l6vcveCT/0qe7m/jquSOARe0rc9YEPXYKvreAF99dS1KO7ASiZgAIFqzMa+M3YLdsYsPsRaJum/ABW3rl6vcXADbMRoVb6dydWEuDwYk6iExCfRcouyUZ7UQMQFAtGbEBHrQeGOFHbeAtUjUPYPPzw0pVRdvB7AToxEMCtmlw7m5Ay+4YT1Gg6h78jb1NoB5wb0fMAFAxAQA0ZoOGhroE74fZQ0SdZOduU4hjjsE2IPBCNqkH7sWq2NzB9m2dRkNom73p8eCeu2ihgkAIiYAiNZouBMAOwd2wIMwAUDUHee1DfZc9R2A7sVgBPU+iN0Krnjn4PNzQxgNou4sFAI8pxDdjTVIxAQA0RfyJrZuCmBQcHu1YwKAqDuL/0TxDgB7MxgfCuanwAXYoxDXW3Hu9QNZh0Rr3fsfC/Dlr1tjZw9nLRIxAUC0+sGuWrcN8OWX8ksST7IWidbCudcP9BLF2wB8mcH41FI6uPbzvMRfcM6sWtYjUdf5vv84gHJQr985ty1rkYgJAKIvGC00sJ/6EuB5XF6XZyUSdZGdXuMlEjcD2JfBCJ0DvRq5HbZtAENB1EWXnrAMwKtBvXxVZQKAiAkAoi/sFIEdLFTkKdYg0Vos/l3trRAcwmCElRzgueJfuROAaG26D4I7tzBgAoCICQCiL1hEqwnsYCGqT7MGibrg7Lak52pvBjCSwQi9A72a2J9gZ3oMBVEXOA1sAkActmMFEjEBQPRFq+jADhZquAOAaI3ZtnhyYHEOgMMYjKjQI7xy9f8xCUDUhV4TM/8K7pyOCQAiJgCIVrsgyA4CsFFQL78KZe4AIFrTxX+5eJMCRzMYESP4qleu/hNOvzLBYBCtwWKh1BHkhwubwk6vYS0SMQFAtEo1cNsguEdez19ux7zHWiRag8W/K/xBBccwGJFNAhyZGLLubJw0vZrBIFq9/LSx8wAsDOpaJ46BI1iLREwAEK2SOrNVgC//edYg0RcY1RZLuFKrQo5lMKKeA8C3vGG1LRjVFmM0iMI7x4g5txWrj4gJAKLPyQBgiwBPZl9kBRKttoOLt0PpWoF+h6HAPVC9k20C3/O2L14PqDAURKv1UnAvXTZn9RExAUD0OcsDBHaQcIEenIl6X2Jy9lKonhj5QAiy/rsrvubHEsdA0MqWgbHJdOvlDAPR6m4bAZ5jiDIBQMQEANHnZQCCuwMAUO4AIPocXlNukqicE/lJvOBKX14dixnjS7B1RX9KQ0qBn/HWr2cm07nz2FOIVs0FeY6hugVrkIgJAKLPmR0HNwFgylVMABCtQqIpewpEmyO/xoVOyU9JnQlr3cduelrIpM5V6FmdvyfSSYCLEumW8ewxRKvKAFS/GNy+LUwAEDEBQLQK1hpANw3o1a/ITzv+bVYi0Sclm7L1Irgq4mEoA3qCn2m0n/cbCpnGK6B6EgAX4TiJQK5JprPfY88h+tQ94iXzBqCFgF4+EwBETAAQrWKhUNpiI0AC+V1oBV4BRFmLRP+TsNljVPC7iI91JVFJ+ZnGmV/0G/3mxt8AMgZAR4TjFVNgVsK2HMkeRPQxc+rKgLwW0KuvHXBB2/qsRCImAIg+1Rtimwf22lXeYAUS/Y/X1HqwOLQBiPB33rVgjNblmxtuXNM/4WcacgI9HkAxws0nLk5uSjZl92dPIvr4LUUDO9dwVcXNWYFETAAQfZJgk+Beu3udFUjUqbqpZVcV92cAySgv/tWgrt02/rmrfzKfabxJgW8CyEe4GdWo4K81tmUP9iiilVMNE+CHDTHdmDVIxAQA0afmy9gowMMyEwBEABKTclvHRP4mwDoRDsMKGHNMwTbevLY/oJBJ3QY1XwewPMJxHOQcbo/b1u3Ys4gAuODONcrObMQKJGICgOiT45oJcgLAvMEapKhL2uwmYvROABtGNQYCLBGjX/Vtw9zu/iy/uf4+MebrAJZGt1XJ+sa5O72Juc3YwyjyYsF9BUAAJgCImAAg+szgMDyo166mgzsAKNIGXNC2vjrcCSDKC7VFUPe1vG18qKd+YN7WP2BUDgXwfoTjugliemfthNYN2dMo0vOkcpB3G7rhrEEiJgCIPrWKDm52uNheepMVSJFlZ65Tqi7eASDKW7XfdcYckm8e82hP/+D25oYnjMaOAPS/EY7v1uUq9xfY7CB2OIqqWEfHG8G9emECgIgJAKLPCOQBMQosxqUnLGP1USSd3Zb0XPXNAuwW4SgscGoOK9r6p3vrL2hvHv2kM7GDAMyLcJz39BxuwzmzatnxKIqWXTT2fQT0cNAg7/IkYgKAqPcEcnAQ4B1WHUXSSdOrvQGFPwA4MMJReEuNHlhsrn+ut/+ioq1/Ec4dCCDKrxztl0yaG3HS9Gp2QIomDeScQ6FMABAxAUD0MWe3JQEEdWvnfFYgRY61xhtW2wKRoyIchVfEuAMLtvHVvvoL/aljXoeJHQrg35Fd/giO8YbVzARU2BEpeiSgDx1kKOw9Vaw/IiYAiAAAyZry0OCOxTKPNUhRk9ARPwfwvQiH4EUpl0fm7Zi3+vov9u3oN2KmtD+A56IbfmlIpHOXsCdSBAV116HUFuevx+ojYgKAqHNUMAhuAiCg2/GI1lYynf2JKM6KavkV+FdVKX5QftrYfkv+rbDjFlQZd6hAn45qPQjw00S65Uz2SIrW/Se4c45SLMhzPSImAIh6lJPyuoEdjJ3wFQCKzuK/qaVOgUujGwF53CvKocsvquv3E/mX2zHvVZXcoQr8K7pJAPlF0ua+zZ5JkVk4qAlsAsDElDsAiJgAIPpwEhfcrLCBW8AapCjwbO4gFbkhqmOXQp9MFPHVJRc3LKqUa1p20dj348YcEeGdAEadZpNN2f3ZQykS9yEJ7rlDQZ7rETEBQNTDXIAHBRXzX9YghV3cZneA0z8D8KJYfoE+HS+5Iypp8f9REsDWL4yVEocDeDaizTOpgpvjtnU79lQKfQIAWBjYay8zAUDEBADRh5NrRWC3hTkj77MGKcxq7OzhxuGvAIZENAQvGtPxtZXf4K5Iyy+q+2+VcYchugcDrmucu63WzhzGHkthFjPlAM85HBMAREwAEK1MAJjgJgCqIAtZgxRa514/sOzKfwGwWUQj8JLp0ENX2HEV/6rPcjvmvViHOQzA8xGtq82dq74D57UNZselsHKoDu4OAGN4BgAREwBEKwcFDe6TxfYlsUWsQQqlk6ZXe553kwC7RXXxHzOlQ9ovbAzMO7crLqx/V8rlrwJ4NZJjCbCzFy/eiJOmV7MDUxj57e2B3QEgykMAiZgAIPpoUEBQn9iswOV1edYghXApJd5GtTMAPSKiAXhVyuXDgvDk/9Py08bOE4ORgL4WzQEFR3rDamYCKuzHFDqXnrAMgB/IUUUxkBVIxAQA0cqlRmAHBW7/p1DyJrdOheL7ES3+mzCxI/LTxs4LagHyNvW2lKtGAng9mlUoDd7knGVPppD6IJC9UoQJACImAIg+GhYCOSgIsJh1R2GTSLeMh+qEiBb/DZTlYN+OfiPoBclPG/0fOHcYgP9EsiYVaa+p5UT2aGICoGI6JRMAREwAEH1kUDDnl1jCqqOQLf6PFsjVES3+f2DkMH9aw5thKZA/dczrKMuBAN6MZI2KXBtP545jz6aQWRbQ62YCgIgJAKKPltKBTABIcAdhos+osbP2EsjvAVRFsPjz1FWN9G3Dv8NWMH9aw5vq5AgA70SwXmMG2ppsat2XPZzCM2ViAoCICQCi4AvkoKDAUlYdhYFnc1s6Z24FUBvB4r/rnDuiMPX40B6aV5ja8Iqa8kgA8yNYvzUq7ubEpNzW7OkUivW/CBMAREwAEAXYqLYYgJqAXj0TABR4A23rUDjcBmDDCBb/PWdwaHHqmBfCXtCCHfuyOh0JYEEE63moGHfbADtrA/Z4CjoJ7tyDCQAiJgCIAGyJAZ3jWfAosJwVSIFmp9eUnLsF0G0iufhXc2jRpp6PSoELUxtfcoqvIpJfMJGtOpz5M85uS7LjU6BbsmhQdwBUsf8RMQFAhNpYhxfYQVi5A4CCvPi3JuEGzALwlQiW/gNnzBHF5vrnolbwYnPqmZiRIzSaXzHZNzGgOAtQ4Q2AgkqDewYABidKHmuQmAAgijgX70gENgEA5Q4ACixPt24W6HciWPQVYnB00dY/HdW6X2Eb/mUUxwBoj1rZRfBdb3IuwzsABbYNa3B3H5aMYwKAmABgCCjyCQCoF9xrF581SEGUTGe/B9ULIlj0ohr9bt6mHol6G8g3px6EkeMALUSu8IqJXlM2xTsBBTMDIIHtsy5elWAFEhMARBGnqA7uKwAAEwAUvMV/U3Z/hd6AgJ690Q1lgaQKtvF2toJOvm2YK5DRAMpRW0JBcL3X1HowWwEFbhEd4LmHdnQwAUBMADAEFHVVZRfcwSDAWXiKJs/O3lwFfwQkapMwherJ+UzDHLaCT8pnUn8CcAIAjVjR4xD3h8SkG7diK6BATT3gApsAcAK+AkBMADAEFHVBfgUgyIMwRdC51w8UV74ZQOQ+hSYq5/rNjb9hI1g1P5O6QaFnR7DoQ8V03Izz2gazFVCA7meBffhQFTPcAUBMADAEFHkBHgyc4Q4ACohRbbFkItGqwM4RnC4355sbLmMjWL1CpvEKQC+JYNF38OLFGzGqLcZWQMGYNwX3/CEFdwAQMQFAkafOBfgrADwEkIIhuUPxFyo4JnJLf8Gv/ExDmi1gzfiZ1AUQnRG5gguOTOxQZJKIAiHQZwAEeNcnERMARD3XC4L81KXICqRKl0jnfqSKMyK4qGvNy6unswV0KWjqP584BcDvo1dynOU15U5iG6CKb6suwF/ucOBOG+LShyGgyHcCJ4EdDKSsZdYgVfbiv+UIgV4ZwcXcrf78Fd+HtY6toIvm1JX9BSsaofrX6K2s9GovnT2MjYAqPQUQ3GtXrn2Iax+GgCjIg4Hh4oIqd/E/qWVbgfweQFXEiv5QPu+Ox4zxJbaCtTRjfMlfnvgugL9HrOTVAOYk7A3bsBFQ5U6bApwAMCKsQGICgIjdIMD9oIMJAKpIg2zbumLkFgBDolRuAZ7yTeloXDZmBVtBN11el/cNjlXgnxEr+RBxsdsG2tahbARUmcrcAUDEBABRkAV3MBDuAKBKdNL06qIr/gHA1hEr+Sumw3wNdtxiNoIeYlNLq0vxIwG8GLGSb1ly7o+wbXE2Aqq8uUdwdwDEuPYhYicgggZ5O5gwAUAVx9uo5moAIyNW7LdRliNWXFj/LltAz1p+Ud1/xeAIAG9GrOgHeq50LVsAVd4qWjWwU75A7/okYgKAqKeGA54BQNRDkk3Zc6ESsZPM9b/OmCP8aQ1vsgX0jrxNva1OjgAQsQSLjkumc2ezBVBl4SGAREwAEAV5eiXB3QEgMaesQaoU8XTuOBVcFLFiLzdqvl609S+yBfSuwtSGV0TdcQDaIzVGQX+WsNlj2AKICYAeUGYCgIidgCjIE8Oy4Wm2VBFqbW43A81GbFzpUKCuvbnhCbaAvpFvHvOowhwPIEqfQI2JQ2u8KbszWwBVxiK6HNy5hxg+OCEmABgCijrRAE8kY6UYa5D62yDbtm7Z6U0ABkSp3Ao5o5BJ3cYW0LcKmfpbAPwoYsUeaAS38MsAVCHLhwB/2lU7WH/EBABR1MWCOxhooAdhCoVRbbGiK7YC2DJaBRdbyDT8mg2gf/iZ1HUApkWs2JuVnLsR9h7e96l/5x4xCezDB2e0zBokJgCIos4FeSspEwDUvxLbF34G4GsRm/5e72caprD2+zsJ0NAEwe8iVuzDEjpvGmuf+nneFODdh4Y7AIgJAIaAOI4FdzDQMvgKAPWbZFO2XiBRO6H8Nt9scjJrvxKI+vNXnATgb9EqNX6abModz/qnfpt7wAX34YMDdwAQEwAMAZELbjZYHHcAUL+obmrZVQXXRazYT/gmXgc7kk+QKsWM8SXfL4xS6JORygGI/rbGtuzBBkD9tHoI7MMH4RkAREwAEAX5QBiFMAFAfW6QbVs3JvJHADURKvbrMVM6BrZuOVtAhbn0hGWxDhwN4M0IlTrpnPyRhwJSPy2jgzv34BkAREwAEEmg3wfjDgDqY/aeqmK5NAfROvTvfXX69RV23AI2gMrUfmHjfGdwFIBFESr2ZiWnrRjVxlfBqE+pC+4hgCjzFQAiJgCINLivABjAYwVSX0q4ty+F6KERKnJeFMcVpja+xNqvbEWbeh6qxwHwIzSAHZHYvngRa5/6UkyRDOq1C2J8BYCYAGAIKOokZgqBnfqpJFmD1FcieOifE2hjvjn1IGs/GPzmxvvV6PeA6DzlE+AcHgpIfTr3EBfYuYeJaZ41SEwAEEVcuRzgwUDABAD1iSge+qfQH+czjTex9oOlYBtvVsjpESoyDwWkvr03BvjhQ0eHYwKAmABgCCjqJMDZYOUrANQHonjonwouLWQar2DtBzQJkGn4tUIvj1CReSgg9d3iIcAPH0SNzxokJgCIot4JSsHNBhvlDgDqZaPaYkVXbEW0Dv37fUFevYCVH/QkQOonEGQjVOTNSs7dCHsPD4elXhXkHQBV1WXuACCufRgCirrq6mRwdwAIzwCg3pXYoXgZgK9FaGp7n7/og7Gw1rH2g07Ul/gJAO6KUKEPS7h5F7LuqZdXD4GdeyxvLzEBQOzCDAFF3dIlCPBg4JgAoF7jpXMNojgrQkV+wTcd38RVZxRY+yFh64qJoowCEJmvOAhwTjKd/R4rn3pLoF8/XNzBVwCICQCGgCLv8lF+53gWwImemFpWIPWGmqbZuwMapUP/FqqrOhZ23GLWfrgsubhhkRo9BsD7UckBKHB93LbuwtqnXmlg0KCeB9OBGeNLrEFiAoCIQ5kCWgzilSt0AOuPetog27auk/IfgMicMVECpK4w9fjXWPvhVLCNr0L1W4BGZXdHrXHuZh4KSL01TAT0urn9n4gJAKKPkgArApkAUAxm3VGPsvdUFculOYjSoX8qJ/mZhntY+eHmNzfeD5hTI1TkzUpOWzGqLcbapx6dMbnAJgDaWXtETAAQfWhpIAfh4GbhqUIl9O2LIHpodEqsl/jNDb9jzUckCZBpuF5FL4tQ+z7C26E4lTVPPdqqRAdyrkcUXPxUDBEAgS5VSBAvfSBrj3ps8W+zx4jDT6LT7/GX/AuJiYG8eNs2YLBfqv70LxdiGIRqfOaJr4FbB2Wz+ptczKmDWfyZXy+hnCh/duK8xKsuwdYtD1roCvLaeUkdsbUCx0VjtYbzamzLo+228c+8y1HPNCkMkmBeOhMAREwAEH04mMmygF46dwBQj/Am5jaD0xs618WRmMD+y29338OcunKX/uCottigHTG4iNI6DhKvKmutQuIa01p1LmFgahTwoEiquKSB8bTzax2eQGpUNAFFLSBxAAOgqIZgAIBqQAYCWrWyX69cxGsNIInPXIcrohD/nGt0q/ol6TzuZHWcYJXnocaAwio2kXuuCKSzq4puAZAPt9qWOyfd0gHoMgAlKJYDWoTIis7/xQpRKSi0HYAvMHmnyAvgQzr/18G1izEFKcsKgRbL6pZLlSklfCxa8lr10i7Vo7Uub9tSSVd8QIFdI9DcxTn5rTdp1lP+1DGv825H3W5QwZ17MAFAxAQAUeAHBe4AoO47/coEYnoTgHUjMn19T2DOSQ4wu7t06xDR8hAVDPlwsS4iQ1QxRBRDVDAEwBB0fvYqCRQ3LLrO1+cMtHPNDAUcIBDohwto+fi/y4dJB0DlMzPpT6QlVjXVDl58EwA+nrQY+omyycfLJYB++F8/jJNC5JNREQjgFCorIyqd/16IA972RSCd9dF5wJcPYBGARaJYpIJFIlikqnkAvn74665jkRhj1bnpADaIQKMfAmN+j9OvPJCfuaQeEMgEgDABQMQEAFEIEgDcAUDd5g1Z9woAe0anxLoBUJ6r7sO1qEBWLjwBga5cq6qwbQSpGeN/3ybf6OP111mf8oncg8DBucjFaO/kuutdlgdOZ3Ohbi6lA/nwQZkAIALAQwCJgp4AGICTplez+mitV03pXAOA8YwEUfip6mnJppY6RoLWmp358WRboIhgGSuQiAkAos5JUXATADJgeHIIa5DWRsLesA2gv2YkiCI03olcH580a3tGgtZGsmTW41yPiAkAosCT4B4CiGIH1mMNUpedM6tWXOxP4DkSRFEzwBjTBju9hqGgripXVwd3zuGUOwCImAAg6qSKRUG99lhVFRMA1GVerbkWwA6MBFEk7eS5AVczDNT1hUM5sIfFKmQxa5CIhwASAQBE8H5Qr73slAkAWnMnTa/2htWeC0WKwSCKMh3nNc36jx/LXwI7vp3xoDWaL0GGakCv3UAXsgaJmAAg6pwGGfe+uGAe+W2UCQD6pMHn54aUqrGlCrYEsKWK2xJOtkTnv2+Gj74xT0TRXs2ZtOdq00hnFwH4d+c/+m+o+Tdinf/uP1f9JubUlRksAgDndD1BMOdLKvI+a5CICQCizkU0zAeKYOa0RZgAiJyTplcnhntbAGY747CtQraGYgsINgewaQEa/9Ss58PPrYNftiOiVRiCzk+B7tn5nUQFVn4m0du+WEQ6+xYgr0Pc6+LMK07kJZjSS4V3/NcxY3yJ4YsOUawX1IEkZpgAIGICgGgl1xF7X0xHIK9dwUMAw+rDJ/kObkcIdgBkSwBbAtgRrvMzTB+lrdZgQsbFPxGthTiAEYCOgApUFAIFXAzesNoOpLNvQfFvMXhenTz30c4B2/Bvhi581GCIBPQdgHIpuOc9ETEBQNTDvI7yB4V4QC9eZH3WYIDZtriH0ibqZEcD3eFj2/V3KkCHcelORBU+j9wSgi1VcfjHdw4k0tnFAryGj14rwPMG5rn2fPlFXDZmBUMX0CmHBnfO4VdXcwcAERMARJ2WXFy/2EvnOoLYJ0SxIWuw8tXamcPKrnpHhWxjRLdTxbYAtoErbgbACFa+hLJyuz4RUaAXisA6+MRrBYCDwqsxZaSzb0Lxsoi85ICXxJRfihWrnltxYf27jFzFGxbMy9YCbN1yVh8REwBE/1tGo2URELzMtgZ2MA4p2xaPlzu2NijvCcEOorKjCvYsO2zUOSlWqDJMRBRZMXy4awB6pACAMyhXOXidhxE+D9HnVPG8MbEn8ss7nuSOgQqaLQHDAnpiEp/+EzEBQLTKwSGIW9uYAOgnNXb28LLTPQ10B4XuCGBPuOK2EMQ+fIyvfJpPRLSmhgDYHyr7CwB1Dl6NAdLZ+aJ4QkWfg+J5h9gTxdjLL8Bax5D1LQU2COilf8DaI1q54mEIiDp56ezfARwYwEsv+eZVjxOhXnRe2+BksmNnLesOYnRHVewJYFcAAxgcIqJ+UQTwKoAnBPKcgzxf1YHH+BpBL7LWeG5EAcF8gHiXn0kdzkok4g4Aoo9bENDrrh6IbdZdBixkFXZ/chPHNtsYp3uq6C7isAsEOwPFjdWh81N63L5PRFQJ4gB2ALCDovPLBOUqwEtn34biWTV4WlSedkaeKOLll5kk774B2HJoR3DXDu+xBomYACD6BAEWBHVtVyhjQzAB0GUfbuEXlPcUlT3VYT/ArQt0ngrBPVJERIGzCQSbiOJIQGGcwsOI5UhnnxLBE+r0Cb5CsHaKqBpmEMyQKXQBa5CICQCiTw0OCOy2QSNuGIDnWItdWOyL7uNcef3ONb7wXX0iovAaAGB/VewPERg4eG7EUqSzz3wiKdA8+vmV6V9aBXHlDYOaGTcwfDWEiAkAos8MbQuAgI772nnCPH3eYh97O1fe8JOLfa74iYgibNCnkwLJdG6JIvvsJ5MC9UyufzhLghkW1HmSKpgAIGICgOjTa2i3QAK6KBRgk6jWW+2E1g07qsp7CcxeorqXCvZyrjyMT/aJiKhr8wAM/nRSwEtn5wv0cVV5XEWfqOqIPR7dgwZ108BeeczxFQAiJgCIPilm9F3nArpaNLJxVOrJs7ktUXYHwGB/qBxQhtteIAIoF/tERNTTNlLIsRAcKxCUqzqTAgAeUOiDMTUPtMdeeTIS5wkINgnqRslYuYo7AIiYACD6JIUJbnZY9UuhrBQ7vSaJgXvA6f5QPUAF+8LpeivX+0RERP2SFAAwSiCjnCg8N2IZmrKPQvRBReyJQqHq77ikbkno1v8OmwQ20V7u4A4AIiYAiD4p/86Kd71htYE8+11D8gpAjZ09XJ3bH8D+Ct0PDrsrXOd9ik/3iYioMg2E4HBADhc4eIliCenskyp4yAgelKI+2H5h4/ygF9KJbhzQVyVd+8J2fimJaCVOqYk+xktn3wWwQQAv/V0/kxoWuHh/ajs/Or/pTEREFDaBf23AS2cXAlgvgLFf4GdSPCyZiAkAos9KpLNPCLBHAC9d/UUfJHHVGYWKvUI70/NQ9RU4HAiV/SDYD52nMBMREUVtAr5EgYcAfRgG9/vvL3q4osfws9uS3sBie0Cj/bifadibrY6oE18BIPoYo3hbJZAJAPEGrzPcB16vmCsa1Rar2a60mwoOV9XD4bA/gOSHMx8iIqKoWvnFga8D8nU4wBuybh7p7D8BfQDGzPVR/XfYumKlXG9icGFjBPSgZFW8zRZHxAQA0edkAPB2YA+XE9kE/ZwA6NzSj8MheriieIQD1uGCn4iI6AslAewPyP5wep6H4go0ZR8WkbmimNvfrwyIM18K6um7xjABQMQEANHnUKfzIAFdrYrZHMD9/bXgBzASTod+uNjnmr8X2ynjS0QUdrUQHK7Qw1UAz41YKE3ZRyDygCjmtjfX/xOQvluRq24R2IHH6X/YnIiYACD6PAHOErvNe/tvqJnQspFWmQNU3OFQ+RqcbsaVaN9jyImIImeoCo4B9BgVwEvn3gWyf4fKXMTMHb4d/UbvDjyyeYC/v8sdAERMABB9jpi+HdR33ACzRU//xNoJrRu6mI5U0UMBPdRBtgIUUC5BiYiI+tGGAEZBdBRcGV46+ypE7xaVu2PG3bPcjnmvZxMAukVQ1/8aEyYAiJgAIPqcQQL6dnCXtrp5t3+EtaamvPXu2rnt8Ngy3L4AzMrRnw2EiIioMo2AyggFTupwBl46+zygt3QeKDj8XtiRHd2bYujmgZ0HdJT5CgAREwBEq1aA/7aH2qBe/lrtABh4wQ3rdVRXHariDoeTY50ov5VbkfjmPxERrbEdANmh80DBee8jnb0bKnNjseLNK+y4BV3/cbJ5UAdPf8nid9gciD7WmxkCok/y0tn/AhgawEvv8M3GyTXJ8sebWneMiR6jqodDcDCAatY8ERFR6DkATwI6V0zs1rwd/eAXHiZo2+KeK+bx0Y7AQJnvZ1LDWe1E/8MdAESf9XpAEwBVHhZs4gNvfOa/nDOrNlFTdahI+RioHA24jRVgCpCIiChaDIA9AdlTnTuv86FH9l6o3urHOm6GHbf4038g0VHaDCaQi/8P53RExAQA0WoIXodi72BefGlLrEwAeDa3pTp3rKgcA8FBgIvz8D4iIiL62KRnfQCjIDLKc9VlpLP/AvRWo+aWjz41WKVbwAV2TvcG65iICQCi1VLgjaAuk7UD3/Qmt3wPKl+H0y8JhE/5iYiIaE3EsHJ3gBOd7KVzbwHZ29SJC+wnAJU7AIiYACD6wsFC3gjqQCfGnB7cz/QSERFRBdkUwHgJ8sRC9Q1WI9EnGYaA6NO9wjFbTERERBR0IpzTETEBQPQFOrhdjIiIiCj4Kx0mAIiYACD6AoWqjjcBbqQnIiIiCrCy/87y/zAMREwAEK2eHecDWMBAEBERdQdz6dSv5mHG+BLDQMQEANGaTFpeYwyIiIi6g5+hoX7FuRwREwBEa9w1XmEMiIiIiIJJoC8yCkRMABCtIWUCgKg3ehZDQEREfTLgyMsMAhETAERrRAyYACDqjb7FEBARUR9wMe4AIFqVKoaA6LM6yvpKTLhUIaIelwfgA2gHUBBghQJFQJdDpaSCZQJ0ALoUgjIAKMxyUbeKg6xkmUA6PjPpVV3lrwvw0c/8DEVMgUGf/WWtMiIDP/PrimqIG/CZXxdTLVj564oYIIMUqBLFQIhWAzJAgLgCtQASAGoAeACSbBpE1JOkQ19iFIiYACBaI6W8vhqrEQUfWBJF1VIAS1b+7//+EV2kwFJRLFVgqcAsF2ApoB1qZBnKUjLQ5R3QoonJCil1FOLlqvYlhWofl9flGdbVOLstOThR8oqxjhqtrkq4stZWQeIOMgAxrRanAwGpUmCQwg0QYJAKBgkwCCpD0JnAGARg8Mf+/yAGliiKtOC/5L3FOBB9Fhc3RJ/DS2fnARjOSFCvTU94E+5NiwD5L6ALRbFQjSwW1SX/W7zLYhFd4oClRrG0DCw1TpYmyli65OKGRQxfeAw+PzekEMMgZ3RQDBjkBIMMMEhVBotgyIdJBAUGidN1VDAUkKEK3UCAdRhBokB61s+kdmYYiD6LOwCIPn959gogTABQr+Hif42VACwUYKECCyH6rsAsVMVChS40wEI1+q6DLqwqyvvtC9sXru23n33GOnRWJnTWLqlz0vTqmqE1QztiMtSIDBXoBg4YKpChIhiqcEOhsqEAQxUYis5/qhl1on6ewUG4/Z+ICQCirq7OzCtQPZiBIOoVRQDzAcxTxTvG4B04zFfgPY11Luod3MIC3Huw4xZ35YcS9ZgZ40vtne10/hr/GTtznQTMBgZmqAOGSlmGCrABRIY51Y1FMBzAxgA2AhBnkIl6YQrHTwASMQFA1OXBQ93Lyme0RGtHpQCUH4KYtwF9R4H5BuYdGJmv0Hf856rfxJy6MgNFoWPHLS4AiwF84SfIBp+fG5KvluEmphuh7IaLmI0gOtwBm4ji6+DhiERrO4vjDgCiz+sdDAHRp5w0vbpmeM3RzskEAHszIERdXv0Xyop9Ss2NTzEWRGsnbmftZJx5jEkAorVa4Nxfhvy8aIb/BXZkByNCxAQA0WckJuW2FuMaAPkBgC8xIkRrufwHTitkUtcwEkTdHJfSLWcK5JeMBFGXx6EPFzkLRNBWFndd0Y55lpEhYgKAos7O9JIufqyqngTBYewTRN0cVBQ355sbvgmIMhpE3V7GSDKdu0WBoxkLom57Aioz/Hw5h8vGrGA4iAkAogipsS17qMOJgNRr5zejiaj75lUbs9syW7+QoSDqGQMuaFu/o7r4FDoPDSSiblJgsQFyorHr25tHP8mIEBMARGFl2+JJVzpu5dP+wxkQoh7lAHzVz6TuYiiIepZnWw6Bk7kAYowGUY/q3BWwvLoFl9flGQ5iAoAoBGrs7OHOdZwE4BRA1mdEiHpjNJEL/SkNExkIot6RmJy9RBTnMhJEPU+BxUYwSyV2uW9Hv8GIEBMARMG7lUsinT3cQE5V4BjwqQlRb/qHv2DF/pgxvsRQEPUSe0+V5+bdD+ArDAZRrymryi0SwzW+rb+L59kQEwBEle7c6wcmvMT3BTgVwLYMCFGvW65O9ihMbXiFoSDqXZ7NbQmnTwIYxGgQ9boXVfWaQizxO9i65QwHMQFAVEFqJrRs5KowHpDTAazLiFAFmA/gVUD3ASQe2kFE0ZBvTrWyuon6KAnQlE1B0BLW8inUFzX3Q3QrAFtwrkoVYKkIfqcd8gt/WsObDAcxAUDUnwv/ptyeTvRMAKMBVDEi1A+WAXgZwPMKfUKMea4K5aeX2zHvJdPZPytwXIjLfoOfSX2fTYCoj5MAk7MtUKRCOzlV3JpvTh2L89oGJ5MdO2tZdxCjO6piTwC7ABjIVkD9wInirxqTK3zbMJfhICYAiPrKSdOrkxsO+I6Kng3gywwI9aH3oPo4jDxuRJ90ME/7tv71Vb0jGPandAD+7fuF3XDpCcvYLIj6mM0O8hyeArB5eJMAMjrf3HDjZ/+LimdbtzBwuzhn9oC6PSGyF4AN2DCoDz0mKpfn311+E8+/ISYAiHrLudcPTHqJkxQ4C8AmDAj1sg+geBxGHhfVx1GOPZ6fNvo/a/IHO7/bXXguxF+dcFBzqN9cfx+bCVH/SDZl91fBfQjvIbfvxzrMjisurH93jeJhZ20KxPZSp3sBshege4KvBFLv+48AV+T9wgwmxIkJAKIeMsDO2qDDySl8v5960TIAT4vgCXX6hEPsiWLz6OfX9vTfRDr3B4F+J7zh0kv8TOP5bDZE/SsxueVnonJOiIv4ez+TOn5t/3CNnT287HRPQXlPUdlTBfsCWI8th3pjHiGCmegoX5qfNnYew0FMABCtzcRm0o1bmVjHGar4IYAkI0I9ZDmApz6x2I+9/AKsdT3xw5Pp3CiFtoU4fs/7prQn7DifTYmon51+ZSI5ZMhjCtkltBNVI9/J24Y/9tTPW0VSYH8AQ9iYqIcUAfzeOXdRceqYFxgOYgKAaE0WUE3Z/SH4qQLHAjCMCHWDE+izAB5UxSMuJo8Xn4u/hDl15d74ywZecMN6perYcwA2DGc4tVBW7FNqbnyKTYuoMtTa3G5lp48CCOvXRhbETXzHpbbug1756aPaYvHtOrYz4vaC4Cui2F+BHTn/oO7OPxT4P6PmZ/nm+ocZDmICgGhVC3/begDK7jwVHMNo0FpaAeBfgD6giD2YMFUP9tqkcRW8dEsWkIbQDhiK8/LNqUvZzIgqi9fUMgEi00JcxL794ohtG5BEx25wuj9UD4DgQAUGs6XRWnpQYS4pZOpvYSiICQAiAJ7NHQ6nzQC+wmhQF80XxRMQeQBGHsyj6jHYumJ/XEgi3XK0QG4Ncawf8l+IH9RbuyeIqDsLVms8N+JeAAeGtYhq9LiCbby5X/7yD3cJQPeH6AEr47w5Gx51qQ1DnzQwF+Uz9X9Y2zOGiJgAoEBPVhJum6MFmgZ0LwaE1kAZwEsAnoDKAw7yYLG5/rmKuLLz2gZ7ieKzCO/XKVaok90LUxteYTMkqkyezW0Jp/8CMDCkRXzHN6UdYcctroSLqbGzh6tz+0P0AFXsD2B3BP61AeXSoG8WX8+o6mX+i4kck+rEBABFYOF/T5VXfrseIhcA2I4BodVYDuBRCB5UlYcKRh+GTS2tyIn35Nx1UD0xxHVxkp9JXccmSVTZEk3Zk0Xw6xAXcbqfSZ1cmfOb7KAEdD9xZj8o9ofoPgBq2SppNV4A5CL/hepWJgKICQAK4cLfmqTb+jsKTAV0GwaEVqEDwFOAzoUxc/33378fV51RqPSL9uysQ+HM3BDfT//mZxq+zu2KREGg4jVlb4XIUWEtoEK/Vsg03lnxVzqqLVazXWk3FRyuqodDcAAAj22UVuF1qFzsx4b/FnZkB8NBTABQSBb+mgGf+NMnldF5YN9cRezBgp+/F5eesCxQJThnVq1XY54GsGVI62hhzJR2XmHHLWBzJQqGGjt7uHPlpxHe792/4Zv4zrB1ywN11We3JZODO/aE0/1XJgQOQni/3EBr50WoXsRXA4gJAAoolUR69jGAywiwG+NBK/0bonNFzdx4EXOXXNywKMiFSaazVytwangHCKnLZxrmsNkSBe7e9C0F/hjie9MV+UzDWYEuxDmzar0BsX3h3OGAHI5QnCFAPeR5qF7CRAAxAUCBWfgnbeu34NQqsDPjEXkvQXCPqNxdZeSeZbZ+YWgm2Lb1AHXuvhBP2Fr8TGoMmzBRMHnpbCuA0SEtnhOjB+Zt40NhKdCAC9rWL1cVRqrIoQAOBbA1W3HUF2n6NCA2n2n4M1/DIyYAqFInG4cBuAjA3oxGZL0N4C6o3i3O3ZWfNnZeKEtp2+KeKz4JYIew1mOiKLsEfYcGUaTZmet4rvppAF8KaQmf8xes2B0zxpfCWLjkxNlfUtMxEsYcBtXDAGzMRh1Zj8G4C3w75m6GgpgAoIoQb8rubARNAEYxGpHz4Xv8txo1t7Q31/8zCllqryk3CaLNIS2eg3FHcKJBFIJ7lc0dDqd3hHW+J4oL8s2piyNSl1uqc8eKyjEQHAygmi08YhRzDeT89uaGJxgMYgKA+mkwmr05tOMCqJwIvrcWJQsB3APVWxMlc0vUnhInbMsIcfI0gGQo5xeCXxampM5mMycKh5CfVZJXV7VzYerxr0WqUm3bgITrGClSPgYqR4O7A6KVBgD+oKY8qWDHvsxwEBMA1DeTiYk3bKxVJg2VHwCoYkRCzwF4DNC/GqO3tdvGJ6L8LpqXzt0B6BEhLd4L/rL4nri8Ls9mTxSWxeL0Gs/V/hPAtiEt4d/8TOrI6NavNTXYcg9XNkdBcBQ6X8PkQ5nwK0FwvZFYc7sd/Q7DQUwAUK9NIpJuwOkKnQhgIAMSau8DuBsqc03Z3dJ+YeN8hgRINmXrVZAL62TCqOzLrYVEIbx32exX1OF+hDRpL8Dx+Uzq96xpYOAFN6zXUV11qIo7HCrfADCMUQm1dkCv8v3itMB9SpmYAKBKXvhb45W3SkHkYgAbMSCh9Tygt8CYuf47y+8L68FKa2vw+bkhhbi+AGDDUBZQMdlvTmVY00Th5KWzUwFMDGnxFvimtD3suMWs6U/O32rKW++ugsMVeiyAfcHdAWH1DlSm+C9WX89PBxITANQtiXTLEQa4TCG7MBqdL16FqNOUALlXgT/FjPk/biH7wsnzDAA/DOdAoE/nF7TvxaQPUZgXg21xzxWfALBTSO9jv85nGk9hRX++Gjt7eNm540T12xAcAr7GGcZ56r8EOMfPpO5iNIgJAOqSuG3dzjiXAU/2Dxsnir8q5JaqWPnPy+2Y9xiSL5ZsmrWPinkI4Xxy0mFUvsKt/0QRWAA2zd7dSfmxkC78nBg9MG8bH2JNf7HB5+eGFOMf7gzQBkC4MyBcmYC5DvhxsTn1DINBTADQ6tmZ6yS1eooqTgEzw2EcEQr+okWDcdUZBcZiTfvEPVVJN+9xBXYNaQmn+ZnUJFY0UTQk0tlLBfhpSCe1z+QXrNiTu5m64Oy2pDewuBhAnMEInQ6I/rZaYhOX2fqFDAd9iNk+WrnIscZrahnjueqXVHEGF/9hJYnkOuvsxjisOa/89rkhXvy/6JvSVNYyUXQUFn3QBOCFMJZNgZ2TG9byM6ZdkBzcsScX/6FVBZWTSs69lEi3nIlRbTGGhJgAIABATVN2b8+NeAgiNwDYgBEJNyfyFUZhDRf/E3ObQWRCaJuC4kTYcT5rmihCrjqjIGpOQOcnXsOXBBBM9mxuS1b0mo4Ebh8GIfTWFcgvE9sXH0s2ZfdnOIgJgAhLTrxhYy/dknWCRwFwAIgIgbCu1zRWMb0GQG0oJ8nA5fnm1IOsZaLoyTfXPyzANSEtXg3Keg1reY3HAs4JIjP/wx4quN+bnLuhZkILv+rFBABFir2nKtmUO0djsRcBaQDPgogaDvZrIJluGa3A0SEt3uuFdjeZtUwU4SSAWXE+oK+FdKVzZDKd4yHGa4a7AqOWB1Ad46rkpWQ6dzbsPXzlN5KNgCKlpim3pxNcC+hejEZ0VRm3Ib8AsBp25jqeq34BwLAQlk5h9FDfNt7LiiaKNi+dPQzAnSGdD77jF+I74JK6Jazpz5kTTmjZyFUJPwEc7YXgU1Dzo3xz/cOMRnRwB0CEFjTJydkrnOhjXPxT2cmBjMJqJsVafVFIF/8Qwa+5+CciAFj5rfDfhLR4w5MeDzldHa2SgxiFiLcBYFcV96CXzs4aeMEN6zEiTABQSCTTuVEfO92fdU4A5GDG4HP6i819GYqTQlq8t/L5wvmsZSL6KAlgcA6A/4RycaN6SrKpdV/W8udGiHMBAjp3ADWWqmMve025kwDlDnEmACioEpNatvXSLfcqtA083Z846H8xe0+Vczo9rPdGNToel56wjBVNRP+776WWqpGTQzvPFTcdJ02vZkWvYkyAHMIo0MesC9HpXlPr3MSk3NYMBxMAFLBFTLIpe74Y+Ref9NLnDPo7D7StQxmJT0q6d34iwG6hLJzgtwXbeDtrmYg+rWAb/gqgJZzjHXZODqs9g7X8SQMuaFsfwHaMBH12vqCHitGnkumWn/KQQCYAKADiTdmdPTfvIRVcBMBjROjzbu9llA9gGP7Hm5jbTKFNIS3e/ERBzmEtE9Hn8U3pDADzQpoEyHiTZm3BWv6fcnXpEPAwcPp8SYVcmnTzHq+xLXswHEwAUCU6aXp1Mp07zwgeB7A3A0JfOPgrd4d8nBi9GkBtKMsGnLrk4oZFrGUi+lx23GI1ekpIS1cDY65hJX8cXwWkNWglwK7OyaNeuuVinH5lghFhAoAqRLKpdV9vWO2/FHoxgDgjQmt4Vz+EQVjZh2zu2yo4JpSFE70xn0n9ibVMRF+kYBtvBjAnpMX7ejydO461/NHCjgkAWlNVgJznDVn3Ga+ple0mDFNDhiDA7EzPc1UWkHMAxBgQ6iKXKMrQyD8ZPrst6Q0sPg9g8xCWbmGVcTsut2PeY3MnojUx0LYOLTn3HMJ5ePBbvlmxPez49kjX8QU3rFeqjr0HPgikrlMRXJX/4INzcdUZBYYjmNjxAypuW3dJuupHADmPi39a2/7vxyXy5wB4g4rnh3TxDwFO4+KfiLpima1fCMiPQ1q8TT034KdRr+OOanMI1wC0tlMLVZzhDVn3iZqm3J4MBxMA1BfsPVXJdO4849w/FNiVAelXCsUrwS6Ci/RWLs/mtoTi3HAu/vWWfCb1e3ZTIuoqP9OQU5U/h3ToPo8HAgb+DKBnASh7ar/a0Yk+4qVbLuZnNpkAoF4Ut9kdPPfOw3zXv98thegMZ7CTxvSoYC8So30OgDj9BcL5tYxF0oHx7KpEtNYTRNdxmgBLQli0pBrz82jXbsAPAHTuG2p0G0AvAfABe2u/6TwbYFjtg3Hbyk9KBmv+TwG4UUuyKXu2ikwDP+3Xf7UA/EuAX/lmRe7j7w966ezbADYOaLHKvikNhR23OGr1mUi3HCGQO0J6yxjvNzfMYK8lom7dJ5uyp4gglKfnK3BUIZO6LWp1Osi2rVt0xf8iuA8B/+NnUpt+9G/nzKr1krEGET2FO2P7VV6hFxQyqSsB4e6MCscdABVugJ21gdeUvVVFfs7Ff78oApgDI0cUMqnd/Uzqus8cHiS4L8DliyUQ3y9ytWrb4gK5KqSle9SPvfIbdl0i6q5C7NVrATwcxrIJcEUUP2tWcsWDAz3/F7nnE/9+2ZgVfnPDjHwmtZtR2QuiMwD47L19LimQX3pNuTtqJrRsxHAwAUBrKWFzR3U48wxEjmI0+ty7gE6JmdJmfiZV59uGuZ/7O53cF+iSavS+BZwsF38MYNsQFq2jrDoe1jp2YSLqNmudU4wHUAph6bZOrrPumdGr1IC//+/0c+dc7c0NT/hTGsfHTGkLCDIAeAhunzcvHO6q5MlEOvc1BoMJAOqK069MeOmWi8XpLQjnZ3gq+c71skLP8pfFt/AzjXaFHbfgi9fPLtAJANFonQOQnHjDxiqYGNLi/azU3PgU+zER9ZRic+oZBX4ZxrKpoCk58YaNo1SfLuDv/6tWfeGca4Udt8Cfkprsm/iXoDpWoE+zJ/epDQV6W3JyNpK7bAIx92cIKkvctm4nzs0WYDdGo+/GEyjuUjFXFjKjb12bd5e8dHYegOEBLX+H7xfWxaUnLItCZXuTW2ZD5fgQFu1Nv93tiMvGrGCXJqIeZafXeK72WQAhPD1fc36mMRWNepy5jueqFyK4n49+28+kvrQ2fzBpWw9Q584A8G3w89l96Vln3OiiHfMsQ1E5uAOgkhYm6ZZxxrknuPjvM3mB/lpNeTu/OXVEIVN/SzcOLrk/wHGoStTE949ChSdt6wFQ+V4Yy6YGp3HxT0S9s3Ac367AqeEsnDR4tuWQKFRjAlUHBXvxq2u94zJv6x/wM6k6dbqjQH8NIM+O3Sd2Ms484qVzjQwFEwD0iYF1pudNbpkOyG8B1DAgvTzUA0tEcKXp0K3ymcZTCnbsy90ekiABfw1Awn8OwKi2GJy7GmHc+SR6Y8GmbmXvJqLeUsikblPFH0JZOCdXw95TFfpKVBPwsb77c63C1MaX8pnGU6qN2RTQKQAWsnf3ulpAZ3np7CzY6VznMAFACXvDNklX9ShUTmI0et0bCj0r3+42zk9Jndl+YeP8HhtTXfneYE8KcGjo+9p2pVPD+IkgBRbHpONsdm8i6m2xWOxMAEtDWLQdE27ej8KfANBAj/Vqyj32sGWZrV/oZxqtv+iDTaA6FpCX2cN7XWPC1T6YsC0jGIr+xTMA+lEynf2WA34rwDqMRq828qdU9Rd+bJNW2JEdvTQsiZfOzQewYUDD5KpK8WHLL6r7bxjbwAA7a4OSMy+Fsa+p4keF5tS17OlE1BcSTS2niYTyM6pLY6a07Zoc/htEtXbmsLKrfifAc//5fibVe2ctWWsSbpujBW4igH3Y03vVMlE9Md/c2MZQ9I8qhqAf2LZ4Uks/V9XTmIHpVX9Xg2m+Td3RB2kGVc3eL4LvBjRWplxdPBTA78PYEDrUXBTSRNtjhdirM9jViaivFGKv/cpzI+oB7Buyog0qu6qpAE4MY72Vy1VfhQT6wd+9vTs3t64A3ALglkQ69zWBTgRwIHt8rxioIjcmJmf3LcxfcS5mjC8xJH086WcI+taAC9rW91zhDlU9jdHoNQ/CyBF+JnVwoU8W/x/SQJ8DoJBQfrO1xs7aC4rvh7BoHTEj42GtY5cnoj5jrXPGnAwghJN2GZdsmhXOp78m2GO89uEcq5Bp+JufSR0kxhwoilsBKDt+z3c2UZzlDau9p9bOHMZwMAEQWjW2ZY+O6uLjQAQOXOuHsUEUt4q6r/iZ1AG+bZjb5xcQ03sDHsKvAhquTSnWGufMNeG81+nPV9iGf7HrE1FfK9r6pxW4MozzYhVzDawN15hhrYHi8ECPeCbW5w9Z8rb+gXxz6tiYkT0AzGEioFfsX3bVjydt7ssMBRMAoeOlW8Y5h4cAbMpo9CgHQZtT7JpvTh2bbx7zaP9NiBqfA/BegGO5cdy27BiqfudGnAAgjIPKW367NrP7E1F/KZgVaQCvh7Boe3rlrX4QpgLVlLfeHcAGAS7Ce0U7+qX++stX2IZ/+ZlUnTNmt5VfwuDOux6ef6rT+/ipQCYAwsPeU+WlWy7u/MSfJBiQHqOiuNVobC9/Sup7xebUM/1/SaKqeCDIQY05E5rXAAafnxsC6LRQNn6Y03DZmBW8DRBR/81vxrcrcGooyyZy8cALblgvLMVxol8NeBHuAaTfn74Xbf3ThebUKKdmF3BHQE/zAJ3lTW6ZjpOmVzMcTAAE1kDbOtQrz7sTkPMYjR5c+AP/V1bdPd+cOra9efSTFTZr4DkAFaIY12ZA1g/fxBRthUz9LbwVEFF/K2RSt6nijyEs2nod8SoboqlTwN//r6y5VbG5/jk/k6ozRvcSKMfjnp3ln+QNq70tTAk4JgAiJGFbRpScPgjBIYxGj40Ac41in3wm9c1Sc+NTlXiJDu6+gAf5QNjpNUFvKnE7aycFxoewFyyVjvKPeTMgokoRK+tpAiwJ3ZRD9UfVTS27Br4g514/EJBAf7FBTWUestxuG/+ZzzR+wxmzK7gjoCcdVqo2j8Zt63YMBRMAgeHZWYeKk8cA3YbR6JGF/72i7it+c+qI9ubUPyr5Ukux154B8EGQm28CNQcF/sbm5GqE8DOnCkzITxs7jzcFIqqYRdCFjfOdSjqERYvFBFcEvRCJmvhIAPEAF+G9om14oZIvsGjrn/YzqTpRHAjgft4VeoJsZZx70Gtq5cHpTAAEYPXUlP0BnLkdwBBGo9ueE0id35wa2Z+H+3WJtU6CfvPXYL8GkLS5b4f0Sxv/KLwQv5a3BSKqNIXYK1cDeCSEi5CDk+nstwI90Q/4mK6Kv1fC+/9rIt+cetDPpA6CkSMU+iTvDN22LsTd4aWzYxkKJgAqdtXkpVssBNcD4OEV3fMmVMb7L8R3zWca5gSvKeDeQE93FMGdLNi2uDq9OIR9oqOs+kPMqSvz9kBElXfvtc4YPRVA6O5RClwC2xbYJ+iqCPgBgBq4Vyt92zC3kEntKZA6AK/yBtEtcQC/S07OXhG6z3MyARBwZ7clE025PwAymcHolndVcaq/YMXWfnPDjKAudsrAXQGvh+2TdlYgP1eZLBdPAbB16CagIldW6rkXRERA5/vQIrgmhEXbeuXYEjiJSTduBWBEoMc/1YDOqUTzmYY5vonvqKqnI9ifia6AdoAzPB0xG3amx2gwAdD/7Mx1vIHFv4ng2wzGWssDeolvsE2hOfUrzBhfCnJhis0NzwJ4J9A32rIE7onB4PNzQ1QwKYT9492CX53hbYKIKn4wFzQBmB+6xYcgHchTyaUj6F/2ebs4dcwLgS6BrSsWmhuv9tvdloBO6Zzz0tp1RNR5rup2nNc2mMFgAqDf1Exo2Sjpqu8FcCCjsZZdGZgDE9vBzzSeD5taGo5iiUJwR7ArJnjvDBYTagGE77MxqufikrolvF0QUeUvdlJLoaFMxA4pxmOBK5cBgp4AuC00LeiyMSv8TKMVg20gOgOA4w1jrebYB3uJ4gNJm92EsWACoM/Fbet2rkoeUWBXRmOtPCxq9vczqTrfjn4jdLcnJ38LdgFwOOw9gTlFPzHpxq1UcXIY+4nfnGrh7YKIgsJvbpiJEB4IKIpTE/aG4Hzd6aTp1RrwT1EL9G9ha0d5m3rbn9I43qh8OYjnG1SIndTh/sSklm0ZCiYA+kyyadY+xrkHAGzKaHSVvuYg3/Qzqf3yzfUPh7WUVR0ddyLA2V0B1kmW5+8dmBuZdPwCwf7M0ao4ozgzKKcfExF9uFQO6YGA1ShXXRKUi/U2HLgfgEEBjne52iTuCWsvaW9ueMLPNB4iwLcB/Jv3jS7bXAzur2nK7s1QMAHQ6xLp7NdVzF0I41bj3rUCqhP9RYt2LGYa/i/shV120dj3ATwR5DKolAOxddCzLYeo4Buhm0JDp7c3p/7BWwcRBW5xYxv/CeC3obsvi37Ts7nDg3GxLujb/x9daus+CHtfyWdSf/JNaUdA0wDaeffoUiNf3wnuTtjsVxkLJgB6b/Fvs8cI9E8AahmNLnRPxa0oy45+c+OFuOqMQnQKjoBvXQvAOQDWGnX4RQhbz/tVJdfEuwcRBVW1MRMAhG4Bp04vCcjnyAK+KJI7ItNZ7DjfzzQ2S7m8DYAWdJ6RRWtmgDjckkxnv8VQMAHQ45Lp7PfE4Y+AJBiNNfaiQr+ab04d609reDNypXca9MHry7UTWjes5Av0yiO+L5DdQzfBVExauYuEiCiQltn6hQqkw1YuAfbw3IjGSr7GGjt7OIA9Ah1nLd8etT6TnzZ2np9JjYGakQJ9mneRNRZXYI7XlE0xFEwA9NwiI90yToEcgGpGY40sVZUz/RfiOxUyjXdGNQh+bJOHBQjy6e2mXFU+qmKv7pxZtRA0h27xD/yz8GL8Ot5GiCjoCi/Er1XgXyEs2jTY6TWVenGu7I4BIAGO7wf5F73HIzt/bK6/L2822VMgPwawjHeSNRKD4HdeOtfIUDAB0P3Ff1PuJEB+AyDGaHwxUdwq5dhOheaGKzGnrhzpYNiRHU4l0AfYqJqKfbfeqzXnAhgetvW/GDk78n2HiMJhTl3ZKE5D+LY0b+y5AT+t3MtzxwV7Mom5nEOO7MhnGi43HbotOl8LoDVJAkBvSDS1nMZQMAGw1pLp3NkQvZZxWqN1y2sKOTLfnDo2P230fxiPj+IS6HMARPSrlfiUIznxho2h+EnomotIi28b/s5+Q0RhkW9OPQhBLoTj+3nJibO/VHGXdc6sWogcGujQOvyNPadT+4WN8/1MaoxCjwHwOiOyBjMpkSsT6ezpDAUTAF2WSLecqdBfINhbqPpiACwA0uwvS+xcyDTwhv3pu1AsFvR32GoSqK24iYRWVV2I8B3GucyIuYC9hojCJlYy5wT8lbhVSWrMTam4ixoQ+xoAL9BzJxe7k73mkwqZxr/4ZsVOAC4CUGJEviAJAFyRSGdPZSiYAFhjXlP2BwK5nJH4Qo84I3v4mYY0Lq/LMxyf5dvRbwB4JdgDcWV9Yq+mafbuUA3dQS+iatvt6HfYa4gobFZcWP8uVKaGr2Q6tqYpt2dFXZHToH8W9znuJP0cdny7n0lNcMbtAeAxBuQLkwBXJZqyJzMUTAB88eI/nR0LwXXgk//VyQvkfP+F+AFFm3qe4fiiO5AEfWfENyrpk0dOyr8M4b3rhfy77VextxBRaCcOseG/BPBs2ObRDnpZxVzNqLYYgKODHFAN/pyp1xXtmGd98+q+UBkPYAUjsropOH7lpbM/ZCiYAPhcyXRuFIDrGZfVul9Nebd8puESHlS2pgtWDfpgtmGyvOXeFdFHbe7bAA4KWxtRyNmYMZ5b+ogovOzIDgBnhW+JgUMStqUinrp72xX2AzA02PFUJgDWqD9Z5zc3zICRXQDcxYCspocCv/bSuQaGggmAVSwsst9VaCt42v/n9Z4lUP2hn2k4uGDHvsyIrLnCcndP51kJAV6gmlj/T25sW1ydXhy6xb/iDzw/g4iiwM+k7lLITaGbIzn8ArYt3v9jNYK+/d8vLInfz57ShYDZhn/7mYYjFHoygKWMyCrFAP1dMt3yHYaCCYCPJGzLkerQCqCK0VjViIK5MG4Xv7nxN4AoA9JFl41ZAchDAV+l9vukIlkunAZg65C1jrzEYj9lJyGiyEw8y+ZshG7bsmyVKJf6/V1jqeBP966h+3im1NrVfCHTOB1l2QXAPYzHKlUppDVhs19lKJgAQE1Tdm9xMgdANZvDKhYnkPP92Ktfy9sxbzEc3bg1I/DvtO2UmJTrt8X34PNzQ1RkQugahsqFKw+KJCKKxsRi2uj/QHFp6MZ5UTvwghvW66+/Pz5p1vaAbsO5UnT50xre9DMNh/FsgM/vJuLwp6Rt2Y8JgAhLTMpt7QS3AhjAPvEZj6jT3fOZhktgrWM4utnRTPC/aWsMjumvv7sYx2QA64WrVehrfqx4GXsHEUVuoRIrXQrg3yEr1pBidazfPuUaE3Ns0ANYVrmDvaO7RP93NoA+wHh8Ro06+b+4bd2OCYAIStrsJmJ0LoAN2Bc+udb68IT/wtTGlxiOnrHC1j8FYH6gl6v99BqAZ2dvrnCh+4yLInY27DifvYOIIseO89Xo2aFbegGnJu2sTftlTBEcF/DwzSs2j+aXpXqIbxv+7ZtNRkKlCQAPGf6koca522rs7OFRDUA0P3V3XtvgZKJ4nwK7sg98wutiUJ+3qUcYil5YyKZzvwV0XICL0BE38Q2X2roP+jRuk3M3QHVMyFb/t/vNqa+zV1DPL6ysSZa22KjDmKExkaECDHWK9YzIQIVLAvAAQEQGAoCqLvtwvigweae6zAjeV+P+Wy7L+1XOLcxXvz6fO8GoV+7vTdnbIDgyZFPrmX6m4Qd9+TcOuKBt/Y7q4nwE+SBr0Rn+lMbx7BU9r6Ypu7cTtAIYwWh8wnOJohy45OKGRVErePQOvbMzPc8V/8LF/yoGLFN9BmzdcsaidxjjbnZOgpwAqCqWi0cByPbVXxi3s3aC01TImkLZxRwP/qNuSdrsJs5hZwPZReG2BmRzQDeHky9pDPEPVwEKQATQzv/30Z/Xj45z/divQVf+XgDOICaAxmLw3Igi0tm3oHgDRt4Qp6+4mD5tSu6Z/LSx81gbtLacuh8bMYeHaz6qY+JNrT8vNtc/11d/Y0dV8VgE/CtWKub/2CN6R3tz6h+w2T09xTVQpBiRj+xYiOufYduOgK0rMgEQWiqe5q4DsD/b/EeWAnKKn2nIMRS9fANG+x0eatsB1AS2EIJv9GUCIFY2F6mE61UlEUwv2jHPskfQmhp4wQ3rFaur9xNx+0GxD4Bd1WFdwacX9r22qS8OYAQEI6AKFUCcdCYH0tn3ATwN4BE1eCiB+EN9vUuIgqs4dcwLyXTLdQr5UYiKFRNxzQC+3YfjyjcC/ommFQUU72aP6EU2tdQHGpPp3M0OOkOAdRgUAMBBnpau84GxUSp0pF4B8NItTYBk2NY/8jBMrJ6nkPedZFP2FpX+O0yvByz3F30wFFedUej1WNnWA9S5sH0PeFmsw2y94sL6d9kb6HOde/3Ampr4Yc7JkQAOArBdgMZrBfCCQO8rw/ytaKrv4s4yWp0BF7StX64uvqLA4FBNsI3un7eNvf8J4LPbkt7A4n8B1AY1Vqr4Y6E5xW+095HEpBu3EtMxG8DejMZHJviZ1EVRKWxkDgFM2ux3AZnC9v3hyKQzfBM/hIv/Ph7kBDcHfa6WGLLeIX0Sq7JrDl23gzZz8U+r4tnclsl0y0+9dPZuz0ssdE7+BGA8gO0RrGS9ANhBIT8y0D97rvi+15S7K9mUO8ebNGsL1jR92vKL6v4LSOgm3urk4j5ZzA3sODzIi38AkODPjQKlMPX413yz8X6AXsJofGRasil3fGSWgVEoZE1Tbk8n+ncEeet1z1kqkBPzmYY5DEXfq53QumG5yr2DACffRPCr/JTUqb06obHZY8ThlpBV/+v+og+274vdExQMyYmzv+RiHd8WyCgA+0VkTH4e0DlqkC3YxlfZCggAYNvinis8D8hWoUoCGP16wTbe3pt/hzc5dx1UTwxwmMrVxgxbZusXsiP0wxrJtnyz7GQmXwkAAOTFyCF52/AYEwBBn2DZWZuqM48CGBb1Vq3AP+Gq6gpTj3+Nfbz/eOnsIwD2CXAR3vHNq1/qtVPBrTVJt9WTCtklVDdb1e/lmxvb2AOivtCZ6Xku/h3A/RCQgxDVr/F0Hl9wnwDX5WOlP/KTmJRMZ7+nwI0ha+RPFsxre/XaeDmqLeZtX5wHYMMAR+kBP9N4IHtA/0nYG7YxLtbGA9I757hSLn857AfchvsVADvTUxe7iYt/AMB1BVPan4v/ShjrNOhb3YZ75a167SBNz23dELbFP4CH880p7rqJsLht3S6Zzv3Sc9XzAM0CcnCEF/8AIBAcooKc56rnJSZnL4/b1u3YUqIrn0n9HtAHQtbId0+6rb7Xa+Pl9sVDgr34B0R5+n9/K9ixL+eXxfcFZCajgeEai90E2xZnAiCgPFd1NaB7Rbwhd6jKmX4mdRKfsFQGFwt8AgAiMqpXfrBtiwNucsiqXMXoOYAoW3/0JG3rAV4622ace1ahZwJYl1H5jHVFcZZx7nmvKXtnIt16LEMSTaJ6DlZ+iTI0AwBkWi8uJkYFPT4u1sH3/yvB5XV5P9PwA6iMB1CMeDT2SbrCL0N9rw3t4r8pdxJEp0e8AS+E0VG+bbyXd7YKa5/p7MsAtg5wERb4L8Q3wZy6ck/+0ERT7gwRvSJk6/+cn2nkd3ejxFqTdCNGOeBcAfZgQNZqevK4AJfmzSs39dr2aarU8bEVwOhQjQKKUwvNqV/17NK/LeZtX3wHwAYBDs2Lfia1PVt9ZVn5FaY/IOC7S7rfcXGC35z6bRiLFsodADVNs3eH6C+j3Wb1SZRlLy7+K7Z+bg14EYZ5O5Z69jUA2zZARCeErKp9lM1EtvjI9GxJpFuPTbitHlfgRi7+uxXLvRTa5rkRTyfTuVGACmMSDWJwLoD2UJVJMBnnXj+wJ3+mt2NpZMAX/wCU2/8rUN7WPyAGewH4R7RvRrimpim3JxMAATDQtg51Uv4zgGSEG2y2YDr286c1vMnbWKVWkQn8CfeiPbv10CsXf4zwZZt/zn4YDYl09uuJdPYJgbtZILszIj1mR4W2eencPxLp3NcYjigsPlJvAwjZTjBs4HmJM3p27ewCv/1fVG5hi6/cfugvix8MYHaEw+A50TmDbFvoXt0LV0bdWuOVR9wGwVcj2lAVKmm/uX4a3zeucJ1b994FsF6AS9FjrwEMtK1DS869BmBQiGr5Pd9ga9jUUjb4EC/87Q3bmHLs5yo4htHok1FuroM5q9hc/xyDEWLnXj/Q8xIvI0SHOAuwpKpU3mrZRWPf76E5RNC3/7/nvxAf3tOvElKP33TFS2cnA5JGRA+uFeAv+UzDsWFaW4VqB0CyvPWPo7v41wIUY/zmhqlc/AfAnLoyBLcFvBTDvO06DuiJH1R05QkhW/wDwCQu/sNr8Pm5IcnJ2SvExZ7l4r9PZ2KHG3FPJtItv4CduQ4DElKXnrBMoTZUszRgcDFuzu+JnxWK7f+CW7n4D0RFqZ9ptKJ6PIB8JFdYwNGJptbTw1Sm0CQAamzLHio6LaK9830ojvCbU1neqAJ0S3Ua/NcApPtbEJN21qYCnBKy6n3eNxvzczohlUi3HluI6zOqOANANSPS56oFcrbnql/0mlrGMBzhVHgh8RsBngnXUkpOS06c/aXur0iCv/3fiHL7f4DkmxvbRM1hAN6L5Jxd3KW1NrcbEwCV5JxZtc6Z2QDiEWyTL8C5vf3mxvt5ewrYzTSW+CughSCXQYHvYlRbrFs/Q80UQBJhqls1OBt2ZAdbebjUTGjZKJHO/UHgbgawMSPS7zaEyA3JpuwtPbKoosoyp66sxp0VslJ5WuXS3foJ9p4qqHwz6FOg9uV6Jxt50JIA9Q+rq9oPkJcjmAJIlJ22wk6vYQKgUu6mteZKQLeJYF98rNqYg/ypY17nbSmAbN1yQO4N+gTc27500Nr+4cSklm2hCNUn8gT4S8Gm7mADD9msPd0yzlXJiwL9DqNRWVRwDGLlZ7gbIHx8O+ZuKG4PV4PVcXGb3WGtx033duC3/wt0Li4bs4ItPHgKU49/LW6q9wXwUASLv73nan/BBEAFSDa11EHxg6i1QAH+4psVI5fZ+oW8HQV4HgAE/zUAdGMropiLAVSFqErLZTXnsWWHyHltg73J2Rwgv0X4zqkI0710MERuSKRzfwjjic1R5tT9GECYdlTFxElm7cdcGRX8/srT/4Nsqa37wDfxrwH4WwSLPz5pc99mAqAf1dqZw1Tk1xFsfC35BSu+BTu+HRTsDlgu/7lz7hroifd3Ye/p8iI+aXNfFtHjwlSfAlzL08nDw0vnRnqJ4rNQ1DMaQemD+p2iKz7pNbUezGiEQ3HqmBcg+E3Y2mmyqXXfLv9Be08VoN8MePGd6dBb2bIDztYt983Gx0Dw26gVXZ3OqJ3QGujPVgc6AdBRjv8aQKQy/Qr8zM80jMWM8SXefYIvP23sPAWeDPhUZn0P/+nyawBa1ksQok/KCLAkVopPYasOxZ1WkunceYDeCWATxiNwNoW4u7x0i4W1huEIvipxkwGE6qsqCp3a1T/Tuf1f1g940f/RfmHjfLbqMCQBRnb4UxpOVOjlESv5eh0xdzUTAP0g2ZStFwl8FrSrw8UlhUzqXH7mL1wE+ufgN03TpS2JXjp7GASHhKx/Tlt+Ud1/2aID7tzrBybSrXMUejGAGAMSWDFAJifdVn/GeW2DGY5gW27HvCeQC8M1+OuhXjo3smvzheBv/xfFn9miw9WQC5nGHwvk/EiVWvDdpM1+lwmAPjTQtg5VQbSyTSpNfqYxUp0rMlXr0Bb8QnT5NYB0yKpxXn5Z4mq25mCLT5q1vecl/sGD/kJ0f4Uc6yWKDyfsDdswGsGWN8UrAPwnZC20eY1/azi2/8PF9A9szSHsn5mGS0QRqTOQ1OHXA+ysQB7IGcgEQLHsfo2An4Dalfal0LP85oapoFAqTG18KQTfOh7quXlr9M5tIt1yBICDQtZNm3B5XZ6tObiSTdn9jTF/B7AtoxE624uLPeLZlkMYigCz43yoZkJWqv09O+vQNRo73TuHhWD7/xMF2/gqG3NIkwDNqUsVcgoCfrZVV+a+Hc78kgmAvpik2ex3RfDdiDQsB8gPC5nGK3hbCTeFzglBMdZoa6JAmkJWfS/5ZpMWtuIgL/5b6lQwF8BQRiO0hsDJ37ymbIqhCC7/xcRMAC+Ea6Zn1mgXQLe+uFMhBDKHrTjcCpmGX0Pl5M41TCSMjqdzgTvQOlgJgHOvH6gOv4zKmlAVp/qZhut5O4lAZRv3+xAU4ztf9BpAIp37GoADw1R3xuj5sCM72IqDyWvKTVKRGwF4jEboxSGY5aWzFzAUATWnriwmdK+Q7efZ3OGr/R2dY+s3gl5Q52Lc/h8BfnPDDCh+iIjsBDDQq2DbBjAB0EsSXmIygI0jsfgHTi80p67lbSQaCnbsywI8FfBiDO08ofjzCdSGrOoebbep/2MLDuRtVhLp7GUQbUaIvkZBX0gAXJiYnL0EUNZ7AOVtw00A/hGqQjld7RdkEnj78FBs/596/GtswVFJAqR+q8CZESnulzxXnMAEQC+I2+wOApwRjdmJXFDIpK7h7SNiyxEg8FvjRMznbq9NpLNfB/CVUFWacRP4VY5gLv6Tk3O/FOAnjEVEswCKc73JuV/xM4EBrT01Pw1ZofZL2OxXP7fEDqkQ1Fob2260FDKpqwTy44gU9yfxSbO2ZwKghydrpoxrAFSHf16qE/OZhkt424jgksSU54Sg/X7n87ZBCTA5ZFV2m2/H3M2WGzCj2mLe5NbfqUYjoUyru1/hZE9HXM8kQPD4zfX3AXJnmMokDqveBXDOrFpAjgt6+ZxW3cSWGz35TMPlgKYjUNS4EXMlEwA9yEu31ofvm+GrmIsILvWbGy8ERVLBjn1ZgX8FvBi1yXLxM+8pJtItRwPYJ0zd1RidxFYbvLust0PhV1Adw1jQyiTA9z0dcT1fBwiesrqfIlwHjX3wlbVqAACAAElEQVRl5Tk5n5wDJ+U7AAYEu2jyOLf/R5efaWxW4OehL6jg8GRTSx0TAD3h3OsHAvqzCPSPGwpTGs7nbSLaRIP/NQAFGj97T5SwZX9vbLeN/2SLDZbE5OylUDmJkaBPJwGS6Ry/thMwpebGpyAI1aFyAkz9bDJKGjm3oaArZBp+CkE29MOJyM87d+0wAdAtnuf9FMBGoV70AX/xzcYn8l1iQszcGIIGfUStnTnso0VXuvVYAF8O07xTTSS2s4WKl85eKCrnMBK06hwATvfSuQwjEbB6K8skAKUQlWivRDp35If/VmNnD4dgZNBLxe3/BIj681f8AMBtIS/oJl4ydjYTAN0wwM7aANCzQt5QHs23u+/xM2IEAL5t+LdCnwx4MWLOxUf/Lx/gmkI1hAmuK9jGV9lagyORbhkPgJ9+oy9afDUlmlpOYxyCozC14RUAvw3VGAM0f7gLQF1HA4BYwIv0D27/JwDAjPEl36z4LoCHQl1O0fNqJ7RuyATAWio7sQAGhriJvFJdKh+Ny8as4F2B/jf4S+C3yjloCgDi6dxxAPYOUfXk0VHmOR3BWvwfLRB+VYXW7P4r8suV9y0KCNOhUwC0h6hIeybS2aNW/v/gn/4Pbv+nj7Hj26tK8W8C+HeISznAVbmJTACszaTN3rCNQk4MceNYpE6PXXbR2Pd5N6BP9kr5PYBAvw4iwB7xpuzOBgjbQXm/yE8bO4+NNBhqmnJ7CuT3CP4TNOo7MQNtTdrclxmKYGi/sHE+BFeGq1SSqZ6Q200huwS9JGoMt//TJyy/qO6/zrljFFgc1jIqcHLCtoxgAqCryrGLEN7P/pUAjCpMbXyJtwH6tM7XABD01wAQM7CA7hWiqlmUKMrP2UKDITnxho2d6K0AahkN6qIadfqnj59lQhU+bkrpEgAfhGb5D+xhYqH4dO5jvm34N1sofVpx6pgXYPA9AGF9BbpanExlAqArEzeb+7IIvhXidn+qn0ndxe5Pn9sxFcH/GoDi2DDViahcuOTihkVsnQFw0vRq7TxQkws4WlvDy676j7BtcYYiAOy4xQK5NFRjjujRIRg3uf2fPlfBpu5QxZkhLmJdTVNuTyYA1lRZmwCE8pu8AlzlZ1LXsdvT6hfPLvCvASBcO3jeyceW/4otMxiSw2quAOQARoK6ad+kFn/GMARD3hSvAPB2iIoU9DFUNWb+wJZJq00CNKd+BcG1IS2elCv0VdiKSwBUN7XsqoKjQ9oQHs6bOD9DRV/InzrmdUCeYCQqZhozGXZ8OwNR+bymljEK+REjQT3T9XFGsilbz0gEgB3nK3QqA1ExHvPt6DcYBvrCOe/8FWcAeDCUGQDR4+JN2Z2ZAPgCMZGJCOfT/3elXB4FW1dkV/9/9u48PK6q/AP49z2TzNxJW0qh7Psmm4iyqGxKWRQU0J/QSJukWNFWZVdkazM9TcoqyiZiq4gkkxRTXBBQ9rK7sIPsu7IUKEu3zJ1J5ry/P1KUQlu6ZJI5534/z9MHLbSZ8579nXPPpRUaNJQ351ZJTTwTpzb+LeNQ/TKTr9oKIj9nJKhfkwCC6Rl75ScYiepXfDLzawBPMhJVMHMCXMPQipkxscf06mgAr4fYFYxU32uIqyoBkLad2wE4PMDK74WRet4eTiu16FQ3C/4/BhDAIsadATuql5GocnZ2jZjeDoT96lgaHEPF1XRgwvRahqLKzaovi6plIKpgCWNSvP2fVlj3WU2vA9KAMC8FrM9Mbt+WCYBlfRjV01HNbyZY5Q0ETottw53s3rQy+h4DwP2MxKC6r9DS+AeGofpF7tUWAJ9jJKhC+5ndog2GTGYcql+htXEWAD5CN7h4/J9Wft3b0jAbQC7AoqXEmFOZAFja4s3O3ByqIT5nd2OhpeFn7Na0KkTRySgM4pIfOgkQnsKoclnbuTeAUxkJqvCAMCnb3LkHA1H9M6dCJjEOg9hVVLh2oVVLApjnzoXKbQH2isZoUsdmTAB8ZLBwxwGoCayy3zK9Op4bCFpVqZTrRLjvSK129xZbmm5mGKrccRdn1LnpCPD0GFXfkKzifoPjLs4wFNWt2NJwI6B3MxKDoremLL9jGGiVWOvE9Y4DMDewktVqjf6ACYAlKnt6nah+K7CKVkXq6L5nWohWzUI77k0A3IQOyujomhmE6heNWKsZwA6MBA2Q7aIRa5/GMHiwCDPSyigMPFHcsOissW8wErSqCmce9aoaOQqB3YMliu/CTq9jAmCxjKtrArBWUJUM/KLYMvZadmPqhwEjzygMuHtiO+42hqG6LX61zimMBA3w1vKMdHPnjoxDdSvaxpsA3MVIDHj/aGcMaPX7b8NfAMwIrFgjIjd0DBMA//0QckxgFfxiwaT5DQH1i0Jq0Z8ALGAkBpLw2//qX2SKEUwHwJvZaaCljbhfACoMRZUz0sIgDODMCcwrLMzwyy/qF3G3+xGAFwJbu5zIBACAyLbtp8BOIdUsjEyArV/Irkv9wk7sBsCb6AfOPYtvoqUqFjV3NADghWw0WL6Qbc6PZhiqfANhG24BwLcwDdgCWK/GBfUFRoL6xfnjFsG47yKsRwE+GTW375P4BIA6c2xIbVWgv1w84RD1Jx6pG7BRUfmqr2p3UlcWgjMZCBrU9YvI+dXyPCctF08BDFinSHGtQv1q8eOYvw5rnSmDvvcd1ATAUNu2rgCHBFSlLxdMhs+jUv8PgOa52QD+w0hU3OzYNt3OMFS3aFjP6QA2ZSRokG0SubofMQxVPn+2NN4K6B2MRMX9O049wzsXqAJrYJwM4JVgCqT4+rDTr1w7sQmActmMRUDPbwpwEo/+U0VY61Qwk4Go9KBspjII1W2IvWJ9QLnpomqZ+U8ZatvWZRyqHcf2yncFycNax0BQ/6+BG+cLcHJAJUqXalNHJjYB4ETHhbNxwE2FlsY/spdSxZqY4EpGoaJujVvH8luiKudc7RkAeOyaqsXQHmd48q/KxS0Ns6G4nZGo5NgsnYwCVUqhpfF3UNwQSnkEGNQ98KAlANLNnTsK5DOB1GNJVY9n96SKNjLb+IQCDzMSlRoNeVt0tauzMzdU4DuMBFXZQu6Y7KQrN2IkqryeUoZvd6lcdO8vtY59nHGgSlKV4wEtBlKcz6Zt53aJSwCIuKPCGffk/OK0pqfZNWkAOmyeUahIJ745tg28KbrKOVfOAcgyElRlIqRSpzIM1a1gx94NgG94qcjGjBcVU+UVpzU8qyIXBbOmd27QTgEMTgLAWiPA2ECGvbdi0XPZLWlAtqm92gmgzEj0dzd2rQxCdVv8Det4RoKqcggBvtt3PwVV9Ryq4CmA/tdbU5bfMQw0IEmAQnEagDcDKc44jO5KJSYBELltvgggiONyCpkK2zifXZIGQvdZTa9DcWsVLHZDcmPc2sSbi6ucq0kdDyDNSFCVispaewzDUN0KrY33QOU2RqL/CHDjorPGvsFI0IA47+gFCj0rkNJsFG1X3DMxCQAR/XogFfdC0aR/xd5IA2zQj9pJSIsXY6axSVW5k9uGiPLZf6pyih/Adg1lIKp8zE85ngIIbE1CyVI0mcsAfT6IaUPka4lJAKjisCAmEchpsPUldkUaSHHB/REAXzfZP/66+LlQqmKZOvkOgLUYCapya2XKxW8xDNWtYJvuheIWRqJfzC+YRdcyDDSgbH1JEMbjPILB+VJ8wBMAdc0zPwNg8wDq7ImCefb37IU04M4ftwgAXznZHwOvOr4buuqpCHAc40BejCkixwMqjES1L7pNjlHol0BeDTuxm4GggVYwz/8OwL8C6ERbpW3bJ4NPADjp/VoIDU+g02CtYxekQdkSQXnkbrX7MK4vtI77ByNR3SLbuT8gWzES5IltolznvgxDlW8eWsf+DYqbGInVnUi5FqFBYq0D5LwQimLKqa8HnwAQyNf9ryp9vmA2nsXeR4OlaJ6/FcCrjMTqjH7SwiD4MNzqdxkE8mxTxPsqfKgmGMsorJZ/x3ier8+lQRM/WdsJ4NkABqMB/3J8QBMA2UkzN1Fg5wB2DmfDjupl16NBY61T4CoGYlXHWr22YBv+yUhUt2G2cyRUv8ZIkFdUDx9mO0cyENWt0Dr2bwBuZCRWWQdPwtKgmlVfBvCTACaNXevszA2DTQCocfsH0NzejE2pg72OBn24MKaNUVjFBIAaPvvvgd5yeRwgGUaCPBthMqWyjmUcPKgpA8sorBrnHI//06CL332nDYDvr6EU59yoYBMAMBjlfUsT/BJ2fMwuR4OtZMc+CuA+RmKl3djd2vAAw1D9VMwYRoG8XCqIHskoVL+Cbfw7gFsZiZV2b2nauCcZBhp0lxxfhMjl/hck5ASA6hc9r50e6S3PYG+jqtkgQS9nFFZ21JOzGITqF01u2wLQXRkJ8tTnIztzc4bBC2czBCu9+vg1Y0DVs6wzlwLo8bsUEmYCILIdWwLYzO+6wazCmUfx4jWqGkUjMwEsYiRW2L2xbeClRT4Mt2K+CYCvUyN/m3DZHcEwVL+4pfFWAANyJ4yGEbL5cbd2seVQtei2Y15TxTWeF2PLaFLHgO2TB+4EgAvh+L/+it2MqoptnA8IJ+IVXnwpv/33hBOMZhTI6/FGtJ5R8IMxOiCnAALJaM7E+eP4xQNV2R5N/D+VktJ9w0sADPCzDRXA151QdY55yscAVmzhpY8WWxr/wkhUv6zNbyzAZxgJ8txuA32zM62abtt4DYB/MRIrsHFQcM1BVadonr0ZwCueF2PA9soDmACQPT2vlHa+7oSqUaG18R4ATzASH0PN2YAoA+FBVZX1IPD4P/lPXNl9iWHwoqoUkPMYh4+JEvBYd2sjLx+m6mOtU0Gn56UYsL3ygCQAhp/WMQLA5j7XiDMmz95FVTwp/4ZRWK4XCqkNr2YYPEkAiDmIUaBA9pVsy56In6ztBPR5RmI5a2GAj8JSFa8dcKXnRdga9oo1g0kAFKPyZ+DxtzkKfahkxz7FrkXVqqan/FtAi4zEMp0DO6qXYfCAnV0D6P4MBAXiS31tmqrerPqyqvyMgVimOGPSHQwDVauSbXxCgMc8LoJEqPl0MAkAKZvdfG5QovIndiuqZgvOPuptQP7MSCzVnNj0tDMMfsjilc8KsCYjQYEYkS3/h6+z9ETxvXcuB/A6I7E0+vv5tv4dxoGqupWK328DkDJ2CSYBoDIwhakUlzJMAFD1D3oQXsyztMFU9Sew42NGwhNl2ZtBoMBGob0YA09ccnxRIBcxEEvdMnCNQdXfSsV5nQAYqD3zQF0C6HMC4KWSHfsouxRVu8U3oL7MSCzhnUIqM4Nh8Ao3SxQUxwSAVwpx/AsA7zISS3gxbhl7O8NA1a7bNj0A4D/+lkACSQDYrqEAtvK2GoDr2Z3IC9Y6QK5gIJbowRfD1i9kHHyhoqJ7MA4U1CgkTGp55byjF0BwKQPxwaFZf8236JAnI65C9K8eF2Bb2Ol13icA6srlbTCgrxvs91FvNjsTeTPsGb0cQJmRAAAsqjXCRZxHMrZtG0DWYSQoMOtlJl+1FcPgj9pS+UIATB736TWpmt8yDORRCuB2jz++SZeHVHy+qPjGXMVt7XElaMroXexK5IuCbXwFwE2MBKCily2wY+cyEh7NeuWaXRgFCrJtmzLbtkcWnH3U2yr4NSMBiOIv3XbMa4wE+SJl9FYA3p5YSQkqvneufAIA6m0CQIB/LbTj3mRXIr/arfKiHmgxJTUXMA6e1ZrBTowCBdm2wbbtGyP4KYBS0uPgUlxTkF8W792e9HjG8D8BAKi3x95UcA+7EfmmYDa+BsCcZEdBfstvLDysNaefYhQoyASAMgHg3VxqG18BNOmvkJ1TfK37r2wN5N+CQu/2eP8ZQgIA/j4CoHI/exB5x47qVWAlFy1B3e1TVic/ZUPwctJjAoDCXIsKk1tejkmu9mwk+V4dkd9gxsQetgTyjjMPeLwY8v8OAEC8TQCkDB5gDyIvmfKvV25XLwEtWPC74rSGZ9kIPHPK5cMAbMJAUKC2GIibnal/Facd+TwEv09o8VXF8c1C5OcyOFV+0OOPv43fCQA7uwbABp6Oe8VFqH2CXYi8XLTYo54BcHcCi67Gpc5nC/BPui67BYLKRBEtQdK92c0YBv+UnZ6FwI7JrdhsKrOLtuk5tgDyUffb7z0GwNfTKxtjdFfK2wTAELw0Ep6+AlAgT8HWl9iFyN/JWxN3g7Eoru9uHfMQK9/HMbe8OaNAQbdxY9jGPdTT2vQIgBuSNybz8j/y2CXHFwV4ytNPb4buGK/tbQKgVK5Zz9u9E/AMew/5LE51Xw3g3SSVWVPyE9a8p8rcHFHoAxS2YBC83Q4nbW55u5Dq+QPrnXzmAG9PsJSAdb1NAKRSZh2P2w2PPZHf7MRuhf42QQu0+2PbcCcr3lMGPB5NgQ9R2JxB8FPc0jBboYk5XabAb2DHx6x58py3eznjUhXdQ1c0ASBlXdffNiPPs99QAJuqXwBwyVhbu5+xwr2uvw0ZBQq7jSvbuM/1p5KUOcaJc5exximAPuttAkCg/p4AcJCR/jYbfYldh3xXtE3PQXHTUlt4WEV9pTCn+2rWuNdLzpEMAgW+HGUb91j8xqLfAfhP8K0Uen08bdyLrHHynYrzth07VY9PABhdx9/A4012HQpiAEzh0qVP8gEtWFQu4ruKfZ+odW1GgQLfWrGN+2zGxB6BXBp6MR3MpaxsCqIte7yXEyP+JgAUGOpr4NMp9wa7DoWgiOf+AiDkbP6CQqr0a9a051sjfjtKwVO2cc8VTGk6gIUBt9Hni+bZm1nTFILasr8JAFUM8TYBYFQznsbdLXw8eptdh4JgrRPFL4NdrkB/DTv+PVa090YwBBS4tRgC3+fT8e8JcEWoxROYS2GtY0VTCLrTG78FT594NUDkbQJARXxNAMzDrPoyuw6FIt0jvwLQHWDRymLMz1nDQahjCIhtnKqdOncBgBDXiIVaU3sla5iCYUf1CjDfy3EG6m8CAP6eACiw11BI5p3T8C4EXcEVTPD72Da8wBr23ITptRWfj4gGXw1Gd6UYBr/F08a9qIprAixafr6tf4c1TCFRwNPXWUra2wSAwkSetpcSuwyFxrjUxcHt/wUXsGYDsEY2zSBQImwMtvUQ5tOUCW7uMUZ/yZqlABU9/dz+ngDw+A6AIvsLhaa7dcxDUL0vmAKp/K1gG//OmvXf8JoUN0WUDGkmAEJQsGPvhuIfARXpb9226UHWLIVHvDwBIIqK7qErfAcAaj1tLXydGIXqkWCGdCnfy+oMQ1lqaxgFSoKhhgmAcOYg989gygJw80+BUi9PdSvg7yMAot5upGvZYShIxnw6mCEd8kVWaBhS2tPLKFASLHR8xDCcOch8LpiyqO7GGqUwiZdJV6nw4+gVTQA4EV+P0mfYYSg0WdvxWQQ1yctu2ebOPViz/pvXW+amiJKhxARACKLm9n0AfDac6VQ+V9fcsStrlsLj5+PoKpV9HL2yJwBEmQAgqpbBRHFMEOVYYoB0J7FmAzC/wE0RJcMrTACEMQ+ZH4ZWJifu+6xZCpCvF9JX9O4C4/OHZ2MhWjHDbOdIqNaHUBZZ8v9+IzP5qq1Yw56bMbEHgGMgKHC9mFVfZhg8301MbttCRA8Nr2Qydg3btRZrmIJq1d7u6dTfRwDg7+v01oSdzUupKJxVZ9l9B2EmtlJI9R7LGg5CN0NAbONU9RuKVOqHAFIBFi3b40rjWcMUjAnTaxVYw8txpsJvL6jwJYDe3gEgQ0qvr82eQ0Gw1qhgQrCLMcXRsFesyYr23jsMAQXubYbAb8NP6xihqt8KtXwK/T6sNaxpCkHdhmusg48cHPWD8/kRABVd4Guj6Um5ddl1KAQZbHUIgC0CLuKwrKv5Lmva94Un5jIKFDi2cc+VanUigKHhllC2yritv8yaphD0lHvX8bYnChb5mwBw8pavgTcCJgAojOm8LMeEXkaFnIAJ0/n6Tp/bKYTfjlLoAxXbuM8mTK9VQfDzqUH4ZaRkMClZz9vpwulbFe7nldxEu7f8bTayObsO+S4zuWMbCA5MQFE3yq5fdwRr3OvdEb8dpdB3VmzjHovWG/JNABsHPxIDB0e2Y0vWOHnPqbenXw3wprcJAIW86W+rUd4sTv5L6Q/g6fNPKz/ehPdapkRt/0VeZxQo6DauYBv3eoxCUl47a9Tp91jj5D/xdi+nKY8TAM4Yj08AYGt2HPKanV4HxbcStDzbLbIdX2DFe8rhZQaBwh6i8BKD4KfItu8rwC6J2TYB34a9gq/EJt95u5dz5ZS/jwDUoujtCQABPsF+Q14vWNyQ0QKsGcKqeYX7bVl/zJr3ddCVFxkECnxXxTbuqzKSNresHbn04ax48nvIxTa+fvZ0qtffBMAibD4XgPNzy6HbwXal2X3I443zd4IZwle0xIKv1jXP/Azr3sPWqu4lRoGCbuPGMAHgodrm9p0hcnDyGiy+zdonbx13cQbAtp5+erfw8aiil8ZW9l2fdlQvgNc83XRk6lD8JHsQ+SgzuX1bQPZKYNHFmfLJbAH+KaXSL2JljnsQebadKs2r4WMuHkoZOQMJuUtnydlUR2VsOx+HJS/VrbnWpwD4+naoVzCrvuxvAqBvznve18bjysl53otCW7HgO4lcsACA4puZyR3bsBF4xtYvBPBvBoICHZhewAX1BcbBL5nJV20FRVKPwouoGc9WQD4qi/q7h1N5rtI/ovIJADHPelsBRnZlFyLvTJheKyqNCY5ASoz+iA3Bw9Um9FFGgYLc/kPYtn0ck0zP6QBSyW24+m1MmF7LlkD+rSfE38dBpfJfnlc+AaD6gr/xx17sQuSb7IZDvgZg/YQvt79VZ2duyNbATRJRdSxGmdzybi61+Y0BaUp4GNbPbFh3MFsDecjbt0IJtOJfnpvKF6LyxxgqtxjFJ4fatnXZh8irdlvG0YyCZMraexLj4Nukh8cYBWLbpmrgFD8CkPjLoI3Dd9gayCdDzuhcD8B2Hs8Y/j8CIGqe87gNSRmG7xUnb2RtfmMIDmQkAFH5/jDbOZKR8GjB7eRBRoHCbNu1DzMK/hh2+pVri3LjCwAKOTg76cqNGAnyZrytKe8Hj+/BKiv8TwB0p1LPwtNXAS4e+UaxK5E3zdXpd5Dk5xWXNKTH6TEMgz+K0xqeBTCHkaDAvFGcduTzDIM/emprTgAwlJEAANRoKvUthoH82bqJz3u3cim1KIA7AGz9Qvj8GIDiq4AKuxNVPWsNIJykl+zBx8N2cRHn1Zgrf2cUKLDF6N2MgkdOuXwYoMcyEEs4um+NQVT1I64A8PneiqdhJ3b7nwDoq4wHPK6IzYbYzp3ZoajaZbDVlwBsxkgsYa1suTiBYfCHAe5hFIhtmgZLNpP5PoARjMQStojc1jwRS1WvrrljNwAbe1yEAdkzD0gCQNTv5zrLzn2dXYqqv6EKL/9bChX5MewVESPhC+FmiULLALBN++K4izMqOIGBWCquMajqOcHXvF4BKQZkzzwgCQBNlb1OACjka+xSVM2G2c6RInooI7FU60eutolh8EMhtcF9CrzHSFAg3i08XvsAw+CHzJprHQ2Ar5BdusN5sS55wOs9m8I8FEwCIC5EDwBQXytDgE+nbed27FNUrXrL+i1AMozEMp0GO7uGYfCAHdULyK0MBAXiJsyqLzMMHhjdlRLRHzIQy5QuuXIDw0BV20CbO3cE8Emf9/9xqebhYBIAOLd+HqAv+NyojCq/QaTqHTFExzMKy7VltvzaEQyDHwT4K6NAgWBb9kS0fc9YQLZiJJY3NgtfjUjV2z7FHeV5EZ7p2zOHkgDoq5W/+b3D0kbegErVKGs79wawAyPxcWOQO51v9PCD6XV/gcenxojeXzmYXr2JYfCiqgTQUxiHj/XJbHPb5xgGqjqju1IC+H1CReQfA7bOGsCx9XbPm9amEbbclz2Mqm7Zoo4X86xInCCfyuTyX2Ekql/3WU2vA3iQkSDP3be4LVOVq7P5r8Hvo8MDuJw3XHNQ1cnsWDwQvt/foXpbeAkAg9kBjHrfZRejqmLza0AxOpQteqUJ5Aw2Gj8IZBajQF63YdXfMQp+cE5OZxRW2JGwXUMZBqoq5QD2aOWB+7J8wBIAsW14AcDLnicAjsja/MbsZVQtMmWMBTAklC3fANgzsh1fYMvxYLh15S7wMQDyuAmrM79nGKpflMvvD+CzjMQKGxa5nm8yDFQtsrZtUxEc5vmU8Xx8ZsOA7ZMH+pn22z1vYzXqZAK7GlXNllmER/FWllOeAvBAPG3ciwDuYyTIU/cO5GKOVgu//V/5zQovA6TqaY3OfA+A3296EjOgJ+UHOgHg/2MAcN+DvSJid6PBlradnwJ0N0ZipX25zrYxbj7Mh5CrGAXyckEK8Pi/B7I2/3kA+zMSK+3zaZvn5cM0+I67OAPA+y/DxGm4CQApp26D90c6ZZ3IpfkeVKqCwcKNYxRWcXHuJMcoVL+ant42QIuMBHk2whTTxsxkHHyYC2AZhVXcQCj4emwadNGaax8FYF3fhyKT6rltQPvvQP6wwplj/qPQh/1vbu502Nk17HY0aKw1AhzJQKziSAs5NGs7+MxnlVtw9lFvQ+QaRoK8IvL7BXbsXAaiumWbO/cA8GVGYpUn0iaM7koxEDRoRnelIPrjAEryz0V2/JxgEwAAIDABLOZkq2z51Xr2PBosGWx9AICNGInV4JSnAPzYTP2KQSC/NkbyawbBh/2rs4zCatko2r6Hl+rSoIm2LzUC2DqAogz43njAEwBldX8KY37HZFhr2P1oUPZEPHrXD4s/fDXb3PY5RqK6xXj2NkCfZyTIE8/GLWNvZxiqW7a5cw8IvsRIrDauRWhw9O3BQvj2H84N/N54wDewPa1NjwB4KYD62j7rth7NHkgD7uS2IVB8nYHohySAmCmMQtVP8k6BSxgI8mJMAS4ChK+vrPp6ci2MQr9E8nDY6XWMAw20yG0zBsCOARTludK0cU8GnwDoW3TjT4FM9GfDdqXZDWlAB7261DcADGUk+sXBWdu5N8NQ3Yrd+msAbzMSVOXeKXa73zIM1S1r2/eE4ABGol+skS0PPYxhoAFlu9KABpHEU+CPg/FzByUBIKKhXOq0RcaVJrIn0sCOFtrIIPRjOJ2bzChUufPHLYKAdwFQlZNLcf64RYxDtY/5wm//+3UD4/gYAA2orOs5BsCWIZTFGPPnxCQAYjx/J4BXgpjuoc2w+TXYHWkg1J3RvgGE7yzuZ1+Omtv3YRiqfJKU1CUASowEVak41SuXMgxVvnFozu8FcA7t34WwfGmIvWJ9BoIGxKldwxU6KZDSvFJ4vOZviUkAwFqngs5ARr51IofT2CNpIGiNjAXA1+70ezc2zQxCdeu2Y16D4DeMBFXnHggzFp019g1GosrnUEEro9DvanpdzTcZBhoImUxpEoC1A5k42jCrvpycBEDfIHxlQO3xR2nbuR27JQ0AHrWrzIh0YGQ7+DqjKmck1QqgwEhQlYnRWz6PYahui+97GcVIVGAfA+HahCoubfM7CHBiKOVxIu2Dtp4arB9cso1PKPBgKG3SlB1vqaaKD3wK7MxIVGok1hyDUN267ZjXhHcBUJVR0Z8XzjzqVUaiyuup7Pjtf+XsmrZtn2QYqKKb1rJcAqA2kOL8vWTHPpW4BMDi4bgtmFYpOCCbaz+c3ZMq1sQURzEKFbV/1Nz5RYahyhcA0nM2gG5GgqrEwtpSht/+V7ko1zEKgn0ZiQqOzZoawyhQpWRz7WMgul8o5VFF+6D218H84bVGZwLoCaYyIRfwQkCqCGuNKDi5Vpq4KQxCdVtkx88B9CeMBFWJcxaeXf8Ww1DtOLYPwI6mEdYaBoL63aldwxVyfkCdpZhJpa9KbAJgoR33pkL+HFAT3SRy4DcB1O8it/UoAJswEhU3KrLt+zIM1S1ekDkXwMuMBA2y/8Rm0QUMQ5XPn7ZtP0B4uqvyNo3Kn+Abdaj/+3Cm+FMAGwZTIMEf59v6dxKbAAAAUQnt2fkJGZv/Ersr9TNesDNQnExjEKrcBfUFUZzBQNCgrl8Mfgg7kY+jVP2Ybvjt/4B1ijLXKtS/m/9cfn9Avh1UNxEM+t5XqiEQ2Vz7Iwr5VEB1+1IcFz+F845ewK5Lq81Or4vckDkAhjEYAzY07he3NMxmHKqZSpTruBvAnowFDUL7uyNuadqXcfBh84BbGIkB21TMKyxIb4AL6vm2FuqH9W9+jcjhMQCbBjNzAA8XWxo/M9ifw1RHMOTngTXZzbPZzDnsudQfsq7ua9z8D/ioxNuiq3+pqU7xPQAlxoIGWMkZ+QHD4AV++z+wm5vh2aHFQxkJ6g+R6k9C2vz3rVxQFSffqyIBEC9I5wG8HdQgqPh+xrYfxu5Lqz+h8v26g2CvvudGqap3Ya2Nj0F47woN+KB8Zsk2PsFAVLdMrv1AAHwmfeC3OFyz0Gqrs+1fh8qEwIr1TpxadFU1fJDquK3zgvqCil4R2ggoTi6vszM3ZDemVTXUtq0L4EBGYhA4w1MAHojfeWcaAG7GaKA8Fb/3zrkMgweLMEgzozDwVHDQkDM612MkaFVlJ125kXPy6wAHpRnVcm9M1byuQ6TmUgT0SsDFRjrnfsvXotCq6nEyBkANIzEo9lz8DRJVs0uOL4oxEwGUGQyqsLKo+TYuOb7IUFS3TK7jy+C3/4Olpjel32QYaJWM7kqpSeUBrB3akl7EXVYtH6ZqNqaxHfMSgM7wWrIemC1vfTJ7NK0KgTQwCoMa/zMBFUaiuhXs2LsBPgpAFR8Qziy0jv0bA1H16y4RgG9zGcyuIjqWUaBVEW3XczoE+wbYK/IFO+7fTAAsbcg2Og0BfoujgjOj5k6+g5ZWbhCc3LYFgN0YiUG1e9Z2HM4wVL/YbJQD8A9Ggirkvvj1RdxUeiDbnB8NKOfOwfXZyM7cnGGglVr32rb9IGoDLFpZTW9VXQ5fVQmAom16DoLfB1jxNRD3u+ykKzdi96YVJSZVjyp5VWeSqZMzYWfzMYxqZ0f1qqtpAMDXr1J/W6hOGjBjYg9DUeVGd6VUZCoDMfhLGCm7IxgGWlHZSTM3gZOrAKTC6w34XdEe9QwTAMvhnGkB4AJs2+tpKnU1bFea3ZxWaOMJHc0oVEVNfCIqv/ItxqH6Facd+TxUj2UkqH/XbjqhOK3hWUai+mW2L34HwHaMRBXMnMI1DK2g4y7OaKr8e0DWCbErOIeqezV81SUASq1jHxfFdYE28c9nteen7On0cSLbsSWAXRiJatkByFTY6XUMRPWLW5vaBLiUkaD+2cTgwkJL00xGwgMndWUFMpmBqBqfXbyWIVr+mnetERcD2D3IOUTxx1Jr42NMAKzIWjvlWgFomA1Bj42aOyawu9NyOf0m/D/+H9Jx2Q2zru4YNkw/FOYsOgnAXYwEraZ7i5I+lWHwQ3Zo6QQAGwe0cfB+DhXneIcOLVcmlz8GKqHui1wKqaq8O6YqEwDddtz9EMwKtrWLXhrZjgPY7WmZE38Ax/9VcG1QozjkjDVs11psnR6YMbHHmNSRAF5nMGgVvZoyPYfD1pcYCg/YK9ZUwY/DWiv6fxpWIXwMgJaz+e/4sgAXBryan9ndOuYhJgBWRtmdBiDUibcGTn+fbu7ckd2fPiyyHVsK5DPeD3sOFpD7w1mLYc2S9vyILdQP3XbMa8boIQAWMhq0khYaTR26yI6fw1B4Mm+6mtMABJOgVeBB1ystARRl98zkq7ZiC6UPS09u2x7QqwCEeslySV3tlGr9cFWbAIinjXtRgF8F3PbXMFK+ZpjtHMlhgJZQdkeGsHgptTY+5kJ7F7PqSVmb35iN1JckQNODauSbAHoZDVrREViNNlTrtzb0UXV25oaAHBdWqTTXc1bDwwJ91PeSGOnlYwC0hKG2bV1jzPUCrBlqGQVyWXHakc8zAbAKUj3pqQDmh9sFZKse566H7RrK4YD+O+2L/0fmDCQPAKWWhmsA3BdQ9WTh9Ay2Un8UbcNfoML7G2jFxl/ghKJt+jMj4Q+nvVMAhHRJ6wPFlsa/LP7fea5pKCh2el2vM38CsEXApVyQMuWzqnudXsUWnl3/FiA/C7wrfDYql/7I1wMSAGQmX7WVAJ/2vBhlY0oz/7egNq1hbRDkOxnbvjVbqz/i1oYZEDmLkaDlk9ZiSyPfIOHTnGmv/ARUxoc1x6AZEAUAMTUdAMqel2g3PgZAAIAJ02sjN+RqAHsEXU7VcxbacW8yAbA6CzdT+1MAr4W95sABkfb8ClDh6JDw5afp9f74PxQ3f/DZ2WLL2GsB/DOgaqoVRStbq2dJgKkNkxTga1hpGdMwLolbGnKMhGf15lLTANQGVKL7iy0NN7z//7rtmNegmO17qYwpH8HWmnQq0QZDfgPg4MAL+p841X1h1ffJqg+jrV8o0JPD7xc6LpPrOJcDROIXof4flRPJfzQnoC1h9Vf5Zp1t34Ut1i/FloYfQ3QGI0EfGnh/W2hpOIGB8Etdc8euAILaWCow+f1v/z/wu+3+l0v5GEDCZXIdP4GiMfjpxOCHsBO7mQDoB4WWpplQuS0Bm78fR83tfL44qYOjvfITCuzseTEWxab2mo9uvJquB/CPkLqrK8uZbLXeVZvGT2R+AJE2xoLe3/zH8tzRH910UbVz0HP6lk7B+HuxpeHGD/9mXNDfw/+3mezKR+eSK2rumCxAAt6iJDcXbOPVPnxS40tIXUqPA9ATftuRM7O5jlM5XCRwHVquqQ+g/f4etn6pCxU1EtYpAMFBkW3bjy3XM7Pqy/HUsd8SwcUMRuI3/7+M5bmjYa1jMHzbUHR+EYIDQiqTGiz9lWHnj1sE6DW+l884w7cBJFC2OX8iRJPw2GTJGTnem/7oTVRt4xMKXJiEzqLQszO5PG+tTtpaVJz3R+RUtGNZ/65oG/4C4O9BVZozZ/LuDi97mxamNpyoouczFkml58ZTG7/Pzb+fMw3E/SSwQt1btI03LSc54P/bAPgYQOJkmjuOV8EFCVnEn1+yY59iAqACimaRBfByIpoRcEmmOf89Dh8JGSQnt2+rkE95Xoy5RWy03Ed11OjUwKru89lcx9fZgv1MAhSnNv0YwGQAPP6dpN2j4vS4pek0hsJP2VznEQB2D6pQRqYsd/2LjW8B9C3PS8nHABIkynUcLaIXJqS4/4kXlb1605BXCQDYid1i5IdJWZ2K4NKouf07HEYSUdnf9L8QuBp2VO9yFzG26QZA7w5qNwGcDTu7hq3YT3FL45kC+SaAmNEIfu9fBKSp0Np4DmPhqdFdKUVwieR7Y9twy/LXv6N6Icb/xwDKwrcBJEAm1z4R0F8hrDs6lrMONMf0ParDBEDFFGzDHyDoSkgfMhCZkW3On8jhJPQMQAi3/7tZKzRQGgntWbBto/Kr49iI/VVoaZglRvcHMJfRCNY70NSX45aGDobCX9F2PUcD2D6slZ5rXqG5U3SW70V1Iax1aPmb/+b8DwRyWVI2/xDkF7/u2rMNpodqxRwD4M2kbA1VcEGUa28GhTlYTm7fFsAn/S6FvhVjkztX5L9c/JzjXYFNAC04qSvL1uxxEsA23euM2QfA04xGcJ5UU94jbh17B0PhMXtFBNHJgZXqntiOW6G3XPU9Yuf3YwAC7MLHAMKVzXWcKoJLE7P5h75VU0p7eTLdywTAAjt2rgDHJ6tbSUuUa+exxRBrNojj//L7jzv+v+TIE9gbAYCNssOKx7I1+61kxz4Vx8XdVXE1oxHI+Kr4c1xM71G0Rz3DaHi+uSjXnghgk8Ba6Ip/uWNH9QLyJ+9L7ISnAALd/GvfqzmTM78A3194dr2XSTnja9ALLY2/U+CPCVvKnJqZ0v4T3joeFhX9uv9N063U0cS+5x01sG/jZNLQ07vWYYv23HlHLyi2NtQr9EQAvQyIt8oCOa3Q2vB1nFs/j+Hw21Dbtq4KTg+sWLPjlobZK7VegP+PAQD4Olt0QKw1mSn5C5K2+Yegq9DS9HtfP77xOfa1PemJAdyKunLtTeXkaEpHGyZMr+Wo47+sbdtUIJ/2vBhvxI9HK72ZF2NOQUC3ryswvFxbmsJWHcZIW2xpughGDwTwH8bDOy9DdVShpeFcQPiGhwD0OtMCYI2gRhmDM1b2zxSfzNwG/x+B3T076cqN2KpD2Px3pSPdul0UJyas5HNrxB3ncwG8TgAsPLv+LTEmea/KUzRG6w35C065fBhHH7+5shwGz5+VEsHvMau+vLJ/rmAb/qkq14TVNfG9dHPnjmzZYYht0+1xMb0ToLw4zpc+qLg6bdK7xK1NdzEaYUhPbtsewNFhzRXy+4Jt/PtK/8FZ9WWI/snz4ouamq+yZXvu5LYhUbl0DRRjk1Z0UT1moR3ndSLO+F4JBdvwB0AvT1zHExwQRZlbeeTY92qUQ71fyKzOzcTqTkNYx6xTKXHnsmUH5Nz6eXFLUyNUxgvAo+RVu6HCe1A9qtjaOHq+rX+HEQmHMeYCACG9arWsrrzqFzuL8f4xABE9jC3bX8NOv3LtqM7cDMFByVu362WF1ibv30ZnQqiMuFtPAPBUAvvg7r21pbsi27ElhyMP2fwaEOzreSnmxI9nVvmbtuK0pqchyAe2Eflqxua/xAYelri14bfG9GzHCwKrcEGmuM4Y7BS3NrUxGmGJcvn9AXw5rAYrV5SmjXtylceix2tnw/PHABR6AE+x+ikzuWObntrU3wHskcDiP15YkPlRCAUJIgGA88ctcop6AHECG+O2cPrPyHZ8gcOSX7IOBwNI+72OkatX5fj/kn+HmwJoMaj1ncMFsLNr2MrDssiOn1NsbRytMIcBeIURGXRzBFJfaG08tGAbWR+hGd2VEuCCwEoVS69Zvbfg9M25nl+CLZlslDmAjdyzdatt31OMuwdAAl/lqMWyagMuqC8wAVBFSq2Nj4nqpIT2ybXh3E1Rc76Rw5NHQwk0gOP/WO2jiAU77t8K/CKw6t0hcq+OZysPU7Fl7LWx6dlJBRcC6GFEBn7KV+CncTG9XaGlYRbDEabMdqXvKrBTWPM+LimcOaY/Lhb1vt2rgI8B+LT5z+W/qU5uBSSRjx4r5Ec9rU2PhFIeE1LlFFobLwDw12R2TclA0BY153N8TaAH7OwaQL7ieSnmxI/X3tMff1HapM4CMD+wWp4Gm1+DjT3UPjz+veLUxpPUyY4hLMY9WoXd4gw+U2xpPJmv9wvYKZcPE0FQb1URYF66p9wvd8TET6Zvh+9vA1AcitFdKTb2qq8oiabkpyowE0CUyB2W4s/FloagvqgyoVVRbU+5CcBLCe2lAsHUKJdvx0ldWQ5a1SvCf74AYITni5lZq3v8/30L7Ni5UPw0sGpeN3I4ha09bMVpDc/GLY31avRgBR5kRCrmPjX4ctzaeGDJNj7BcAQ+R2YzZwBYP6htlOp5C84+6u1++ctm1Zch+IPnIVk7u2PvHmztVcxOr4um5DuhyMHzN1atRs99vpDqOSq0V8qa0KppwdlHvV1W/TqAQnJ7rDRkhpXujezMzTl6VetCwPh//F+1X7/1jFPpnwF4I7Cq/lE0qWMztvgEJAJs0w3FlsZdYeRAJgL61b8EUh+3NHyuaBtvYjjCl7X5jaE4PrBivRkXS5f071LPeX/yyDnHxwCquB9GbsjtUDkywWGIjUE97Pj3QiuYCbG2+p7RkIlJ7rgCfBqufF9k2/bjMFaF9aM4xPMizIlTz9/Tr3+jrV+owJmBVXWElDuTLT5BqwXbcEvRPLe7QOoBPMCIrLL7BHpE3NLwqb7n/MP69oWWTR3OA1AXVJkUU3He0Qv6dax5PLoDnifNBfg/tvgqXLg0t++jDvcD2D3Zg5F8v9s2BZnQD/o4R5TLzwDw3YT3416BTC60NPDd5FUi3ZzfyQge9XrgEFxcmNp4Qr//xROm10br1z0JyFZBTSFG9y7YpnvZ+pMnazv3VueOB/ANAHze9WP6ChS3qpiLiy1jr2U4Ethfmts+p2L+Ftj69MXYpLeDrS/1+zp3Sv4yKL7ndad3ul1xWtPTbP3VsvnvmADRnwOoTXIcROTnhakNx4VaPhNy5cXvvnMcgPsS3pdrFHpONCV/Oe8FqJJOF8LNt2Iqc/RwxsQewEwNbR5RJ+fzcs5kKtixd8ctjfXOuZ1EcDGAdxmVj3hHIBc5Y3aIWxsP5OY/uVTk/MA2/xDopEps/vv+cv8fAzCGbwOoCnZ6XTSl40qITk/65h/A3wpS+6Og9yJBV98lxxelnDocwBzOqvh2Zljp3oxt3xo02Hyf7F4v4JmKfZsdm2c7BHgssDrfI5vrPIJNP7lK08Y9WZjaeEJsejYEpBGK2wEk+Vi7ApgtiobY9GxUaGk4sWTHPsWWklzZXP6bgOwd2Ob/0YJ5/ncVmy8DeAxAwQTAYMtMbt82ckP+AdVxjAZelXJ5dMWSdlUzNiVAXXPHrk70TgT2TNkqWiDAdwstjb9jKAbekDM61yvXuNfgcfJNgEsLLY3HVnQysvlDxCG0bwFfjN99Z3tccnyRPYEAIDtp5iYu1fsNgYwGsGdC5uQnAJ2lrra9OO3I59kKCABgu9KRKz4R2ONfUKMHF23TDZX8GQE87upSvWbDRWeNfYMdYRDmoVz+/wBcocBwRgMFMbJvwTb8M/SCmiTUZndrwwMCHQfAsW1jmAJXRVPap8N2pRmOgVVO6dd873fO4M+V/hlF23jd4m9IQ7JFdsSI49kL6L8rjTPH/KfY0nRR3NK4N4xsLdBTAMwGENI3DyWo3CYqP4ZzW8YtjTvGLU2Wm39aYhNSLp0Y2uYfwF2V3vz3JRkqPydXei9STunB7AUD7LiLM9kp+YsU+AM3/31dSYDxSdj8Awl7p2PU3DEZoq1s4//1Dzg3Jp427kWGYoAWObn8dQp81eMizI9Nep2BOBq1+PK0uwJrAgtSvWYbftNBy3XK5cPq6tL7OycHAfgCgO08mq8VwJMCvaMMc2PJ1N4KW7+QlUrLMvT0rnXKtaVnQ9uEiNG9BuTy1+MuzkQj1poLYKi3Oy/gj8WWxm+wNwyMjG3fWpyZCehujMb7G2I5LUkXpifsUiqVKNdxJYAmNvX/beigOCZubcwzFBVmp9dFbshb8PtRlN/FLY0D9k7YbHP+WhXvX5n44UG34o9QUFiGnX7l2qXa2j0F5b2g8jkIPgVgrSr5eO8AeASCf6jgngzS98639e+w1miFx/kp+UtV8YOgVpsqfyq2NgzYK+4yzR1/FNGvexyy7tgsWgd2Yjd7RGVFze3jIHIpPE4YVcCVcUvjt5JU4Jpk1a9o/O7F341GjNgitItmVsMaELRHUzoOjAvxsf39nlr6wCLHDfmyen8PhQzoc/nllDvdOPMVBPS4kgLfSzd3XlZqHfs4ewWtiAVnH/U2gGsX/+obT2x+Ywf9pCnLp9TINnC6OUS3AGRT9P8NziUA/4biJQheFMVzLqWPmh73WOHMo1794H/ICy5oZaRt53bqXGivay4rZPKAzszi/gyIzwmAuoyrG1UErmevqJBTu4ZHmdJlAMYwGEssym6PU+kJSSt2TeIq+pLji/GpXYdkM6U7FNiZLf/9DqDjoijzBWnONxZaG+9hQCoxxsihnl/63Zs2tX+NB/AHluy4f0W5fAfCOrWTMiifB78fBaFBVrCNrwB4BcCSzxiP7kpldyxtYCAjy8BIKWOkE13bQIYqdBigNSpICbBG37iE+aIoA9IrkAUOutCovK0pzE0Bcx10bgHPvQZreYcO9TtTLv8UImG9ckzQXmoZ2ARvTU/mut7aUhlAytuw9b0imQmACsjajs+qK3YGeM/G6vpXpke+EbeGfeP/0oepxHaG/MbqcA+ATdn+l9ADYGpsNjoXdlQvw9Fv23+Jch2vAtjA4yLcFrc27D/QPzayMzeH630KkExQLQJ6SLGliYsdIkqkQN/2UoJz2w3G3UpRrv0uz0+3vhq3NGwCiLJ39BM7uyZyr0wGZBKS+KXv8r1kTGqvbjvmtSQW3iS11gu28RU1uj+AN9kHllALYFrkXr0nbTu3Yzj6xxDbubPXm38AAh2UhVpsx7wkItNDaxMCuRDHXZxh7yCixDnu4ow4XBBasRR66WBdrCzw/m0AG6WbZ+7AztE/0pPbto/ca38DZAo3/x8xV50elNTNf6ITAABQtE3PGcUhAHhD8Ud91jj3YDbXcSqsNQzH6nEOX/Z+YZOSQVtcpItiAbwdWLPYOhqx1snsHUSUNNGaa/8YwNaBFevddI87c/DWGeZPvgcwhfKX2TtWe7UmUXPHBGPMfbzlf6m6Rc1hxWlNTyc5CInf2HW3Nt4H4OsI673L/SWr0HMit/WdmclX8bmh1RmOoV5PagI8FtuGFwbr5887p+FdUT0rwKYxKZrUsRl7CBElZmExaeYmED0twHl+6uILOwdFcVrDswCe9juGwgTAaogmdWwW5Tpuheh0AEMYkY/oUaOHF1rH/i3pgeA3uwDilsZbRbUJQJnRWKq9xPQ+GDV3TABUGI6VdHLbEED39HtSHvyjhYVU5ucAng1tLYwaPY+dhIiSwpnyz8LbnOjzRZO5jHP1ahJ8AXZ6HXvJSte8ZJrz30NKHwUwivFYql4xGFu0TTcwFEwA/G9z0drUJapjmQRYpjUgOj3K5e/MTG7fluFYcZmhZpTvF9iJkcFfVNj6khgJ7lsjKOozuQ5+60FEwYty+f1FcERo5XIwP4Id/JvEjTG+3wMQZdzQfdhTViJgtmPLKNdxswguw+K3u9BHlAH5VsE2Xs1QMAGw1CQAgKMB8HVHy94K7i1GHsrmOk7F6K4U47ECnUy9P9L2esGOva8q+qht+AOAO4PrVdCfYcL0WvYWIgqWnV0jCO/iPyhuL7U0XFMVcySeuRfAG34H1DEhvoL9KZNrPwFOHwWwPwOynB4KfD9uaehgKJgAWKa4pfFKKL4Lz1/YXmFZhZ6T2b50f51t34Xh+JiRR/1+/h+i11bTa3mMpk5EeEm6HbLrDz2WvYWIgl04uFdPUGCnwIrlDKR6LnO11kHwV6+XHLwH4GOlm/M7Re7VewVyIfis/8cswfGDuKXxVwwFEwAfnwRobfyNqpzISHzcII1POyd/i6Z0nMlntpYusjM3B7CN36NndT1T2N065iGI5IObpaBT685o34C9hohCM+SMzvUANAe4Erqyu7Xhgar6ROr96wB3yNq2TdlrluLktiGZXP48I3gAwO4MyMctX3FcsbXxlwwFEwArrNjacLEoTgJPAnycNFTPiNyQf2Vsx1cYjg+NPs4d7HkRFhVN761Vt+Tq7T0DwKLAmsswVyNns9cQUWjKNe4nCgwPrFgFKZspVfehzKIbAXT7vXZKHches6SMbT8sqjOPC/BjAHxk8OM2/6rHF1saL2UomABY+UG0tfFCABPBOwFWxBbi9Ppsc/5aZm4/2MH8Pv6vwE2w4+Oq65tnHvUqBD8NsMmMi5rbeQESEQUja9v3BNAY4B7jvMKZY/5TdR/LTuwWYLbnseVjAIvV2ZkbRrl8mzi5BgBfG7wim3/guGJr088ZCiYAVlnc0vgrqBwNvh1gxXqd4BB15l/Z5vyJsLNrEh2MCdNr1fPXsQj02qrtm5L+CYDXA2s1oiIX8oJNIgrC6K6Uc/g5gNBeIfxa3K0/qd4dkPj+GMABiZ8H7eyabC7/I+fKTwNo4mCyQspQjOM3/0wA9M9Go7Xht4tfEdjDaKyQYSq4IHKvPpbk15tFGw7dA36/kqVc05O5rnonx/qFUEwOrd0IsEtmu9J3OYwQke8y25UmCuQzwRVMZRLOH1e1j6GlynIN/D69OiK7Yymxz7hHuY5RWffqgwqcD2AoR5IV0iMGR8atjXmGggmAflNobepSg28AiBmNFbadQG/INuevXXwZXrI4/ZLnJbhv4dn1b1XzB4xTz/1WgYeDSwIIpg07/cq1OYQQka+G2c6RImgNbu8PfShOPdtWzZ9x0Vlj3wDwkNdxdsl7G0DW5jeOcvk2QG8L8I0ZlVQyRusLtvFqhoIJgH5XtI3XqdH/Q3iXj1V2EBccAld+PMq1N8NeESWo6Ad5XnM3Vv1HtNaJ0ZMCbDtr99aaVhAReapHy2cCWCu0cokxp8BaH75dv8nzNUhyEgAndWWjXMcUdXgGPO6/shYq9JBu2/QnhoIJgAomAZpuEHX7A5jLaKyUOkBaIlf7RNZ2fCP0wg6znSMBeH3sUTR1ow+fM7ZNtwfw2qOPLn0gE+ua83zNDxH5N+Hb9l0W358U1ris8qfYNtzix4c1N3oe7s+uYbvWCr2vZG3+iGhY6QlALYAsR4+V8qYxblSxpelmhoIJgIortI77h7qazwP6PKOx0rZQp7+Pcvm/Lb4ZOEi9Zfcln/uXAu8VUhvc58vndaqnILw7OowTXASogIjInxlEnJNLAYR2iVsPUr2n+vJh4zcW3AtgvsfxTvWgtF+ovaTOtu0W5fJ3qMMsAJtz3FhpL6kp79Ntx93PUDABMGCK04583vRinxCfPx4gn1cnd0e5fFc0uW2L4JY/xvNn1xS3wI7q9ac/Nj0tgssC7Cd7RM15HgckIm9Eufy3AHw+tHIJ5BdFe9Qz3nzgGRN7RHG710sRDe8egKzNbxxNaZ/unPkHgC9wxFgl/5JyeW+v+iMTAOHoPqvp9aLpGQXgTkZjFedTYDSMeSo7JX8RTu0aHsj2X6B6oN8Vo94dHUwXxQJ4O7xeIueF0zeIKGg2vwYgZwZYsndrenq9u5fFAX4/BqB6UDh9o2tolGu36vAMVCZwD7aqbQK3x8X03oUzj3qVwWACYBA79Pj3YtPzZQCzGIxV37up4vgoU3omk8sfA9uV9rkwtc35TwHYwOs9Z0q9uzxo3jkN74rqWQH2j/UymeIUDhNEVO2yTlp8n/+WOidCWhecfZR/CWat8f0egI3TNr+D5xv/dCaXPy5yxRcAmQI+5786ZsbvvXMQzq2fx1AwAVANSYA4bmn4JqBTGYzVsq4AP49c6dmouWMCRnd5+fxgDbC/5/XwZMGO+7ePH7yQyvwcwHMBLj6PG2I7Ps0hgoiqVZ1t30WhxwZYtOcKpvZSHz94cdqRz/s+J4rzdE1lrcnmOkZHrviEABcDsg5HidVoB4KLY/NcIy45vshoMAFQTU1T45YmC+i3AZQYj9WyKUSnR9uXHs3mOkZ72Ba+6HPwVTw+MmjrS2Lk1AD7RE3Z6Qxfk2JEFDhrTaAX/0GAU2DrvV3XiXj+OkD17zn5yHYckHFbP6DQLkC24gCxWkpQPaowtfEET16/yQRAEsUtTVcAchCAdxmN1baDQruiXP7ObHN+L18WQSrYx/PJ1uvFQsE2/AFh3suxe2b70vc4LBBRtcmUtzkWAV78B+DOQkvjH30ugBP1+jEAEf2iL2/DiZrb94ly+bvh9GYBPs2RYbW9DSMHxq1NbQwFEwAeJAEaZqvRzwJ4mtHoF/uo4O6oOX9z1nZ8tpo/6BBs8ykAI3xuvkWz6A7vBzZNnQigHFpHEOCs7KQrN+KQQETVou6M9g2MaEuARSunjJzgeyGK3aXZ8PpkqqyTbp5Z1fcAZJvbPpdtzl8LkTsB7MVRoT/o8+p0r9g28KJ1JgA8GnBt03O1xuwNYDaj0W+7nwPU6T+yufY/19n2XarxI/Y690XPg3wX7MRu35tKd+uYh0QwPcBesIamUhdwMCCi6tkly88VCO5NJQL8cpFteNj7gpx39AJA/+Z3XVTn2qquuWPXbC5/nYr5uwoO4WjQX3t/3JI2mc8WpzXxi1QmAPyzwI6dGz+ZPhDQcxmN/hwX5FDn5IGoOX9z9SUC/H7+38fX/y1LuiiTAcwNsAuMzuQ6D+VIQESDLZPLHyyCbwRYtHdqesoBvX1F/H4MwKCq1lZp2/bJKJfvcqL3KfBVjgT9Wdk6I35j0Vfm2/p3GAwmAPw1q74ctzSdBuBbAGIGpF93qwc4J/dnmvOz0rbzU4P/gVQEfj//XzYumATAvHMa3lXo5DCbvvs5bNdQDgJENGjs9DoBLg20dKd5+dq/ZS32jefJfcW+1XAPQG1z+86ZXMfVxplHAYwGIBwI+k0BkMZ4atNEzJjYw3AwARCEuKXxSqOpPQG8zGj0715IBEcY5x7puyMgP2iXEKWbOz4JYKTHsXy9ZJseD6lxFM3zvwLwzwDb/aYZLTWz+xPRYMm4IS0AtgiwaA/E5rnLQypQt218CMCbHhdh3bSdue1g/fC65pmfiXL5rpTIQwI9nBv/fveKUXwxbmnoYCiYAAhOd+uYh2qN2Q28F6BCqQAcoA5/i3L5uwfjiLRAfX/+/wZANKg2Ya0zxh0DILhXx4jih0Nsx6fZ8YlooKVt56cEOD7AoqkYHBve68ZEAb3Z6xK48oCvsbK2c+9sc/5aJ+UHwW/8K9Xl7k71mt26WxvvYyyYAAjWAjt2bmzSB4ngYkajYvYSuD9Hufa7Mrb9oAGcnvj8fxXqtuPuhyDEV8jUlJ1Oh7Ucx4lo4FhrjHO/BFAbXNkEVxRs498DXfL7fQ/AAK6xMrn8wVEuf7c6dxcv96vczl+Bn8ZzuvdbdNbYNxiOAV5AMgSDMXnWlwrACelcx20C/a0AazIoFZku9haHv2Zz7Y+q4qdxauNO2FG9FRrHRKTjCx4Hy6V60rcFO9CJO7VHzdcD7GufzbhtJhaBy9jfiWhANkflrX4AwR4BFm2+6Qnz3hgASPXKTeUaVfj7Lfa+lV2bW5Nxn/iqwDUD2J09vbJ9TSDfiVsaZjEUg7RDYggGeSKd3LGNMTpLgZ0ZjYp7SaEXFrv11zh/3KL+/IvTNr+DcfD5+fn74pbGzwbd13LtJwjkwtDKpcB7qV7dofusptfZxYmokurszA2dKz8JYI3gxlKVE4qtDUGfzszk8g8J8Glv68iUty3ao57p17/0uIsz0ZojvgmRyQC2YS+v9JpFH4KrHV2cduTzjMbg4dHRQVac1vBswfR8no8EDIjNBXJhts68mp2Sv6jujPYN+usvFuf38X8Ibg2+r5mNLxXoo6GVS4A1XS1+xu5NRJVWLpcvCnHzD+Dx4hsLwz9JJeL1ST9xqX5baw2znSOjXLuNRqz1KkSu5OZ/QLQXTffe3PwzAUAAYMfHhamNJ6DvVYHdDEhlKTBcFce7GnkuOyV/acZe+YnV34T5fQGgit4Rfj8b1auKY/uaQGiNWo7M2DyfUySiisnk8geL4IgwV8N6bCJePSbO87l+9ddaGXvlJ7JT8pf2OPcyIFMArM3eXXELAWmMWxrHwU7kPocJAPqguKXxSmfMrgp9iNEYEHWq+IG41JNRc/7mvjcHrPJ7ZvfxOA69Rci9iehjrU13AegKc12Hn+PktiHs1kTU7+z0OgEuDXNTjM7YNt2ehGosovdOAGWPK2uVEwBZ27l3lMt3iUs9oYofAKhjxx4QD6gp78pX/DEBQMtRsmOfKs7p/hygUxHgq8uqth8IDuh7c0DHk5lc+wk4qSu7on84M7l9WwAbelz+B2Eb5yelssXgZAALAyzaZlGdmcTuTET9LeOGWABbBFi0hdJbPiUxFWnHv6fAYx6XYOPM5Ku2WuH/+riLM1Fz+7hsrv0Rde4u9L3KL8UePSBUBBfHJr1nv9/bQEwABGnGxJ64pckq5CsA+GqMgbWtQC6MhpVeiqbkpw6xV6y/Ar1oX69HaOCOJFVwwTa+AuCsQIv349rmdl4oSkT9Jt2c30mAE0MsmyhaC2ce9WqiKlRwu9cfX3o/9hRA3RntG0S5jpZoxFr/hsiVCvkUe/KAeh1GvlSY2ngCbH2J4WACgFZCsaXhxpqe9E6iuI7RGHDrQpEru9qXo1y+K7IdByzr8YCBfDdthVIAdyStcmOT/imApwMsWk1KZDqs5dhORKvPWmME0wHUBli6ZwvvvXNR0qo05fudP2bZa6665o5do1y+zdXIy4A2A1iXnXigl5S4KWV6doltwy0MRhUvFhmC6rbw7Pq3AD0s09x5nIieAyDLqAyoNIDRcDo6m+t4RLXjF3Gh3PGh1wh+wePylYum957kLWrrS2rzx4vDjQGW7nNReZvvxMAMdl8iWh2Z8tbfg2CPMPcpOAGXHF9M3sI/c2cJJQdfvwRUHbXE/z+5bUimThoN8AMH5Tf9g6dbFT8utjZcBogyHNVNGAKPJuLJV20lpue3gOzNaAyq+RC9yrnUxZIqF8XJsx6X5YG4pXG3pFZktjl/jQoOC7Bo75pe3bH7rKbX2V2JaJXGx0lXboRU6nEFhge4+f9jsaXxG4mt21z+YQX8fVzMuS21RlLi8B1AvgtgLfbYQfUPdXpUcVrT0wyFH3hM1CPFaUc+H5uNRwnkNAB8pmbwrAGVCUbcv8TJzZ4vgm5PckVqSk4CEAdYtBGaEp4AIKJV32OZmp+HuPkHUBDnfpTw6r3T792L+bM4eQaQU7n5H1Q9gJ4bz1m0Dzf/TABQJdlRvYWWhnOdYjcFHmZABt3mng8BdyS58mLb8AIgPwmxbCo4JNvccSS7KBGtrKg53yiiXw+zdHJuPG3ci8muYe/v/vkkeIp5sD1ujH4+bmk6DTMm9jAcTADQACi1Nj5WND17AHouvH6nKw0ilzE19yQ9CPGC2rMBvBRmEkAvGWrbeAkSEa2wYbZzJER/Fmjx/h2bhT9Jeh3X9LjbwVdN0yquHUVwcfzuO7t226YHGQ4mAGig2fFx3NJ0mqjZB8ATDAit1OYQeHS+rX8n8YG4oL4g0JMDLd3IXpWL2NqJaEWVyu4yQNYJcucCOR52YnfS63jB2Ue9zXUjrYLHRd2ehamNibxAkwkAqiqF1rF/i+cs+jTvBqCVIsl+/n+JPtTS9PtgX7epcmTWdnyDtUxEHydj2w8TwRGBFu+vpZaGa1jL7y8BcAejQCuo71n/d9/ZtdA67h8MBxMAVC1mTOx5/24AAP9kQOjjeP8u4P7eJzs5FsCiMMuml65hu3hREhEt07DTr1xbXLCXh3bDuWNYy0ukALgGoI9fP0AfMpr6XNzSdBq/9WcCgKpUqbXxsfjJ9J6i8mMABUaEljWmp5C6m2H4n/jMhpdFMS3Q4q1f0tJPWctEtCw96dSFANYLcqsL5Hjx35JSPbW3A+D72mlZugXyw+KTmd27W8c8xHAENyZSqDK2fWtx8ksA+zMatGTH10cLLU07MxIfYmfXZNyr9wnw6RCLp0YPLtqmG1jRRLTkeqHjK+L0+kAXuo8V5izalTeVf1SUyz8OYAdGgj7kRhj5Qd+bkihEPAEQsKJtei5uaTxAYQ4D8AojQh9YEvHo31ITAKN6jZGJCPR2ZHHya9gr1mRFE9H/xr38GuL0l4GWzkHNRG7+lzEngI8C0hLmQPWouKXxIG7+mQAg3xMBLWOvjU3PTiK4GHxlIAEAJ/1lKtiGfwL4VaDF2yjras5iLRPR+yKVnwLYJMgNrsgvCq1j/8ZaXmaEuBYgoO9Lj/a0Se8Ytza1MRxMAFAo7Pj3ClMbTzBGPwvgPgYk2VJG72IUli02PacBmBNi2RTyvci278taJqLIdhwA1aMDLd5rhbh2Mmt5Odv/Xr2TUUg2BR4WdXvGLY3j+GpoJgAoUN226cHYbLSnQH4IYAEjksjh/vmFdtybjMNy2PHvCfSHoa754OQ3sF1DWdFECXZy2xA490sEeh+UQE7EufXzWNHLWROe1fQ6gH8zEok0X6EnFp9M78ZX+zEBQInY3IzqLbQ0XGB6dVsA7eAtsMkiwoF+BRRammYKcH2gxdsi44otrGWi5MrWmXMB2SrIwiluKLQ0zGItr8iaAH9nEBJFIfhtyvRsW2xpugiz6vloMBMAlCTdZzW9Hrc0jjPGfRbgBJCYkd8xAbDCsTKpYwEsCnPNJydkbeferGWiBG7+bfueCnw/1OUNUnIMa3kF5wKnXBMkxwNidO94auP4RXb8HIaDCQBKciLAjrs/bmnYE6pHAXiDEQm806eY7FlRsR3zElRDvTTPqHO/hr0iYk0TJchJXVl18ttQ14CimMobzFcC1wRJ8LZCT4zNc58t2KZ7GQ5iAoD+O2XGrU1tsenZDtBzAZQYkxBpsfD2248wDiuRBEhtfJ4AocZs28jV5ljLRMmRGVZqBbBNkCsZ4LHCG4suYC2vuAJ6H+SaL1g9Irg4Lqa3KrY0XQRrHUNCi8dKoqUsECa3bytGWgGMZjSC4kTxF4VcW5Mq/4mXAa6YbHPb51TMvQgzadprjNuj2467nzVNlIix7B4AqSDnN6P78BvOFTP8tI4RxVp3KEQOAXA4+KVgWBS3uJQ7qWTH/YvBICYAaKVEufz+CpwvwKcZjb7bEgPqNL2AzFbgj6le96fFtwHTsvvCDADfDXMi0EcLJrM7bD2/BSIK1XEXZ6IRaz0AYMdAx7HLCi1NP2BFL1udnblh2bmvieo3INgXQA2jEtw69UGBnBy3NMxmNIgJAFp11pqs2+Zwhf4EwGYMSLCeAPRaGHNL/NrCOzBjYg9D8j/DT+sYUUzrkwDWC3TZMDVuabKsaaIwRVM6zoTqGYEWb05seraHHf8ea/oDRnel6rbr+bQKDlDooQD25No/WK9BZWr8VO3lvNmfmACgfkwETK/LuqHHKXQSgGEMSNDeAXArVG4xKXNdtx3zGkMCRLmOBkDzgRavxxi3Jx8FIApP1uY/rw53IdBvfAU4stDS+DvWNDDMdo7sdTpKxR0AlcMArM+oBK0b0EviuHQmzjt6AcNBTABQRdTZmRs6V84B+DaAWkYkeA7AfVD8xQB/7U4990CSL5KJch03AXpgoMV7Kl6Q3gUX1BfY7IkCYafXRW7oQ4B+ItAS3hi3NB6U3Pq1JottdlPnvgLIwQB2A5/nT4Iegf5aetHKRziJCQAauI2Qnbk5tPd0qHyHk02izAUwG6rXpVOZ6+bb+neSVPiMbd9anDwKIBvkpCC4uDC18QQ2c6IwZHPtv1DI9wMtXkFdzU7FaUc+n6Q6XcN2rdXjevZf/C3/IQA2ZEtPDAVwtTqZVJzW8CzDQUwA0KBI27ZPGmdy4BsDkqgM4GFAbxGTuq5gx9wDiIZe6Ki5YzJEW0NdXKjRrxRt0w1s3kR+y+TaDxTIjaGu90RxeqG18ZxErLWaO3dMiR6iqgdA8EXwBGYSt/63mJSe2m2bHmQwiAkAqo5NUa5jFKBnA/gco5FYrwO4BSq3iTO3Fs4c858gS2m70pErPQRgh0Dr8dVMSXaad07Du2zSRL6OU1esGbnaRwFsEmgJH4/nLPpMqBfWRpM6NkPK7QeR/aA4AHyWP8n+BjWnx61j72AoiAkAqkIqdTb/NXWYqpBPMR6J9xxEbxOV21LGzV5ox70ZzOKsuX0fiNyOUB9/EeTjqY1NbMJEno5RU9pnQuXIQIvnxOg+Bdt0bygFGnJG53oupaNUdD9A9wNkqwFdvXFTUH0rauhDQGpKsWXstYwGMQFAXiQCMrmZhwDlqQL5DONBi70A0VtEzS3pEm7x/Rvm7JSOS1T12GAnCNVvFlqbuthsiTwbm3LtYxTSGe4KAxcWpzae5HUhbNfQCD2fh3MHAHIAgF24LqfFHhfI1ELL2KuT8FglMQFAobHWZNwnvmrgWhXYmQGhD/jv/QGK1D1F4+6AbZzvVQlObhsS1ckjA/1NzQCaa3r1U7xhmMgfi9/U8xiAtQIt4kuxSe8EW7/Qr/XQ9LoIQ/eEc3tDZS8+x09L8SRUz4mfynRgVn2Z4SAmAMj7REDWbXO4QlsBbMuA0FL0AngE0FtgzC3x22/fhUuOL1b7h45s235w5pZgx1PFTXFrw0H8FoLIiw4rUa7jegAHh1pAhX652NJ0c/Wve2bX1JVf21kFB/Rd3Kf7AJJhG6WleBEq58RP1V7OjT8xAUABJgJm10TlV8ZC5DQA2zMgtByLoPIPCO5R4+4tQu6t1hMCUa7914AcHfCeYmLc2jCDTZKoumVyHd8X6C8CLuL0uKXxe1X5yU7tGp7JlPYUyB6A7g3gswCGsFXScjwBxdnxU+mZ3PgTEwCUgERA36MBAtcMYHcGpKK7t5C6+gsA7oHK3Q5yT6l17OPV0Z7za0QO/0K4t20vUief4TuHiapXZDu2hNNHAAwNtIivxqbnk7Dj36uGD1NnZ26ozu0F0b1VsReAz8D7S2F5FeDAbL70UVX8lEf9iQkASvKi5QA4bQGwB6NBK2mOKO6HyN0wck/h7bn3DdZjAxnb8RVxen3Asb43fjL9BS5WiKqQtSZyW98OYJ9Qi6jAV4otjX8dlB8+uiuV3q53OwPdC6J7L47z5mx4tLLzqMKcU2wZcx0fqyMmAIgAZG3n3ii7U1VwCKNBq6gbwEOA3q1I3ZPu6bl3wdlHvT1QPzyakm+HojHYCUNxeqG18Rw2M6LqEjV3TIZoa8Cr1d/GUxvHD9jPO+XyYVFd9Dk4t7eo7ArBPgoMZ0ujVXSPwpzL1/kREwBEy0oENHfu4cT9WICvIdR3rNNAcQI8roJ7oPi7U3N/6amapyr1Lfaw069cu6c29TiA9QKNZ6ms+tme1qZH2LSIqkNd88zPOCn/HUA60CLOSZv0jvNt/TsV+dvf/3Zf3G7oO4m4F4AduP6g1V1/qOJPBu68Quu4fzAcxAQA0QrITL5qK5PqPV4V3wWQZUSonywC8LAIHlCnDzikHiilnnkS1rr++MuzNn+EOswKOH5PxKZnV9jxMZsS0SA77uJMdsRa9ymwU7ALVSOHF2zDH/rr76uzMzcsO91VUN5VVHZVwV4ARrAxUT8pAfidc+7s0rRxTzIcxAQA0SoYatvW7XXyA0COQ7jvNabBtQDAo0skBVrHPLGqz+hlch1XC/TwUIOlgvOKUxtPZbMhGlyZKR0/FdUfhrtK1aviqU1j+nGzvweAtdlyqBLrCBFcgd7yeYUzj3qV4SAmAIj6g82vkS3LBBU9AcDGDAhV2DtQ3A8j94vq/Sin7i+cOeY/K/IHh57etU5vbfFxQNYJNDYOavaLW8fewWZCNDiytnNvde52AKlAizi3xrgdF9pxb65QPCbN3ASp8m4qshuc7gbBbuCXBlR5rwhwYSEuzsB5Ry9gOIgJAKJKmDC9Nrt+3REKORF979klGihvCHC/Qu93MA8ZV340ntb00tJOCkTN+UYI2gOOxYtxXNyZCx6iQdD36tFHEPBN9KIyptDacNVH/41KZDu3cA47GdFd+jb7sivCvXuFqtM/BXphYU731ZgxsYfhICYAiAZIXXPHrq7vRMAYADWMCA2CBQCeAfCEQh8QYx6vQfnRhXbcm9lc/k/ad5llqK6MWxq/xSZANLCCf+MI9NpCS9NhOLVreDbbu5OWdQcxuqM67ADBZ8Bj/DQ4nCj+oim5KLYNtzAcxAQA0WAmAs5o38DVYCLvCaAq8i6A5wDdGZBQb+eGKBoKrY2drG6iAdr85zqaAG0LtXwKjUXNXRDdCsAWXKtSFZgvgt9qr/wsPrPhZYaDmAAgqia2a2imXPyWiBwLYFsGhKjiFqqTXYrTGp5lKIgqKzP5qq3E9D4IYA1Gg6jinlTg0qJJXwlbv5DhICYAiKqaSmQ799cyjhHRQxHuJUlE1eC+2KT3hq0vMRREFWJn10Tu1bsAfJ7BIKqYsgJ/FuDSuKXhtlV9GxBRNeMz0xQo0djiFgC31NmZGzrXOwHADwK+lZ1oMO0euZKNgTMYCqLKyOirZ3LzT1QxbwJ6BcrmsuJ/j/k3MioU5i6JIaDEsF3prOv5mqpOgOAABoSoXzkY+TIvRiLqf5Ft3xdObgVgGA2ifvUAVGbEC2vbcUF9geEgJgCIAlXXPPMzasrfcYqxAqzJiBD1i9dqjdl5gR07l6Eg6h9DT+9ap7e29AiADRgNon7xroh0GMHli2zDwwwHMQFAlCTHXZzJjlj7sMWnAvZnnyBa3UlFry20NH6Nz00S9QeVqDl/HUS+wlgQrba+b/sL5Q6cP24Rw0FMABAlXGZyxzZiXAMg4wFsyogQreKWRfW4YmvTzxkJotWTbc6fqIILGAmilZyH/rfJmQPolWrw66Jteo6RIWICgOij7OyatHvtq0b0DCg+y4AQrfTSq1hWfK6ntekRxoJo1aSb8zsZwT8BRIwG0UpvcO5yRs8vYuO/wI7qZUSImAAg+ljZXPuPFXIeI0G0KjkAKQLleyHmFUBfU+B1A/MajLyu0NdiPPsSrHUMFCXZ8NM6RhRqZUOT0g1QdhuKmA0guqFzuolADoIgyygRrdIWZ1zc0tDOOBB9FF8DSLTM/Yv5BJSPMROt2tpLM4AZtfj/QAAoFHB9fSrCVkXk8nMAvALgNYG8BtXXVPQtRWquUcx1qnOLPbVv4tz6eQwoeePUruGZ2p51jchIJxgpKI8UlXUgsqFCNwSwIYCNAV2/CM0YKOAAiPT1EQVE+P0M0Wqu4rZlDIiYACBaybnDbcNDMkQVyxBkAGy2+FffxkfeTxY4qAAiQJQpAbl8D4C5AsxVYC5E3xCYuaqYq+reNiJvKeRNpzq3pqxzu+d2z8WMiT2MMa22CdNr60bWjexNyUgjMlIU6zm4kSIYKWLWVriRUFlPgJEKjAQwEijVvt+m+2YQgUrf73yoDzC+RJVawimYACBiAoBopTco2zAGVNEFSgK2AP1UxloAG+j7r0HTxd+Uou+bUl38k4wArkYQrT8EksvPU+DNvsSBzlXIewLMV5F5opivincFmO9SmG8g88tlN884mZ8pY/68cxreZesMx/DTOkYUU1jDGV0jlTLDHXQNU8YaCqwhghEKHS5Y/P+haypkJICRAqyrwHAHwCxuYyrvn2cBVP/XunlWjKjKVnCC7RgFomX0D4aAaClObhsS1ZkF7CNEiTUfwLzF/+z7JZgH6HuqMk9U5iswX8QtEJiFZaBkDBah7IoGprsXEpuUFkzJFWqdiectersblxxfZFiX47iLM8OHrF3XY1zk0ibrypKtgUYOrg4pk3EOQ1JAWuGGqpphAqyhomuI6HCojACwxgd+Df/A/yaixNFi/GRmCGbVlxkLoiXxBADRUtRmZWtu/okS7aObRwX++/2vfOB4N7TvG+LFz3E7KN5/rtvVCIpQROm1gFweABYBKAFYCKBHgAUK9AKYD0VZReYJ1AF4D6IKiIPqR+9AEOkRlYUf/m2nKAgQf+Q/hy6EyPIfi1CtVcjQj/y2uKyBiT76+zoUqrUf/YtkTYgKYAxUh6siJX2xrIFgmOC/PycNYMgH/oni+2dGnMKIwi3+9HB9MV587gMi7/8vYPH5eiKiD45DmWjbeNMYeJGxIGICgOjjO0ZKtlHeT05E/W/I4l8j/ptT+N8uHfLB3/nvxnYpG1zFfx+DWDIvsIy9PT7y05ayXl76fyOQpf6s9xMiS/+B8r/tunz4j3HDTkSVpzWyLZgAIPoIwxAQLWXScODz/0RERES+bnLKwnsAiJgAIFpRvACQiIiIyFdq+CYAIiYAiFaYYwKAiIiIyNsMABMAREwAEK0w2YoxICIiWr0dGNEg4lqOiAkAohVgr4gArM9AEBERrQ5e+EiDaiNMmF7LMBAxAUC0XJnems24aiEiIiLyWiracOgmDAMREwBEy1eDLRgEqgY8PEtERLQanHJNR8QEANHHTRaGkwVVBR5DISIiWg3KBADRh9UwBEQf3nXp5r5+9arOXSLGpAEcDGBTViYRERGton8D+KtCnEC/7+eaTjZnNRIxAUC0/LkC8HayEJP6Y9zSMBsAItuxpTp3qKgcAsEXAKRZu0RERLQMZQAPA3qdUXNtd+vYBwHRTK79QEA8TQDwsU4iJgCIPo7Klt4+fW3Mi+//z9g2vADgIgAX4eS2IZm6mv1EyodA5WAAvBSHiIiI3gRwB1Svi1O9f4Yd/97//lVD3z+ceQnG16ORTAAQMQFA9PGzxeaefvDeGOu/stR/c/64RUXgWvT9Qrq5c8eU6CGqegAEXwTA1+QQERGFb6nf8i/vDxRral+OXMnBz7vDNmeVEy2Jd0wRfZCdXhe5IYs8/fQvxS2NK5/ptl1DM6531OLTAV8FsBEbQjXSRAzZySglEdGAmgtgNlSvy/SYa+ed0/Duyv4FUS7/HwAb+zitxO++k8UlxxfZDIj68AQA0Qdkeus28fjdGC+u0p+y9QuXczpgX44T1UJYSiIiWhEOwEOA3iImdV0Bz9wLax0AxKu+j34JEB8TABKtvfZGMfACmwUREwBEH50ljJeT2/s7pxf7468ptY59HMDjAM4dZjtH9sLtC6f7KWQ/ANuylRAREVWdpwV6G4zcVgNz+wI7dm4/LzJeBLC3l5EpyyZgAoCICQCiZfA3AaD6Un//lYsXEFcv/oUhZ3Su52r0CyruAKh8CXy2joiIaDDMAXAXVG6Bw43xmQ0vV/bHyUveXpAsujGbCxETAEThJQBgXqr0T1h01tg3AMxa/AuR7dgSZbc3DPbi/QFERESVom8BcrtC70mpubu7teGBgf3x+pKvz2iJ12s7IiYAiCo7SQg2VE8T3FD30kD/yMWvGnwBQNv/EgI4AKIHADgAwAi2KiIiopW2EIq/i8gtorilO/XcQ+8/xz9IC6QX/T0BwAQAERMARMvisLG3t5CpvjLYH2FxQmAGgBkY3ZWq267n0yo4AKp7a9/rBoexkREREX1EAcCDgN4NY26JX1t4B2ZM7KmaJYZx/xHn5wLJOSYAiJgAIFrWJCG6ifiZAXBxTfRqVX2iWfXlbuAB9P06F8ddnInWHPl5QPeB6J4C7KnAcLY6IiJKGgXeE9V7AfM3pHBn/Pbb/6jmV9UV0ftKhFov39QqPAFAtGSfYAiI/ifKtb8JyDoefvQ5cUvjBt7Fe8k7BPYGsD3HJSIiCtDrAO7+7zP8qWcH90j/Kq2R8m8BGOlh7N+IWxrXZxMk6sMTAETvmzC9FpCRnn76V3380B++Q6DujPYNNC17OcVeotgTwGcA1LJxEhGRR3oAPKjQew1wjzG99yyy4+f4XiiF/kf8XCetgwnTa6vpkQoiJgCIqkB2nTXWV5S9/PZZVf4TQh10n9X0Oj7w2kHY6XVZDNvFufKuAtkLwH4A1mZrJSKiKrIAin9A9B4Yc3eMhffCTuwOrZAGeEX7EvPeffS6DddYpxt4jU2ViAkAov+S2p711Bk/J2WDV4KsFDuxuwDcjb5fFwF8bICIiAad98f5V5HHa43e9cEEABETAEQfVIZZ39tdpNNXk1JPH35sYKhtW7fHye6isquI7qaQ3QBswBZNRET94DVR3K/AA5qS+2tRvn+hHfdmEgOhild8TbeXnazHpkzEBADREsTJer6+41YR6AmAFbB4IXb94l8AgDo7c8Oy010F5V1FZVcV7A6Akz8RES17HQDMU+BfInhAnT7gkHqg1Dr28Q/+N8Vkh+gVf+tWeQkgERMARB/ZRvs7OaQcj7V9QLcd8xr6jvpdu5ykwOfh523GRES0+uYDeGzJzf6YJwBRhmYZqyTB676elBTlCQAiJgCIPjw5AOv5Ouu7cs0brMF+SQrsCWAtRouIKCgLATyyxGY/9cyTH31ufywjtbwEgMoc8TQD4AxPARIxAUD04YlNsJ6nTwAgk8IbJVbh6icFrDXp3i23NWJ2VYOdRLEzgE8C2IjRIiLywqtQPKYGj4rDY07dA6WaF55OyCV9FZVOuTd6Pb0smY8AEDEBQLSUDIC3F8eVFtgxb/Obi35grSsBT6Lv1/+c2jU8m+3dScu6gxjdURW7AtgZwFAGjYhocOY+AM8BeEAgjzvIEzW9+Oeis8byRFyFLMQLcyNs3evl/oGPABAxAUC0FL4+D/4mn1mssHPr533gdYT/9f4jBAa6g0J3BLArgG0BpBg0IqJ+UQbwsiieUNEHBObxssoTSzvCX2SsKstah1x+LgAfv01flxVIxAQA0Yet4+nnfp1VNziWdq8AJkyvTa837BMp0R0UbsfFdwvsAGBLRoyIaLneBfBE37P68rik5IkCFjwIO7GboakOCswRPxMAa7P2iJgAIPrglCZAx5o+fnJR8LhjNZkxsacEPI6+X7Pe/+2htm3dXuCTWjafgMG2otgWfacFNgNPDBBRcpQBfQmKp9WYp6DuGYF5pqan9l8Lz65/i+Gp8jUHvF1zMAFAxAQA0QfY3w6Hq/WyP6goEwAeWGjHvQngtsW//mfC9Npow6GbANhSndtRBDvAyZYQfBJ+fstCRAT0fZv/Qt8vfUJgHhfFC92phU/yG32fMwDyBtTLpw5rccrlw3De0QtYicQEABEh05tdG6bX18mY35j4bMbEnvi/i2Tc8sF/Nfy0jhE9tdhSBVsq3I6AvP8owQ4AsgweEQ2yHgD/geIFMXhCnTyOVN94FtuGFxie8KjqW56+CRBRbbRWDDABQEwAMAREgKkpr62eviBIFHNZg2Gad07DuwAeWPzrv48TwM6uyfS+tgVqdFtTlu3UuG2gZgtAN0ffIwVpRo+I+mnLVwTk31C8CMGLAjzrDJ5GrzxdrNnwRdhRvYxRcgjwtrdrvVq3NoCXWYvEBAARwTld29eMtqq8zRpMGDuqtwg8i75f1334X3/w5ACALVXclosfK9gSis0gvHOAiJbwweP6L0DNC//9Jv/x9MuYVV9miKhv0SFv+/riobLjPQBETAAQLSaKteFpBkBT7h3WIH3Qh04OLGnC9Nrs+nUnKuQ8Rooo4Rwmx4vSP8MF9QUGg1ZovSTubfV0wWTUMAFAxAQA0eJNNGQtgZ8ZbYMUEwC04mZM7CkAP4ly+R0BHMWAECV25rs8ntZ0JuNAK9VqDN6Gp49MOuharEEiwDAERIAIRvj62cvgHQC08uIF6e8L8AgjQZTAOQ94LDbdxzMStNKb6LK/jx0KdE3WIBETAEQAAIUO8/Wzp4s1vAOAVt4F9QVnyvUA5jMYRImysGxMPV/FR6uiJpXyd81hZBhrkIgJACIAgABrePrRdWFmnXdZg7QqivaoZwT6PUaCKEnznXy7ZMc+xUjQquhG7O1jh6I6nDVIxAQA0ft8TQAs5CuYaHUUWppmCvQyRoIoAZt/wcWFloZZjAStMjs+7ns1pH9UeAKACOAlgES+JwB4fJtWPwnw7rsnRSPW3h3Q3RKyDXoTMGPFaNE5jBAtj1DBCAMTKVxWREaoYoQoRmjf/SAjAEQAsgDWB3x9Z0jQYgCFxf98F8C7onhXBe+K4F1VLQCI9b+/n3o3ZZByzk0HsG5CYvTPgqR/zKZC/bT2WMe7kd95u9YjYgKAiAkAJgCoH11yfFFs2+HqzINAEt6TrOsqyufHSO+DlvqFK/VH7eyaYcV/D+/J1Ax3veVMjaTqFBppSrLqJGugkULroJIRaB1EMgoMAVxaIENVtBYqwwDUQNH3T8EaAFIAhqPvZN6aH0gy+HpB6fuPJimA9wA4APMAlKGYD6AXggV9/9QFotKj0IWAKQmwCKpFhXRDtCiQbgeJxWhByloQSNyr5W5TkyrWFnvnLchsOm+lT0LZrqFZV7o7QZv/d+HckWipL3HAo6QmABRMABAxAUC0mECHefpe2wWsPeoPBTvu3xmb/5Y4/BkJ+IZbgE9H5eLv4tFdh2FWfXnFN46jehcAb6PvFwZlN2Vn1wyPX/vIUdaeyGQdXPTh308Ba2gZqQ8thRc/AihLvNBLUiiXl5JYNDBxbew+8q74ee8sXIgZE3sGqx7jVYqfNVlXyiuwc0K6tzrI+NK0cS9ypKP+2UjLAi8nCQEfASBiAoDov5OZr1lhJgCo3xRt43WZXP58AZJxTFjkK5kdSmcVgVO9+tx2VO+8/33D/kG8EHQFZHSrcxX4WoKKfE6ppeEa1jz13z7a29OHvASQCLwEkOh9XiYAlI8AUH8nAcxGZ0BxS2IWsopTouaOb7HmkyFqzn9bVE5OUJFvjJ9MN7PmqZ/HTV/XHjwBQMQEANF/t9JDvJyEBfNYd9Sv7KjedCr9TQAvJGg1OyPKdYxi5Ye++W/fB6K/SFCRX6o1pnGlHnEhWpEVk3h7+rCOtUfEBABR31QGSfu5b+EjANT/5tv6d1JGDgfQnZAi1wLalZl81Vas/TBlbPvWEPkjIJmEFHmRUxy2wI6dy9qnSkwTnn7uLKuOiAkAIuCkWRE8vfRMod2sQKrI7sE2PCzQ7ySoyCPF9F4Le8WarP2wDD+tY4Q4uRaJeMNF39Qgqt8utTY+xtqnyjQwWeTpR6/BhOm1rEFiAoAo4dYY7nNG2BRYg1QphZammQr8NEFF3j5ytdfguIszrP1A2K50Ma2zAGyXmDILzi20NnWx8qlyTWzVXsBRFdasiViDxAQAUcL19BS8TQCIKhMAVFHFJ9OnQnFDgor8hWittdpgLedH76lEWrocwP4J2prdHD+Rnsy6p4py8HbtMbSulo8BEBMADAElfh6rNd5OBk7ABABV1qz6cjqVbkCSLgVU1Gd0q3NZ+X7L5PI/haIxQUV+qdbIWF76R5Um4u+XD709KSYAiAkAhoCSTsvi7wkAn4/hkTfm2/p3yqrfALAoKWUWlZMzufYTWPuebv6b8z8QyEkJKjIv/aMB49TfLx9crTABQEwAMASUdKmUx5OB8gQADYye1qZHBPrdJJVZID/L2vwRrH2/ZHMdo0VwSYKKrAIczUv/aMDGRo9PANRCeQcAMQHAEFDSadl5e+GXz5Mw+SeBlwIadWjLNuf3Yu37IWpu30ehbcla3+h5hZbG37H2acDWHurvBcSuzBMAREwAEImp8XYi4yMANMCKZqPToLglQUXOquCatO3cjrVf3dI2vwNErgGQpG/4boyfzExi7dNAKnt8/5CiXMMaJCYAiBJO4TyeDEwva5AGlB3Vm06lvwno8wkq9drGub8OsVeszwZQnerszA2Nw18AjEhQsV+qNaaRl/7RQBOj/ra5FFKsQWICgIhTmbcJAIEyAUADbr6tf8eZVKIuBQSwuXO1N+HUruFsAVXmlMuHlV35egCbJajUvPSPBpHHaw8nTAAQEwAMAZG/jwBAeQKABkfJjn1UoEcB0MQseYGdonTPH2C70mwBVWLC9Nook7lagE8naffFS/9ocDfR8PYEgHr8pQ8REwBE/dYJ/H0EQFLg0U8aNIWWpt8r8LNEFVp0v8gVf9O3B6PB3gdH6w/5FQRfSlYbxLm89I8Gtwl6/OWD4SMAREwAEHmdDXY8AUCDqvhk+lQobkjYmNEQTemwrP3BFeU6zgRwVKIKrbglfiI9mbVPg7x78PjLB8cTAMQuzBBQ4qm/2WBhAoAG26z6cjqVbkjYpYCAIpdpzv+ADWCQNv/NHRMAnJ6wYr9UmzJjeOkfDfrao+zvJYCGdwAQMQFApOLxcbByLReCNOjm2/p3yorDASxM1CJYcFHGdnyFLWBgZWz7YRD9RcKKvcAZdygv/aPq4POXD7wDgIgJACKfNyApp4wCVYOe1qZH1GgDAJegYteI064627YbW8DAyNr858XJTCBRz/GWFTqmZMf9iy2AqkIqxbUHERMARB5volW9nci0bHgRGVWNom36s0BPS1ixhzhn/pqe3LY9W0BlZeyVn1CHawDUJWuOwsnFlqbr2QKoilYfHu8fnGP9ERMAREwBeDwZOPZhqiqFlqafAJiesGKPNMbcFNmZm7MFVEZ20sxNxKVuBrBusqYn/KbQ2nghWwAxAdBfOx/D0wvEBABDQNz/q8eTgbIPU9WJ5yw6Diq3JazYG8OVbx5ir1ifLaB/DbVt62qqfDOATRNW9DtjSX+fLYCqTlm8PX0oPAFAxAQAkc8nAJQnAKgazZjYk07VjgbwbMJKvrVzNTcOP61jBBtBPzm1a3iPkxsAbJuwkr9Qa8zhsPUlNgKqvrWHv18+lJN1Tw0REwBES+dzNriGfZiq0nxb/446PRTAu8laGMunimm9Hie3DWErWE12el2UKV0rkM8krOTvqikfzBv/qXqlPF57CBMAxAQAQ0DEOwCIKqE4relpqPk/AEn7FnOPqC71Rxx3cYatYBVNmF4buSFXA9gnYSXvATC6aI96ho2AqnfZ5PHjh055BwAxAcAQUNI5o2VfP7umJMUapGoWt469QyEnJq/kemA0Yq0rYC3n2ZU1uisVrT+kA8DByWs2cmzc0ngrGwFVeUPlCQAiJgCIfM4AoOzxp0+zAqnaFVsaLhPBxQks+pis2+rnbAErtwOOti9dBmB08kqOC+PWhhlsA1T923/x93ST8XrNR8QEAFF/EGOK3k7C0Ig1SD4oPJH+oSiuS9xCGfL9aErHmWwBKyYzpeMcAN9N3o4KNxSfSJ/MFkCebB68XXsIJGYNEvswUdKVnbcJAOOUzxiTH2bVlwvF4lgBHkve5k7PyDbnT2EjWL6ouf0MUSQxTk/EpfSRmFXPbybJk3WTepwAABMAxAQAQ0DsBP5mgxWGJwDIH+cdvUBN6jAAbyYuByA4J8rlv8tGsHSZ5vz3IJLEkxJz1dUchnPr57EVkD/jmb9fPvR6/KUPERMARP01GaT8fQQAyhMA5JfYjnlJFN8ANGmLMAFwWTaX/yZbwZKytuMbIkjiXQklqDmiOO3I59kKyKulh8dfPhjlCQAiJgAo8QQ9Hp8AAE8AkHcKrY33QDEhgUVPKdCeyeUPZivok8m1H6jOdQJI2htNFIqj49axd7AVkH+baH+/fBA1TAAQ+zBDQOwE/j4CYHgJIHkqbm1qA3B2AoteK8CsbHPnHklvA1nbubdA/gRIEk8ynRW3NuY5EpCnvF17pGpLfASAuPdhCCjxnaBU4/FbAGQoa5C8TQKY5yar4g8JLPoQFXd9bXP7zkmt+7rmmZ+Bc9cBqEta2VVxddzS0MwRgLxtwwZDfP3sNXGaCQDi3ochoKRbVK7x9xEAwRqsQfKWta6YWtQE4J8JLP2IlODmtG37ZNIKnradn3JSvlmB4Qms978XU4uOAkQ5AJCvRGWYr599XrGWjwAQEwAMASXeC1gIwMvFmAA8AUCeJwEmdtca81VAnkngMnod4+S2dHPnjgna/G9nnLsRwNrJq299vsa4r8FO7GbHJ69bMrz98qEXF9QXWIPEBABR0vW9e9nXBRlPAJD3Ftixc2FwMIA3EpkEEHdb2uZ3CL2kmcnt2xrnbgOwfgKb+Vx15uCFdtyb7PHkfQJA1dcTAAtYe0RMABB5PSmIYhirjkIQ24YXjHGHAFiUwOKvaxxuS09u2z7czX/HNmLkNgAbJLB+u8Xg0OK0hmfZ0ykEImACgIgJACLvp7P5Pn5q3gFAQe2S7Lj7FfpNAL0JLP56xpibMpOv2iq4zb9t31qMzgawYQLrtewgYwu28e/s4RQQJgCImAAg8p6fCQA+AkCBKbY0Xa/QYxNa/I3F9N4W2Zmbh1KgyHZsKU5mA9gokTWq+r1SS8M17NkUEmECgIgJAKIAVml+PgIArMW6owCTANMBnJnQ4m8KV74jmty2he8Fydq2TeH0FgAbJ3RemRq3Nv2aPZqCa9m+XuKpfn7ZQ8QEAFFlNtK+TgojWXsUoriloRmC3yY2CWDM7GhSx2bebv4nzdxEnZkNYItE1qAgH7c0TmVPpkBTAF4mAFSEJwCImAAgWjwp+JsAqMNJXVnWIAW4g9L49UUTALk5oQHYDCm9uc7O9O65+azNb6yp3tkAtkzohHJD/PqibwOi7McUnFMuHwZIxstZRZQJACImAIgWTwqQd3z97NnhpbVZgxSkGRN74jg+XKEPJTQC2zjnZvuUBBhyRud66nATIFsltM4eiFPp0ZgxsYcdmEIUpWu9PXmoirdZg0RMABD1TQpw3k4KvWVlAoDCdd7RC1K9+CqAlxM6On3CufJtQ+wV61f7Jx1q29Yt17jbAGyf0Nb6Ysr0HAJbv5Adl4LdOIjxNgEgYAKAiAkAoveX2CreTgqpFBMAFLbus5ped84dDOCdhIZg27KrnT3kjM71qnbzf3rXOr3O3AZgh4TW0dvq9OBFdvwc9lgKWVm8vntoLmuQiAkAosUdQb2dFKQsvAiQgleaNu5JqH4dQJzQEGznatyNw06/suoSfkNP71qnt7Z0G4AdE1o3BTF6WHFa09PsqRQ6UXj7pYMY4QkAIiYAiPqo+DspOMEGrEFKgri16S6BjAPgEjlOATuXalM3VVMSYJjtHFmuLd0M4JMJbZZlARoKtule9lBKRAJA1Ns1h/IEABETAETvS3mcFRYwAUDJUWhpmKWQYxO7+AZ26alN3VV3Rvug9/shZ3Su1+vcbQrsnNT6UJUfFloa/8ieSUnhRDb09rP3lt9iDRIxAUDUNyl4/AgA4O9kTLQqii0Nlyn0ggSHYHtXI7OzNr/xYH2A7KSZm5Rr3F0K7JTcatBzi60NF7NHUpII4O2aI13DSwCJmAAgWqwwL+3vpKCyEWuQEpcEMM+fDGBmgkOwrTq9PZrUsdlA/+BoctsWmirfAWCbBMe/PW5pPJ09kRJH1dcEgC7EJu+wAomYACDqc0F9QYB5Xn52j5/HI1pl1rp4zqKjBLg+uUGQrZDSOzOTOwZsI56Z3L4tjLkTwBaJjTr02ths9G1AlB2REtgDfE0AvAk7qpf1R8QEANF/KfCan4tR8BEASqYZE3sKC9KjAdyZ4ChsKkbvSjfnK34UPz25bXsxchuAjRMc79kF01vPjQQlmJdfOijwOquOiAkAog/zMgGgwHCccvkwVh8l0gX1hbiYPkyhDyU4CusZwS21ze0Vu4yvzrbvYvq++U9ywvG+OC5+DXZ8zI5HSbT4DSRZHz+7MAFAxAQAUSgJAABIZzKbs/oosc6tn5c2qS8BeDLBUVjXiNyetfnP9//mv2035+RmACOTG155psa4Q3De0QvY4Sipyhnx99EfkVdZg0RMABB9iHqbABAxTABQoi2wY+eKwZcAvJTYLSqwpjrcHOU6RvXX3xk1t+/jnLkVwFoJbl7/EVM+cKEd9yZ7GiV6lQSf1xr+rvGImAAgqtjE5vHxMNUtWIOUdAXb+IoaPRDAnASHYSig12Vy7Qeu9ubftu8Lkb8AWCPBM8Nb6vTAgh33b/YwSjzn71pDHR8BIGICgOgjncH4mx0WtzlrkAgo2qbnnDFfBvBugsNQJ8C16VzH11b1L8jYjq/AyV/7EgrJJMA8ozVfLk5repo9iwiAiL9rjRRPABAxAUD0Yerx5KCGJwCIFivZsY9C9WsACgleqWcMtCuby//fyv7JrM0fIU7/BCBKcDNaBKNf6W4d8xB7FNHipYZTbxMAqbLwBAAREwBEH+LKL3nbkYWPABB9UNzadJcaOQJAT4LDkFagK5trH7OifyBqzjeqw1UAahMct5JCDi/YpnvZk4g+QPy9BND0pl9iBRIxAUC0hELti68DWvTxsyuwNaDCWiT6n6Jt+ItAjwLgEhyGGoW0R835b3/s5j+X/y4EVwJIJTheZYE0FlsabmQPIvqA0V0pQLf09NMvXHh2/VusRCImAIiWZK0DzMuefvoh2UlXbcxKJFpSoaVppiqOSXgYUhD8Osq122X9B5lc+wkApid8XaAAvl9oaZjFnkP0oTFix+IWgGR8/OwCvMgaJGICgGgZyz99ydeP7lK927ECiT6q2Nr4SwBnJDwMAsiU7JT8RbD2A3O/SmZK+08EcmHff5PgAClOi1saf8UeQ7S0RQa29Xhx9xIrkIgJAKJlLZE9zhILEwBEyxC3NJ6tgvOSHgdVHB+5rdowYXotbFc6ynV0iMrJHPvlrEJr43nsKUTL2jB4vMYQ4QkAIiYAiJa1//d3kjDwOTtPVHnFqQ2nQXQGIyEN0XpDborKpesBjGE48Mt4asMktguiZVOf1xiOjwAQMQFAtMwZznk7SSjAEwBEy9/pafxE5gcA+Iy3YF8IDmCbwMxYnjuGYSD6WN4mACTFRwCImEnlvvAAACmDSURBVAAgWvYk8YLHH39H1iDRx5hVX47nLGoQ4BoGI9lU8Yd4zqKj+i6AJaJQ1xi9SL3A6iNiAoBoqbq7e55G303QPlp/yBmd67EWiT7GjIk9BZOuF8WfGYzE+mvxvXfGYsbEHoaCaPmyk2ZuAmBtTz++K82reZa1SMQEANHSnXf0AgCv+frxe2vKn2IlEq0AW18qpNKjRXEdg5Ewihvid9/5P1xyfJHBIFqBHXRteWePP/7LuKC+wFokYgKAaDmLQ3na2w6tZmdWINFKJAHee+cIqP6FwUjM5v+mONXDzT/RSpCyfNrjj/8Ua5CICQCi5U90Rr2dLNQoEwBEK+OS44vxwswRULmNwQh+839LvDD9ddjxMYNBtDJdx9+1hQqeZg0SMQFAtFzO+XsCAIpPswaJVtIF9YU4tfBQALMZjGDdFRfc13kUmGjlicDfLxccEwBETAAQfZyU+nxcbFuc1JVlJRKtJDuxOzbpwwDcw2CERu+Iu93BOH/cIsaCaCWdcvkwAFv5+vHF7zUdERMARAPTKZzPk0VtdmhpF9Yi0aokAeoXxgZfAfB3BiOYzf/dsckcws0/0aqJ6mp393m/YEo8AUDEBADRxyjYpv8o8J7HC97PsRaJVjUJ0Dg/LqYPAvBPBsN7f4/j0ldg6xcyFESryBmf1xRvd5/V9DorkYgJAKKPISrAY95u/40wAUC0Os6tnxcX018CcB+D4ek4CDyYKclXFr/alYhWdUUE+LymeJg1SMQEANGKTXgij3i88v08a5CoH5IApudLAB5gMLzb/D+cMekD553T8C6jQbTa/Wl3n8cC1iAREwBEKzZpOPeIxx9/0zo7c0PWItFqsuPfqzXmIJ9PBCWNAI+ke8oHzLf17zAaRKsna9s2BbChv+OBPMJaJGICgGgFO4bfk4bC8RQAUT9YYMfOTRl3AIAnGI1qX+zrozU95f0XnH3U24wGUT9wZg+fP35Z3aOsRCImAIhWSPfC9L8AlP3NAOgXWYtE/WOhHfdmjXGjmASoak8Z0/tlbv6J+nEpIdjX449f6kllnmQtEjEBQLRiLqgvAHjG4wTAvqxEov5NAhiTOhCQZxiNqvNEqtfsu8iOn8NQEPXnWgLefpkgwJOw9SVWIhETAEQr42F/52z55LDTr1ybVUjUf7rtmNdSpvRFAP9iNKplrMPDNT3pfRedNfYNRoOo/ww5o3M9ANt5OzYIHmItEjEBQLSSC0v9h899u5wx+7AWifrXIjt+TqYkXwDwT0Zj0D2Q7ikfsPDs+rcYCqL+5VLlLwIQb9dwDv9gLRIxAUC0cp3DiNeThzqzL2uRqP/NO6fh3dj0fBnA3xmNQRvh7o4N9uMz/0SVWgSJ13cJpVLKJC0REwBEK6eAnocBePv8mEIPYC0SVYgd/14cF78E4E4GY8DdGnfrQbCN8xkKogqtIVR8XkMUul/r5utbiZgAIFrpBX4MwOfXAe4YTerYjBVJVCHnHb0gNosOhuImBmPA/DVekD4U549bxFAQVUY0uW0LQD/hbwn0AcyY2MOaJGICgGilie9HfA2+zFokqiA7sTtOpQ9VlT8xGBUejxXXxabnG4vf0kJEldo+G/MVrz8/hM//EzEBQJTMSURFD2ItElU6CVBfKqY2HA1BnsGomN8V3lj0jcUns4ioopsD/bLfn58JACImAIhWdQNtnNeTiAAHwHalWZNElU4CjOqNn0h/i0mAioxkV8RPpht4pJdoABx3cUYho7xeu5X5lhYiJgCIVlHRNj0H4DWPizAsQrw3a5JoAMyqL8fy3FEAfsVg9NPWH3pZ3DL2aMyqLzMaRJUXrb32PgCGelyEf8dnNrzMmiRiAoBoNVageqffHz/1f6xEogFirYtbGiaq4EIGY3U3/7i00NJ4DCDKaBANUL9z7ht+F0BuZy0SMQFAtFrUyR1ef37V/wNUWJNEA7YC1eLUxpMgaGEsVnnkOrfQ0ngsN/9EA8hao5Cve10Gp3ewIomYACBavWVoytzueRE2yja3f5Y1STSw4qmNUwRyGiOxssTGLU2MG9EAy+ITewLYwOtCpHgCgIgJAKLVVLJjn4Lf9wBARfgYANEgKLQ0nCsqPwbAb7JXZKhS/VHc0jCVoSAaeE7V97XCK7FteIE1ScQEAFF/uMvvjy/fYBUSDVISoLXhfFU9HoBjNJa398APCq1NP2MoiAaDivieABDcznokYgKAqH+mRYjvz5RtU2fbdmNNEg3SZJuSOQBKjMQyV+5Fk5I3GQeiwZFtnvl5AFt4XQg+/0/EBABRvy1NXfkG38tQVtPAmiQaYHZ2TZRrP0cdugBEDMiyaFadXp2dkr8ItivNeBAN+ELH/zWCMzezIolWoLszBEQrJsrlnwWwtcdFeDM2G20EO6qXtUlUeVmb31gdfgdgT0ZjpdwHk6qP7ZiXGAqiAWBn10Tu1VcBrOtxKZ6IWxp3ZGUSfTyeACBaQQL81fMirJvBKwewJokqL8rl91eH+7n5XyW7w5Xvy9j2gxgKosrLuNcP9nzzDxW5gTVJxAQAUb9y/icAIA6NrEmiChrdlYpy+WkAbgKwHgOyykaKk+ujKfmpGN2VYjiIKrg2QADH/0VvZE0SMQFA1K+KC9K3Ayh4PkN+Y/hpHSNYm0T9b4i9Yv1o+9LNACZxfu2nNYoiF21funGobVuX4SDqf8Ns50gAX/O8GN1F9NzJ2iRiAoCof11QXwDg+wSTjWvRxMok6l9RLr9/2dU+CGAUo9Hv9u915jE+EkDU/3rL+i14fkGpALNhx8esTSImAIj6nUL9fwxAdCJrkqifTJheG+Xaz0Hfkf8NGJCKWVecXB/l8mfBzq5hOIj6ZVUjKviu76VwAI//EzEBQFShzbOpuQaAel6MHbK2c2/WJtHqydq2TaP1h8wG5FTOpwO2Zjk9cq/eG9mOLRkOotUT5Tr2A/QTnhdDpSx/Zm0SMQFAVBGxHfOSQh/2vRzqyt9jbRKtzuY/f4Rz5hEAezEaA253dfpANtd+OENBtFoCOBEoD8RnNrzMqiRiAoCoclMN8McASjE6O+nKjVibRCvppK5slMv/Uh1mCbAmA7IslT0oJcCaCrk6m2v/BU7qyjLeRCsnmtSxGYD/C2Cs+QNrk4gJAKKKcpoKYbJJa03qWNYm0Up0Gtv2yeyw4t8RxLdmlSYDs/SHfD8aVnqgzrbvwpgTrUTfqcHxALy/T8MZ80fWJlE1ztBEgYly+ScBbOf15A+8VzTpTWDrF7JGiZbbWySTyx8vkPMApBmPqtQD6Fnxk5lWzKovMxxEy3HK5cOyUeY/Cgz3vCT/ilsad2KFEq0cngAgWhWCP/lfBKyZKfd8m5VJtGxZ27Zp1Nxxm0Au5Oa/qtUCMiXavnRzdtLMTRgOouWMa1H0nQA2/0GsxYiYACDypeM4BPHMmYieiAnTa1mjREtZJDd3HOmceQSCfRmNj1clr0cZpanyI9lc/pusEaKlsF1phZ4QQlFSIr9nhRIxAUA0ILpbG+8D8GwARdkiWm9IE2uU6H+Gn9YxIsq151V0Ji/6W3FV9EzhCAWuinL5NtgrWH9EHxCVe74FYLMAivLkItvwMGuUiAkAogGknYGs2nOwXTzaTAQgY/NfKqb1UUAaGA3vNUWu9slMrvNQhoIIwITptRA9LYwlmOZZoURMABAN7NzjattRNadeV8tmkStys0PJZqfXZafkLxKHGwBszIAEY32B+3OUy7fhlMuHMRyUZJn1674NYIsQlmBQnckaJVo1fAsA0WqIcvm/Afh8AHPp8/Gc7u0xY2IPa5US149t+75w8ptAFsa0bC/AyPjYNtzJUFDi2K505ErPAtg0gNLcFbc0foGVSrRqeAKAaHW2zUAgR9Bkq8z6QyawRilRTurKZnMdF8LJrdz8J8KWcDo7k2v/GU7qyjIclCTZcukHgWz+ARUe/ydiAoBocKR7ylcBKAWRAoBOwaldw1mrlIjFsO3cOxpWenDxbdicCxO07hHISdGw4mNRrmMUw0GJYK9YUwWTAylNqba3l7f/EzEBQDQ4Fpx91NsC/DWM0sg6UaZ0KmuVwl4I59eIpuQvU+fuBLAdA5JUshWgt2Rz+Z/zbgAKXUZrJgFYO4SyKOTaBWcf9TZrlYgJAKJB46C/Cqg4J0WTOjZjrVKQi2DbflDk8BgU3wPvwCHAKHBMFGWeytj2wxgOClFkZ24uiuMCWnVNZ60SMQFANKiK5vm/Ang5lLUCavQ81ioFxV6xZjSlfbo4+StCeQaW+tOG4uSaKJfvGnb6lWszHBQSdeWfAZIJpDgvFM3zt7JWiZgAIBrkzYV1UPl1OKsF1GdyHV9mxVIIss35sZGrfRoqvOSSPs7ontrUv7K5/DcZCgpBJtf+VQH+L5TyCGQGrHWsWaLV7UtEtNrq7MwNnSu/DKAmkCI9F5uenWDHx6xd8nLhO/mqrUR6fwHBlxgNWmmKG6DuB/G0cS8yGOQlO70uckP+hXDecFKqMW6ThXbcm6xcotXDEwBE/aDbjnlNVa4LqEhbR67mNNYs+bfonV2TybWfIKb3EW7+aZUJDoIxj0e5dgvblWZAyDeRGzIZYb3e9I/c/BMxAUBUbQvGXwZWotPSzfmdWLHki2xzfq/IvfqQQC4EMIQRodVtUoBMybrS/dnmzj0YDvJFXfPMzwA4Oawdi5vBmiXqry0LEfUPa03ktn4cAb1aTKEPFed0fw4zJvawgqlaDbOdI3ucOwvA0WBimyrDQfTXtSV3Bl9BRlXtuIsz2REj/qmQTwW0WXms0NKwMyDKCiZafVwoEfVfAsBB5YKQiiSQz0TrD21m5VKV9jkTNbeP63HlJwB8l3MaVXS9pDKhpzb1bCbXfgJGd6UYEqpG0Yi1poS0+QcAVfkZN/9ETAAQVaV4YW07oG+FVSo9va45vztrl6pJ1rbvmXFb3Q+RKwFZhxGhATJCIBdG25f+kbX5zzMcVF3jYv7zAH4cWLFej997eyZrl6j/8BEAon4W5dotIFMCSwI8Hxczu+Lc+nmsYRpMw06/cu3edCqnimPBJPaqKouayQCg4qYB4LfZqzgwAsines2PF5019g2GgwaVvWLNyNU+AGDLsHqZTopbm85iBRP1Hy6eiPpZjdFfAAjs9XmyVSZd+jVrlwbNcRdnsrn2H/fWpp5XxfGcv1bZOwr5aqF17DmF1rHnqJHDFHiPYVm1gRFAU2+Neyrb3P5Dvi2ABnGXLJly+orgNv9Ad22vm876JWICgKiqLX5NTXtwK13BEZnm9mNZwzTQMrnOQ6MRIx5XyHkKDGdEVtlTzpi9ii0NN77/G0Xb8BcY3R3AvxieVc4CrKkiP41c6fFsrmM0I0IDLZvrPFFEvx5g37qCl24SVaRvEVG/b1gmt28rRh5HcEdrtShG9i3Yxr+zlqnS6mz7Ls7hZ4B8kdFYbbNik/42bP3Cpf7bUy4flslkfiuCbzBUq212ysgPF9mGhxkKqvjm33burc7dBqA2sKL1qqvZrjjtyOdZy0RMABB5IZqS74BibIBFmyPGfa5gx/2btUyV2fjP3NBpuRWKb4En1VZXWRSTC60N5378LdoqUa7jDAAtjPtqcxD5TUpKzYvs+DkMB1VknWFnbg5X/geAdQMs3pVxS+O3WMtETAAQeSMzuWMbMfokArxgS4GHi91ub5w/bhFrmvqN7RqadT3HKHQSgGEMyGqbr0abivb/27vzMLuqMt/jv3edqjrnZCDMowjYgWbmKiI3wFVRVAabdkgiqSERQQIqNHCRIUkVm6owipfGiEwNgdQQrMjQKIIaSDcNQqOozAECLcisZICkzjlVtdfbfwTltiAQUsMZvp/nyVN/5Enq7N/aZ+213r322i03r1Pf1dZ1iEndkjYiwvXWJ/m8Yil7LpuoYuj7y9Ld1fbKvzekHtJdS8mMJ2hogAIAUFGqeBWA3O2m0tL6yVo0NaWlsV6O/142v+HGx7lptqRNCWRILu4PxOCTS0nLsvfz77PJtTtZzFwvaXfSHJIe84/uYW4pU3+Zkqn95IH1MqU3k9+ldKPL/qFKj5C7/8AwYokfMJxDvtQSSVU5QTbzL+R26b9KcgqJeL/fEMu3dU/JbbTRI266iMn/kOkshDX7vd/JvySVkhlPFMPAPpKuJM4h6TE3M/OLc7H/yVxr9zGa0surF/G++83crgOXVfHkP/WQ8to/YDivSEQADK9cW1ePpGnV24vYOcWzmmbT0liXAWxDW8/hGcX2Kl2+Olr65PbNYkfTNUPbh3UfJfk8SXkiHqJvgPQ7KbSV2ht/TBpYF9m2rgtM+nYVHyJ3/wEKAEBla0h6dg4xPiSproo7klMK7c3fpbXxHgavh5isXfKPksaQejy6pvR3ND80HP95fWvnXhmzRZJ2JOohdZ8HP7OUtNxGFHg3+dau0910bhUf4oAH33V9Vi8BoAAAlIXcmV2XynVsVR+k++xiRwvL9vD2A9ek5wCP6Vxe6TcMXz3pxlIY+JqSI1cO6y869arxuVz2SklfIfUhd48rnMuKAPztyX/3KW7+neqelNjFhfamE2ltgAIAUPHGzurZIq2LT6rKdzY31xmFjubzaHH8Wa6t69OS2iR9nDSGfOpfctcppY6W74/kb822df6TyS6Q1EAbDHWT6t9k1l5sb1pCGPhLP9raPUfmHVU+IVlVF8LE15PGP9HiAAUAgAt4ZY1gzyq2tyS0eE3PYizbtvDzpjhb0r7kMSyWhRCn9SXTfz0avzyfdH/Moy+U9CGaYljc40HnlJKmWyRz4qjhscOZXR1yzan6CYnrtEJH8wW0OEABAKgeJ/Xmc+P7l0r6YA10LfOLL62eqStmDtDwNSRJQjbudJgpnilpbwIZHi67vhT6jx72Jf/v5tSrxufy2cuq9VWnZTJIe8jdLywuzXbzytVa60+X1OX8+XlV//jgWs8VX2/YSRdNLdDwAAUAoKrkWru/KvP5NXK4txZDw1QlU1fT8tU+UJ2fy6UN02V+itgkbjitkeuEYkfz1eXVr3UeLbOLJY2hiYbN43K/sLhyRafmnVAijmrvU7s2yKVaJNNna2Q60lxsb+qm4QEKAEAVXtSTkI0Tf2XSR2rhcF3+W0vDF4tnNz1D41efccmCzQejfUOy4yRtTiLDebH2B9PoR/TPnf5YOX6+hqRr10zUdS7tQWsNq5clv6Q+ZC7lWenqlEsWbm8xvcmlvWrkkH9VDMv+t5Ik0voABQCgKo1p7donmu6VFGrkkF91WVOpvelntH51yCadE4Pb8e46Wtz1HQmdxbDmWCUz+8r6Uybzc3mvP99dJ9Bkw81LkvXGoPP6k+ZHyaNKJv9t3QdKfp1qp6AaLdikQtJ0H60PUAAAqvsiXwuvBfyfUrm3FTuaz2VDqwqVJCGrHQ+26N+SdDDXjxGx3OTHFNpbrq+kD51v6/yyy66QtDFNOAITKOnWGPz7JT31c+6iViq3XGvPbJmfpdq5OSCT5hXamykYAhQAgOo34fTujUoNvlS1tmzatdgyOrKQND/HWVAhTuudkGsY+IrMT5S0C4GM2HzgDsv4jEr9roxN5m+ZxvqrJR1CY47YSfOUKVxZNzD4L6+fO+NV8qig70pad5XMDq2xQ3+pGAZ2GfXNTAEKAABGSq61c7rMrq3BQ19u0jcK7c0/5CwoX2OSBR+NHo6Ta5qkPImM2CSuZK5ZhY7miyp+tUyShHy648luca5kWdp2xPTJrCdYvLQvafkNcZSvfFvnNJddImmjmpuAuE0rdDRdx1kAUAAAammgb7m2riWSfaJGA/hhGPST+s5peZFzoTxskPRuXIr9TUE6qoY2oConD8cQmvqTxger6aDqWzv3yph1S9qNJh7hq4z8t5Jdleu3nlXnNa0gkfIwZlbnVrHOLpY0pUanH78otjd9ljMBoAAA1JyGpGfnEONvVKN3WE1aFd3nlJZmL+Ud16MkSUIuTjxQ0lGSvigpRygjP09z08UlGzhDyZHFqjzCk3rz+fH957v0LcYeo6Io+fUKfnUxaVnCXiyjZEpvJrtz6bhgNtelCTWawhqPdXuV5h7xFCcEQAEAqEn5tu6TXP7/arwr+rUFO6mQNN7FGTEyGpIFu4cYGiU1StqOREbN8y4/stTe8otaONhs0nmwRbta0lY0/aj5vcx6YrSe/o7GR4hjhK71Sc8BHv0iyT9ayzm49K1Se/MlnBEABQCgdiVJyKUTb5fpkzWfhWtxKj9loKPlAU6M4RiAdn0gRv+yyaZI2p9ERt2i+oH0uJrbsC2Zv2HO686X2zGcAqPuUckXKYQFxaTpaeIYeg1zFuwSQjhLNbvc//+/xtsdxY7Gg1iBAlAAAGpebs6CHRTCg5LGkYZSmTo99fNKc1seJ471PLeShdtbOvglN/uSpEmqoVdMlbFXLNhxhaTphloOId/WPcXlP5C0KafEqIuS7jbXDcrEGwrJ9GeJZD0n/knPzsH9DLk3ScqQiF5TansWz256higACgAAJGXbOmea7DKSeHNAaq6fKqOzC0nzvcSxDpP+OQt28GCHv3Gnfz/6+rK66N5ig/51Nr9ca1yyYPOBGC6ztftPoHw8KvmiGP2H/XOnP0Yc792Y1oUfjpaepLWPVzHx/zPXUcWO5qsJAqAAAODNq6Pl2rpvlfQ5sniLO811eWHl8us174QScfyVZH4uq/qPh2iHunSI5DsRStlZIdnxxfambqJ4q1xb1wyX/tmkDUmj7Dzu8p9KurW0YsWd9MFv3wfn0vrJMp8p2QEE8pbJxi2F9ubPkwRAAQDAXxk7q2eLtC7+VmyQ9bf8yc2vcfNr+5PpD9dyEA1Jz86Wxk8F6RA3fUrSGE6PsnWrpenXC2fPeJ4o/rb87IXbeia9UhRBy9kak98RFW5VjHfU+mNaDa1de1iwr5r7DEmbcHq8rRfqQvzw6mT6K0QBUAAA8DZyrT2fkMXbxdLBd7N2iWrIXNefNC6t9oMdkyzc2mPc3y0eJLeDJX2QU6C8ubTS3E4rdjReyaZX61AIWLs3wKVMqCrCy5LulNviKLu7Ft4qkEsWbu9x8B8lm27SRzgF3lEq6XPF9ubbiQKgAADgHYsAXW0ynUUS79nTMl9sHhYXQv2tSqauruijOWXB2Py4ug/HmO5tsr0lHSBpB5q5gi6urp8opsdy1//9GTurZ4vBTPy+mSaTRkV50Vz3u/n9rsz9uX6/a9V5TSsq+ohO6s3nJgzsrxgPkuwgSXvTzO/ZrGJ787nEAFAAAPBukiTk4o63Sf4ZwlhnfZL+U6a73eyerOrvfS2ZurxsJzrJ/C0HVb9niL6Xy/Yw6X+5tKtYAVK5EyDpm4X25huJYv29sRpgnqQtSKMipSZ/xGUPmNuD0eIDdYOZB9ec0/hyuX7g8Wdcu0l/NjPJ3CYp+n4y7SspT1Ous1uLYdnnlSSRKAAKAADeg3HJgs0HY/itpK1JY724pKfc7WEzf8Skhwbdlw70Z3+v86euGokPMOH07o0G6sP2bnGiyyfKNFGuiZLvItlmNFHVXFGvyZbs5Iq/41mGE7KB+sxFklpIo2q8IvljkpaZ2zKZPWUelvVliv+l5MiVI/IJTuudMDY/sENMtbOb72mu3dy0u9autmJ8vH6eqw/hw68njX8iCoACAIB1kG/t2t/Nb5csSxrDYoVLzwTXsx78Jbm9am7LXb7czF6PIb5uCoNSHAxpeF2SlEktKrPhm52ob+jRJpjHCW5hQzOf4PLN5baN1m7muI24e1Ttnvag40pJ88+JYvhk27oOMekHkrYnjapWkPS8pBdl/rx5eNnNV1n0VW5hlQVf5bK/FAmC0pVKMy5JMRPHS6HOo9cH2Th3H2+yjT34JnJtYq4toumDkrbnjRPDpmhBB/L6XoACAID3KdfaOV1m15IEUHYGzfSDgjXMrvh9JyrFSb353PjSaZKdIamBQICy4nJNL3Y0dxEFQAEAwHrItnVdYNK3SQIoG/cHt5l9HU33E8XIa0h69gwxXiZpEmkA5TKrsHOKZzXNJgigvAUiAMpfKSw73Vw3kwQwyuNbaZXLTyw+1rAvk//R0580Plhsb9pfa9+/vpxEgNHlbjcV7clWkgAqYiwDoCIkvePysXS3y/YkDGAULpiunyij4wpJ83OkUT7GJvO3TGP9BWKTQGB0Jv/S70qh4f/wKBRAAQDAEMslC7dXTO8WbwYARtLjLj++1N7yC6IoX9m27s+Z9D3JdyINYMQ8Z2lmv8LZ0/5AFAAFAADDoKG1Z7dg8U5JG5MGMKz6JP9OccWKczXvhBJxVIBjLq/PbjnmGybrkDSeQIBh9WoM+nh/0vwoUQAUAAAMo3zrgn3dwmJJ40gDGIaLo+snysRvFpLpz5JG5RmTLNw6xvQ88VgAMFz6LPhnCknLL4kCoAAAYATk2ro+LfktkmVJAxgyj3vQCaWk+edEUQX9ZNL5SUWbJ2l30gCGTL/LDi+1N/2MKAAKAABGUL61+wg37xZv9ADW13KXt5fCBy5RcuAgcVSRYy6vz2859oQozTFpQwIB1ktqQUcUkuYfEQVAAQDAKMi1dh4ts8spAgDvy4BJl9UNpGe9fu6MV4mjeo07o3eztL50lsu+LqmORIB1n/zL7ehiR9M1RAFQAAAwivJtndNctoBBLbAOXIujdHJ/R/NDhFE7GpKenTMxXujSYaQBrMvk379W7GhZQBQABQAA5VAEaO2c6mZdkupJA3hHj3vQKaWk+SdEUbtySfdBin6R2B8AePfJv2xGsb2pmygACgAAyqkIkHRN9qgeigDA23rFXWeVMttcwXP+kLT2tYFbjJlppjbJNiMQ4C36Q/Cv9CUtNxEFQAEAQBnKJp2HW1QvbwcA/mK15N8thuyFSqauJg68xalXjc/lct+W/GRJYwkEkCQVXT651N5yC1EAFAAAlLF80rmfR/tXSZuSBmrYgMznZ2zwzDXJkS8RB97N+KRn04GYniLpRIqoqHEr5OGLxY7GfycKgAIAgArQkHTtGqJukbQ9aaDGuKQfefBZpaRlGXFgXeVmd2+nujhLbkeLN6yg9vxXDOHQ/qRxKVEAFAAAVJAxszq3inX2Y0l7kwZqxK0h+Jy+pOU3RIH17kNbu/aJ0lyZPksaqBH3ZQbD4WvOaXyZKAAKAAAq0SkLxubz4To3fZ4wUMXuVvA5xaTl34gCQy3f2jPJFdtlOog0UMWTgn8thDWNSmb2kQZAAQBAJUuW1OXjCxe6/J8IA1XmP+ShledUMRJybd0HSt4haX/SQBVxly4sPdZwhhZNTYkDoAAAoErkW7uPcPN/Ebtco/Ld6wrnlNobf0wUGPG+NOk5wGM8W9LHSQMVbrXJvlZob1pEFAAFAABVqCFZsHuImesl34k0UHn8Lg86u5S03EYWGG3ZpPtQiz5LrAhAZVoaY/xS/9zpjxEFQAEAQDU79arx2Wz2ajNNJgxUiLtd4Xzu+KMc5ZOeA5TG09x0GGMrVMQEwHVzob9hus6fuoo0AAoAAGqCW7615/+6+dmSGsgDZSi666aM7Jy+jqb7iQPlbkxr1z6pbJaZ/yNjLJTptb9krlmFjuaLJHPyACgAAKgx9a2de2XMuiTtThooEwMyWxjNz+9Pmh8lDlSatY9a2emSTZVUTyIok0H/Q2kIzf1J44OkAVAAAFDLkvm5XKxLJPu2pEAgGCWvmekaDWYuLJw97Q/EgUo3Npm/ZRrrjpXsBEkbkQhGiZtpXmH58lM174QScQAUAABAkpRPOvfzaJ2SPkQaGEG/N9llhdB/uZIjVxIHqk7SOy4bS0eZ7CRJ2xEIRtCzkn212N60hCgAUAAA8DYD1fkb5mL9eZK+LlYDYHjdZ+7fLSzNXs+7p1Eb/euSunz6wmQ3P1nSPgSCYRRNfnmhlD2Djf4AUAAA8K7GJJ0fidEuY5CKoeUlyW5WsCuKSdNi8kDN9rGt3XvHEI+RW4ukPIlgCAf3Dyjo2ELSfC9pAKAAAOC9S5KQS3c8WubfkbQBgWA9vCD5lXUD2UtWnzv1j8QBrDUuWbB5GjNHuvxYSduTCNbDGpN1FMLW31Vy4CBxAKAAAOB9yc++dpsYMv9spsmkgXUQ5VrsGb+k9Ej2Fpb5A+9gSm8mv0v/4e76hkyfZoyGdeGuH4WYnlg4e8bzpAGAAgCAoSkEJN0f89TPl+mTpIF38ILknR7rryzNPeIp4gDWsa+dvXBbZWKjy48Tmwbind2rYKcVk6Y7iQIABQAAwyKXdB9k0S90aS/SwBtSuZaY2RWFsPWNLD8FhkCShJx2/JSiHyPpC5LqCQVveMxkZxbamxYRBQAKAACG35TeTG6X0nTJzpK0LYHUrIdNuiYTYufqZPorxAEMj7GzeraIdel0l82QtBuJ1Kxn5XZmcWl9J49VAaAAAGDkJb0NubR0hMzOkLQzgdSE58x0gywsKiSNdxEHMLIaWnt2C5ZOkaxF0odIpCY87fLvlcLg5UqOLBIHAAoAAEa5EJCEbNzpMFOcLWlfAqkuLq006ccKtqCoJ+9QkkRSAUa/381rp/3kcYq7T5NsM0Kpur73d+Z+UXFptps7/gAoAAAoS9m2zs+Y26nsZF3xXpXsZg9+Q0kNP1cytZ9IgDJ1/Pey2Y02/awpflnSP0jamFAqed5vixV0QTFpWkwcACgAAKiMQsCc7h0txKMkfY07UxXjT5JudYVFpZdev01XzBwgEqDCTOnN5HcbnLR2ZYAmS9qaUCpi1r/SzHuj+bz+ZPrDJAKAAgCAypTMz+XS+skynynZAQRSdh5185+GaDcVMsvuYXk/UE3979rHBGKMXzDpMLFXSzn6D8kuL6549Uead0KJOABQAABQNRpae3YLITbL9RVJO5DIqFhj8jui208tk7mtmEz7PZEAtSE3Z8EObuGQYDrUpQMljSGV0eBPycIPo3l3f9L8KHkAoAAAoOrlk+6PxRiPMNkUSR8gkWETXXpQZnfI422lFSvu5C4TACXzc9nY8AmZHxzcP+WyPRgbDqs/uNmiTPTr+jqaf0UcACgAAKjRQWgScunf7e8hfMHcD5G0C6GsF5f0iElLJC2pDw3//loydTmxAHgn45OeTQdj+glZ+KS7HyhpV8aK6+1RN7stmN1Y0BO/5BErABQAAOCv5JMFH/Q0c7CbH2zSpyVtQCrvqCDpN272n8H8nozinauT6a8QC4D1MXZWzxaxzj8eFSeZbF9JH5GUI5l3HFiviq7bzXSbhfizQjL9WVIBQAEAAN6rZEldLn1ukswOMPkkl02StGkNJ5JKelJm97n7fRm3e/teXv0gu/UDGHbHXF4/Zuv8XmkM+5q0r6SPSdpRUqjdUPyP5naPpHuUCXcVtNW9Sg4c5GQBQAEAAIZIdk7n35uFSTLfz6W9be0jA/kqPNTlkh4w00Me/aEge6Avs+YRJTP7OAsAlIVTFozNj8vs5tH3MmkPd+0h016SNqrCoy249JiZ/1puv/SQ3lNKZjzBSQCAAgAAjKQpvZns3w98KNRpD49xN5ntLteukv6uAgoDa0xaFmXLTHGZXMuU0bKguif6kmkv0LgAKlF+9rXbeKZuJ8knummioiYG84kum6jyf/NAQdJTMj2qaA9ZRo/GQT1Uerz+aS2amtK6ACgAAECZGjurZ4vY4Nspaju5tlPQdnLf1qWNJW2iN3/WD+GvdUkrJa10aZW5v6BgL0l6zqNelIXnM2HwRfXb833ntLxIKwGoJWOShVsrTbdJM76VYtjGzLeU27byuIWbbW3SBEkbvvFnKMeqA5Je1drVVa/a2p/PSnpGQc9YqmdCJj7DHioAKAAAQLVLujbIKbNxSOMma2fwnvOM5SXJ4v9cyhoV+yyEv7xGL6S+ajATC5mB+lWF+nSVkubXCBQAhqZvzitumKZhQp2Uixmb8Oe/cnkuRHtzlVdwd9lKSbLUCyYrKhM9qm55sa/vVV1w1OsECgAAAAAAAAAAAAAAAAAAAAAAAAAAAAAAAAAAAAAAAAAAAAAAAAAAAAAAAAAAAAAAAAAAAAAAAAAAAAAAAAAAAAAAAAAAAAAAAAAAAAAAAAAAAAAAAAAAAAAAAAAAAAAAAAAAAAAAAAAAAAAAAAAAAAAAAAAAAAAAAAAAAAAAAAAAAAAAAAAAAAAAAAAAAAAAAAAAAAAAAAAAAAAAAAAAAAAAAAAAAAAAAAAAAAAAAAAAAAAAAAAAAAAAAAAAAAAA8N78N926c9XmFardAAAAJXRFWHRkYXRlOmNyZWF0ZQAyMDI0LTA2LTE5VDE2OjA3OjA5KzAwOjAw3ZJbfQAAACV0RVh0ZGF0ZTptb2RpZnkAMjAyNC0wNi0xOVQxNjowNzowOSswMDowMKzP48EAAAAASUVORK5CYII=;" vertex="1" parent="1">
          <mxGeometry x="801.61" y="160" width="86.78" height="80" as="geometry" />
        </mxCell>
        <mxCell id="y6cjsjqeQ_f7NjafJzEn-7" value="" style="shape=image;verticalLabelPosition=bottom;verticalAlign=top;imageAspect=0;image=data:image/png,iVBORw0KGgoAAAANSUhEUgAAAlgAAAJYCAYAAAC+ZpjcAAAABmJLR0QA/wD/AP+gvaeTAAAACXBIWXMAAA3XAAAN1wFCKJt4AAAAB3RJTUUH4AQBDhgQAp7VsAAAIABJREFUeNrs3Xl8HGdh//HP7C2t7sO6rJVv+ZSdw9jkIk3Skh9QCIEEXKBB5SoBF0JLCVfLfUNbQtOkl+gBoqRHEiAcSZOGnM4msSPLp3zKtu77WGnP+f2xsiLbOnZ07Ur6vl+vfdnanZmdfWZ25rvPPPM8ICIiIiIiIiIiIiIiIiIiIiIiIiIiIiIiIiIiIiIiIiIiIiIiIiIiIiIiIiIiIiIiIiIiIiIiIiIiIiIiIiIiIiIiIiIiIiIiIiIiIiIiIiIiIiIiIiIiIiIiIiIiIiIiIiIiIiIiIiIiIiIiIiIiIiIiIiIiIiIiIiIiIiIiIiIiIiIiIiIiIiIiIiIiIiIiIiIiIiIiIiIiIiIiIiIiIiIiIiIiIiIiIiIiIiIiIiIiIiIiIiIiIiIiIiIiIiIiIiIiIiIiIiIiIiIiIiIiIiIiIiIiIiIiIiIiIiIiIiIiIiIiIiIiIiIiIiIiIiIiIiIiIiIiIiIiIiIiIiIiIiIiIiIiIiIiIiIiIiIiIiIiIiIiIiIiIiIiIiIiIiIiIiIiIiIiIiIiIiIiIiIiIiIiIiIiIiIiIiIiIiIiIiIiIiIiIiIiIiIiIiIiIiIiIiIiIiIiIiIiIiIiIiIiIiIiIiIiIiIiIiIiIiIiIiIiIiIiIiIiIiIiIiIiIiIiIiIiIiIiIiIiIiIiIiIiIiIiIiIiIiIiIiIiIiIiIiIiIiIiIiIiIiIiIiKSOENFICKJ2r59uwMoAIqAZSOPNMA1Dw8HEAKGgeAc/9sPtALtfr8/qi0vIgpYImI1NGWOBKWxoeniv8//P2+JHTdiQMdI2GoFWsb5//l/OxTGREQBS2RxhyYb4APWTBCUxv7tUYnNWhhrTzCMtfv9flNFJqKAJSKpGaS8QCWwfuRx/v/rFJxS2hBwBDgMHBrzaPD7/UEVj4gClojMX5gqA1478qgaCVJlKfI9DgIRIDrm3+gEfycyzWR/x4B0IGOCh3cBH9uiwIkxwWs/8Izf7z+pb4CIApaIzDxMOYHLxgSqq4DyeXjrAHAO6AS6gO4x/3ZP9Fwq1bps377dmCKAWXnkEL+MmuxjZTPwzJjHXr/fH9E3RUQBS0SmDgYbgNuBm4Armf1LfMPAWeDMmH/PjP3b7/d3aUtcsl1cwHLibdp8I0H34v9nzvNqBYAXgKeBh/1+v19bSkQBS0RePXmvBd4xEqy2zNJiG4EDQP3I4yBw2u/3t6vE52w75kwQvM7/fznxbibmSgNQC/zY7/cf0RYRUcASWYon4xLgjpFgtW0Gi2odE6LOB6oDfr+/T6WcctvcBpSME74qR/aBZbP4di+PhK0f+f3+ZpW+iAKWyGI/yXqAPwXuJt6+x6rTwOMjjyf8fv85leqi2TdKR4LWNuJt77YBq2d4jB4CvgJ8x+/3h1TKIgpYIovxBHo78C2gwsJsLcAT50OV3+8/oZJcUvtMJrB1JGxdDdzA9Gq6jgAf8fv9/6tSFVHAElksJ0kf8CPgmgRnqQf+Gfi13+8/qBKUMfuSQbyd3o0jj+uw1rj+34H3qTZLRAFLZKGfECuBR5m6e4VB4CfAP/r9/udVcpLg/uUAXkP8rtNbiF9anMp/Ae/QkD4iClgiC/Xkdxnwa6BwksleBP4BqPX7/f0qNZnhPncl8AHgD5i8jd8PgT/SUD0iClgiC+1Edw3wcyB7gkmeAXb7/f69Ki2Zg/0vA9gFfJB4f2rj+b7f7/+YSktEAUtkoZzcbiZ+GSZ9nJeHgc8Cf+33+2MqLZmn/fGfiXcRcbEv+f3+v1QpiShgiaT6yew24g3aneO8/DzwXnUCKUnYLwuAfwTeMs7Lf+r3+7+nUhJRwBJJ1ZPY+4C/B2wXvRQBPke8LyI1LJZk7qMfAr4PuC56qdrv9/9QJSSigCWSaieutwD/M873KQa8x+/3/1ilJCkUsu676OlhYLvf769XCYkoYImkyglrK/FG696LXjKBD/j9/n9SKUmK7bM1wHsverp+JGQNq4REZodNRSAy7RNVEfCzccIVwJ8oXEmK+jBw8R2sm4HvqGhEZo9qsESmF648xIex2TnOy5/y+/3fUilJCu+/K4CXgLyLXnqz3+//mUpIZOZUgyUyPf80Qbj6ksKVpDq/338KeBfxdoJj/fP27dtLVEIiM2dXEYhY/vX/OWC8Thq/4/f7P6MSkoWgqanpWFlZmQn8zpin04FtZWVl/9bU1KRCEpkB1WCJWAtXbwO+NM5L9/r9/k+qhGSB+Srw7EXP3Qj8qYpGRAFLZL7C1UqghkvbLv4Y+KhKSBaakREF/ggIXvTSF7Zv316uEhKZPl0iFEksXNmAh4C1F730EnCL3++PqJRkIWpqauosKyuLADeNedoFLG9qanpAJSQyParBEknMnwHXXvRcO/BW9R0ki8B3gJcveu627du336iiEZkeddMgMoXt27dXAX4uHGIkAtzk9/ufVAnJItnPt47s52PH0jwEbPX7/WGVkIgClshsnnRcwIvAlote2u33+3+gEpo9Ox543gYUAqVAwUiIDQOhi/4d77nQntt2KgTMfH//MvGxM8f6pN/vVyekIgpYIrN6wvkWcPHdgTV+v/+PEpl/165dBpA7EhyWjTwKgF7gGHCstra2ZwmEp5yR4FQKlE3w/xLAMYO3MYEu4pdux3u0XfR3x0IOZbt27XKPlN/ykUf5SBl2A2dGHo3A2dra2kELPyj2AhvHPN0PVPr9/mYdEUQUsERmI1xdR7y39rFtFV8ArvP7/cEJTnpe4o2F3wj87siJb6rQ0Hk+bI2833/U1tYOLMAQlTVyYt405t/VI+EpPUVXuxM4DBwYeRwEDuy5bWdKholdu3ZdCbwHuHUkXCV6DO8CngP+C3i4tra2c5L9/ibg0Yue/pHf73+3jgoiClgiMw1X7pET7uoxT7cCV/j9/nMXnfRWjQSqNwGvA9wzfPt+4CfAP9TW1vpTMEhljxOkNo6EycWi+3zYSnbw2rVr1wriva6/B6ichUVGgSdHwtaDtbW1TePs/78Ebh7zlAlU+f3+eh0dRBSwRGYSsD5DvBPGsSeY3/P7/Y+NOfFVAV8AbpnD79IrwD8A911bW2veeenQJnMdpnKI9/R9LfEBgTcSrzlZqrqB/wN+Djyy57adLbO58HvjtaWvAd4AZNbdeONrepcte+0c7l8m8Avg7tra2gNj9v8twD4urL39qd/vf4eODiIKWCLTDVdlwBHAO+bpe/x+/5+MBKuNI8Hq7fP1HbrikUdC6b29xpiahx/eCbPePcSOB573AFcTv8x5I3AF6s5lsnDy0khA+Tnw0p7bdpozCFZ/APwlsOb88y++6U0MZWbOx2eJEu9E9y/P12ht3779n4HqMdPEgM1+v/+QNr2IApbIdALWj4FdY546Aly2Zs0a38gJ8B3zHTq2/frXZHZ1jX2qEfgs8KM74yf66QYq+0iIunEkVF0FeLQXTEsL8MhI4Hp0z207+xMMV78PfAtYf/FrdTfeSO+yZfP5GQLA94BvHTt2LAtoANLGvP5jv9//Lm1qEQUsEavh6lrgt2OeihiGcc3q1auvBb7OzO5ym96XNBbjqgcewBYb9+rgS8A774w3kE80VFUSb4B/I3A9kKMtP+tCI/vRQ8C/77ltZ884wcoOfJNJxv07fsUVNK1bl4z1bwc+fOzYscuBsQOYx4ANfr//qDaxiAKWSKLhyj4SWLaef85ms3171apV64nXMiRFZmcn237zm8km6Qbecic8NUmo8gLvBD4EbNfWnlcB4uNV3rvntp17xwSsTwDfnWzGDp+PQ1dfnbQVj0Qi3zt16tR7iHczct6/+f3+P9RmFVHAEkk0YN0J/O2YcHVk5cqVaYZh+JK5Xiv37mX54cNTTXYE2HRnvC3N2GC1dSRUvQvI0lZOuueBe2/45icfKX/xqeNA9mQTx+x2nnvb24jZkzdsbFdX18Gurq6x/WJFifeLdVybU2RiDhWBCGzfvt0LfHH0l4dhhJcvX77aMIykfkcM02TZ6dOJTFpJvJuIh3Y88Hw68XZiHwJ2aOumlJ3AzgNvfldL+YtPZU81sS0aJf/cOdp9ycv4ubm5G/v7+8PhcPj8EDp2YDfwcW1OkUm+vyoCEQD+mHgP6wDk5eU5XS5X0n+A5LS04BoaSmjanvJV1+144Pl7gCbgnxWuUldaT2dxotMWNDYmdV0NwyA/P9950dN3bN++PV1bUkQBS2RC27dv9wB/dv5vl8tFTk5qtPtedvJkwtOe2X7dJ4CPMsVlJ0m+wfyihKfNa2rCHokkdX0zMjLweC64uTSHeJs+EVHAEpnQB4DRGoXCwkIMI/nNE+3hMAVnzyY8fXf5Km3JBaLbtxoS3Mds0Sh5TU1JX+eCgoKLn/qwtqSIApbIJe4Fxz0225+89vTpr21uaRn9pZ6WlpYS61dw5gy2aDTh6dvXbdZGXSAinjRaN2xLfF9I8mVCAI/HQ0ZGxtinrty+fbvuSBWZgBq5y1INVzcCP7DHYuvXt7UB8Tu2AitWpMw6Ljt1KuFpO9ZsZGBZqTbsAnLi2tdTdHBvQtOev0wYdST3kJ2fn8/g4CD2aJT/d/gw2cPDT1XHx2n82GTdhIgsRarBkqUYrm4BfsVFPWdv7OjA4UiN3xyegQFyWlsTnr7hht/Xhl1gTr32RmIOZ2IH6miUwsTuJp1TTqeTzMxMrjxzhoLBQZzRqBu4DHjyXrj/CzqniIxSDZYstXD1RuA/xtv3naaZMuuZQL9XoyJuDyev+T1t3FmU63ZSmOYkz+Mi3+OkwOMky+VgKBJlIHz+EaE3FKWhZ5CBcNTye4S8mZy9/Cp8LzyZ0PSlR4/Ssnp18ssmN5fCwcGLnzaAD44M6vMh7UEiCliytMLVFcQHSnaN93qy79QaDXrBIEUnTiQ8/enX3kg4zasNPAPF6W6uWJbFlYVZXLEsi2VproTnjZlwoi/AKx39vNLRz76OftqGQgnNe+LamxMOWN6eHrLb2uZ7bMJL90+nk7SJ2wZ+8F7ouDM+TqaIApbIEghXLuCHgHuiaYayUqOj89KjRy01btflwelZlubi1tVF/F55PqVe97SXYzNgTXY6a7LTedvqIkzghdZefnqshWebeyYdifvsFdcQSs/AFRhIeN9IdsACsE9+B+Rn/hZe+gj8t/YyUcASWfw+D0x6m11fYWHyT1yRCKVHEx9Ht6/EZ+luNLthUOx143XYSHfYSXPYSXfYSXfYCESiNAdCtASCdA2HF+2OUJWfyTvWFnF9Wd5UQWFaDGBHUTY7irI5OzDMA8db+fmpdgbHuYwYdTo5vfMG1j7+cELLzj97FncgQDA9uX18BvLz8UzShYgB3/8nePR90K9DjyhgiSxS98Yb4d491XS9l/bzM++KTpzAEQolPP1UtVfF6W425WWwOc/LpvwMKnO8uO1Tt0MORWO0BEKcHRzmhdZenmru4dzA8ILeDy4rzOLjW31U5szf5dTlGR7u2lrBHZWlfO2lkzzd3H3JNCeuuznhgGWYJiUNDZzaujWpZdmXn0/e5H20lQXhS8BdOgLJUqXBnmUpBKyHgUmTSNThYM8ttxB1OpP3ZTRNtv/sZ7gvbUA8LtNu54H7HmYoJ/+C50u8bt68opA3VBRSlO6atfU73T/EU009PNPczSud/cTMhbH9s1wOdlf5eNOKwqQf8H52qp2/2neaQCQ6ZrvHePuHbyG9sy2hZYTdbl645RZituTdsJfT2sqWxx+farIocPmdUKejkCxFdhWBLPJwtRa4Z6ofE81r19K1fHlS13XZ6dOWGrefveIaGm56CwAOm8H1ZXl8fGsFd21dweWFWWQ4Z/frneN2UlWQyZtWFHJ9WR7tw2Ea+1O7Vuv1vny+e3UlWwsyU+LXZGWOl9f78jnSE6AlEBxJWAZpPV0sO5JYDrFHowxnZDCYm5u0zxH0eik+fnyqG0NsQOYv4H90JJKlSH2WyGL38anClWkYnKusTPqKLj90yNL0DTe+BQP4/RWFPPyGy/jazrXsKMrGNg9JYnV2Ot++ah3/eMMmrijMSrmN7rQZfGXHGr74mjXkup0ptW7F6W7uuXY9V5e8Ot7liWtfb2kZVtrpzQXTMGhZldDQTLd9HwoRUcASWTzujQ96/N6ppusoLyfoTW43B7nNzXh7ehKefii3AMfrbuDe6zfy2StXkedJTojYnJfB375uA9+/dj3Fs3g5cibSHXa+d816birPT9l902Ez+NrOtVxWkAlAd8Wa+PiECcro7iaroyOpn6FlzRrMqW8ScDvhfToayVKkNliymAPWLUxxeSJmt7P35psJJLmLhi2PPz5uz+2ZFRV4ly/HW1qKt6wMZ2b8hGy7cgeX/f4b5uQuuOkKRKL8urGT9kn6gDLn+KDjcdh4g6+AgjTXgthHQ9EYPz/dQcdQiMKGAyz7v18ycOYMA2fP0nP4MKG+vgnnba+o4PBVVyV1/Tc99dRUjd0BTt4JGolclhzdRSiL2XVTTXB6y5akh6usjo5LwlXWqlWsvu02ssa5DGPY7ay96XdSKlxBvObozSsLebm9j3MDwXl//zSHjatLcme97dlcctltvKmigN82dxPYtIXsrnPkbtwIQDQYpPGRRzj72GPExmnrVNDYiKeqiuELB2CeVye2biWnqQlbLDbZZCv/Fso/Amd0SJKlRI3cZdF6I3wNKJno9f78fBp27IAkB5XK557DM3LnoCsri8r3vpfVt92Ge4JGzLnr15O9Zk1KlrnNMCjzeogBnfPYl5bNgKtKcsh2LbzfjHabQY7LyanBEPZQkLTeeFcONoeD3A0bWPaa19Db0HBJbZZBvMF7V1lZ0tY94nZjA7LbprwD8ulH4JCOSrKUqA2WLGbrJnoh6nBwdOfORNqQzKnclpbRk5MzM5Otn/gEhZdfPvEMhkF+kvtASsTGXC+VufPXrm1jXkbKNWa3Is/jxJfpoad8FRdfRE0rLKTqrrvwjhOkik6exB0IJHXdz2zcmMgoCNt1OBIFLJHFY9wOpWJ2Owevuy7plwYBKl55JR6uvF623nUX6SUlk06ftWoVrqysBVH463O989IWqtjrZk12+oLfWTflZYA3g4HCoktem2j/MGIxy3efzraYzcaRHTuI2Se+IGJMUpMsooAlsvAMjHcyOHjttfQUFSV95fLPniWzqwubw0HVxz8+bg3FxQq2bVswhW8AVxZm4bLP3WEm3WHnisLMRbGzuu02NuRl0DPB3YTOzEw2f+Qj2C7qDLf4+HFcw8ntj6y/oIBDV101WY1wtw5HooAlsnjcM/aPwZwc9t9wA90lKfBj2jRZURfvWLL85pvJ8PmmnCWjvBxPfv6C2gAeh43L57CfrE35Xpy2xXMYW5mVhqOohGDG+GWWVljIije/+cKDeDRK2aHkN2/qWr6cY9vHvxJoQgciClgii8b3z1VWHjhXWUnD9u3svfnmlBjQGeK9tqf39pK2bBm+m29OaJ6Cyy5bkBuhON3F6jm4hJfhclDq9SyqHdaAeFusSfrEWn7TTWRWVFzwXMmxYziDwaSvf8vq1ey/4YYLL78bRpMD7tfhSJYa3UUoi1bWrl227pKSL3eXlKQN5OUl/W7B0fNNLMbGp5/GEQqx8QMfID2By5XpxcUUXnHFgt0WuR4Hx/uGMGdx/MLN+RnkuBZfTzMeh53DETvZZ09hi0Uv3X8Mg8yKCpqfeurVX8qxGDGbjd4UuPQ9nJFBy5o1DGVn01VSQk9x8Sc+09z8tI5IstSoBksWs61AbqqtVPHx43gGBsjbtIncDRsSmmchtb0aj8tmY7nXPWvLS3faKc/wLMqdNt1hIyfdQ2/ZigmnyfD5yF2//oLnSo8exREOp8RnMG022ioqaF29mqZ160p1KBIFLJHF5YaU+8JFo/gOHACg5HWvS2geT15eQm20Ut3KrNm7TLguO31RD0NR5nXTU75y0lrXsptuuuBvRzic9DEKJ3AVIgpYIotKVaqtUOnRo7iGhvAUFFCwbRuG3X7hw2a75JG/QNteXSzX7SDXPTuX9EozEq8NC4fDNDU1sX//fk6ePMng4OACCFgeIu40+oqXTzhN/ubNl1xeLj1yBPs4vb4n2c5du3bpXCNLjobKkcVsWSqtjD0cHu2zaNOHPjR5h6Lnv6BpaWSvXr1oNsjK7HS62/pmtIwslwNXAncOtre38/TTT9PR0YF5UeMvr9fL1q1b2bx5c0qWk8dhI8ftoGtlJVktZxm38ZphUHr99Rz7j/8YfcoZDFLS0MDZBC89z5NsoABoQ2QJ0a8KWcwKU2lllh8+HL/TyzAovvrqhOZJpG8s0zSJpF6txfhl4HVjt83s4l6+Z+oe2/fv389DDz1Ee3v7JeEKYHBwkGeffZbf/OY3hEKhlCyrDKeDUHrGpLVYBZdffsllxLLDh7FFo6n2cbIQWWJUgyWLWcrUYLmGhig7fBiAzIoK0hLoLsKZmYkrO3vc1wKBAJ2dnQwODhIIBDBNE7fbjdfrJSsri/wU7S/LZhgUpbloDYSITvOWwoIpAtazzz5LfX19Qss6deoUDz74ILfeeisOR2odDtMd8d+/k9ViuXNyyKyooP/UqVf3teFhSo8eTbVaLAUsWXJUgyUKWPNg5b59o21jSq6+OqEuIzImqL1qaWnh8OHDtLW1MTg4OFpDEwwG6erq4tSpUzQ0NBBOkTvKLlae6WFtTjors9IoSneR5XLgsFCrle+ZePid9vZ2DozcRJConp4e9u7dm3LllO6M96IzZS3WOG30yg8exJFaNXOZOhyJApbIIrBr164swJ0K65LZ2cmyMTUMha95zZTzuHNzcXgvHCw5Go1y9OhRzp07N+5lr7H6+vo4ePAgAwMDKbdt3CPtp9x2G7luJ6UjYwmuzk6nxOsm2z1xGyuPw4bHMf5rpmny9NNPT1k243nllVfo7k6t0VzSHa92U9i1snLCUD5eFx6OUIhyi0FzjqkGSxSwRBaJlGl/tfqll0b/b9hs5G3cOOn0hmGM2/aqqamJ/v7+hN83Eolw8uRJYrFYSm2YicYmdNoMsl0OStLdrMpOY21OOmVeN7luJ56ReSYbFqexsZH29vZprVMsFku5WqyxAStei1U+/nTFxTgzMi55vvToUdyBgAKWiAKWyOLbt5edOkVmZ+fo35krV+LOyZl0Hk9BAXb3hZVvgUBgWuEhFArR3NycUhvGneDgz3bDINPloCjdxYqsNNblpFM6SWel0w1X53V0pNZweWMDFkDnqolrsdKLiy/9AsRio+NdpgBdIhSdhEQWiZZkr4A9EmHlvn0XPJe/deuk7a8Mm430cQajbmxsnNalL4DW1laCKTBO3XlOm4FtGsMW2QzjktAx1tDQEC6Xa9rr1dvbSzSF7r6zGVxQTuE0L30lE9RiTTCA+bJTp/D29KTCxwkissToLkJZlGpra/t37do1BKQlax3KDx7ENTR0wXNTXR5MKyrC5rzwLrloNDqjzjFN06Svr4/CwtTptcJhMwhFrQfGydrC5+TksGXLFkzTZHh4mFAoRDQaJRqNEovFRv9/PkRlZmbS39+PaZqj4bWvr4/c3NQYXSkci42GrPPZumf1erLbml69o3DkX29p6UQbn5X79lF//fXJ/jindVQSBSyRxaMFWJmMN/YMDFA20qnoWNlr1kw4j+FwjDvwc2AW2tEMXRT0ki02zdo4Y7Lav5HXDMMgLS2NtLSJs/XatWvJyspieHiYI0eOjPYj5vF4UqiMYE32xcMLpZNxzetw919YK+XJz7+gw9GxcpubyWltpSe5A0ErYMmSo0uEstgDVlKs3LcP2ziNyzPKyyecx1lcgmG3z0k4CqROY+fR8DCtgDXJa5MFqrHO9xV2PlCdr7EyDCOlAtZE/YQF8gowL2rs75mi37OLL1XPMxM4o8ORKGCJLB6tyXjTnNZWCs5cej5xer24ssa/mSriToPcvHFfs9KfldPppKKigsrKSjIzM6e1jPk5404vYQ1FJm4jlZ6e2GDSF3coev5vj8czaQ3ZfItMkEJjdgfDORfuKw6vF2fmxO3IM7q6KGxsTNZHaa6trQ0hooAlsmjM++1zhmmy6uWXx33Ns2zZBA3cDQYLi4hOcEK1UqtSVFREQUEBGRkZrFixYjQwpFLNjMn4Q+slGjqC0diMAlZfX99o4DRNk66uLkvzJztgAQxl5xO7KChmrVgx6fJWvPIKRnK67NDlQVHAEllknpvvNyw+fnzCu7YmGh5nOCuHiMtDZILUkeilL2D00heAy+XCPdLdQyqFh+m2vzpvMDx+LVZ2djYZ4/QHdUnAM00OHDhAY2Mj9fX1BINBbDYbJRPciZcsw9GJw5BpGATyLtyfMioqJl2eZ2CAkmPHkvFRTulQJApYIovLr4B5+8nuDAapmKTfofHayZh2O0N5BZPWWKSlpSV86aq3t3f0/6FQiOHhYcshba6FYzMMWJNcJvT5fAmVVTQapb29fXSg5+Li4tEwmgpMYCA8eZcRwYxsIu5XayYna983Wj719djn/3LxYzoUiQKWyCJSW1vbDrw4X++36uWXcU7S35Qn79I2VoG8ZcRs8YbtEzVqNgwj4cGbW1tbaWtro7+/nxMnTsSDn9NJ9gSDRifDYHhmfU0FIrEJW3ClpaVRPE6nm5NJT0+3PM9cGwhFEqrpC+QvmzTAj/cjYJ47H40CD+loJApYIovPI/PxJrnNzReMNzge+0XtoCKeNIYzXw0+k9XslJWVXdI4ezyRSIQzZ85w9OjR0b6zysvLsdvtqROwIjMLWKZpEpgkpJWWlrJixQpstqkPb/n5+VRWVqZU43aA3gRDaNiTTsgbb9xuS7CT1ZKGhvnsfPTJ2traTh2GRAFLRAHLMnskwtoXXpg6GFzQS7jBYMGF/RKFojFCE7S7cTgcLF++3PK6ZWVlpUzHmRC/9DUUmflV255QZMrgtGEKYOecAAAgAElEQVTDBrKyssYNWh6PhxUrViQcxOZTzDQZDEcSnj6QVwiGgSPBgGWYJmv8/vn6OP+tQ5AsVepoVBa7F4E2YNlcvcGKV15JaFDdUF/f6P+Hs+MN2y+puQhFKExzTRgaIpEI586dS2jYnJycHCqmaPg83wKR6LSH/BmrPxRhyO0kzTFxOPJ4PKxduxbTNBkaGmJwcBC3243X602pGr3x9gErRRR1uhjKzsNmoQ1ZVkcHRSdO0Lpq1Vzn6f/RIUiWKtVgyaJWW1trAj+cq+VntbdTevRoQtOeD1gxp+uSO8DGnlwnU1RUxPr16yftdsFms1FeXs7q1asTuqw4n/pDszfWX9tQYl0rGYZBeno6hYWFZGVlpXS4ipomHcPWG6EP5RYQzc6xNM/KfftwhOa0e6rna2trm3QUkqVKNViyFHwT+GMga1Z/ncRiCV0avDhgDRQWYxrj/7aJxEwGI1G8kwxqnJ6ezsaNGxkYGGBwcJDBwUEikQherxev10tGRgbOi8YzTAXhmElvaPbuYBuKRBkIR8lw2hfNjtoaCE3YH9pkTMOgZdPlluY53+D92JVXztXH+a4OPbKU2VUEstjV19cPbdmyxQX8zmwut2L/fgrOnrU0T94f/CE92fkER9pbjfeImZDrmTwgGYaB2+0mIyODvLw8CgoKyMrKIi0tLWVraNqHwgxHZrfXjGA0Rq7buSj204FwlPah6dconcVF/b795DYeT3iezO5uukpLCc1+Nx7P1NbWflJHH1nKdIlQloq/Ajpma2Henh6WjzOY82SaYzb2enJpGgzSNBjk3ASPA90DBCLRRVX4s117NTZgdQXDC758Yia0BoIzXIaJ/713EcywUFFrmqx58cXpd60/wVKBT+iQIwpYIktAbW1tP/D12ViWYZqs27PH0rAjpmHjmTs/zwAJdIIZM3mlo39Rlf/B7gHO9A/TORweaeie2HwR06QnFOHswDAtgRD9ocglPd63D4XoDy/cQGoCTYPDM+6ANYbJcFYOL97xMUvzZXZ2Unz8+Gx+pJ/U1ta+oKOOLHVqgyVLyb3AxwDfTBay/NAhMkbGr0s4YLzpnbStr0q4i4LWQIhzg0HKvO4FX+jNgSAne4eAV3snNwC33Uaaw06aI/6v0xYPn6FYjH3t/fyysYOTfUPjLvPKZVncsDyP9TlebBg0DQbxZXgmvaswVcPVuYHhKXttT2hZI/ns2PVvZPWTj1Bc/1LC86585RU6y8sJz7w3+2Hg0zrUiKgNliwh9fX1kS1btjwJvBtwTWcZ2W1trHv+eax0S9lbVsGTn/gapt3O6ux0CjyJvXVXMExFZhr2FOsE04r+UITnWnoZr3ImYpoMR2P0h6N0B8P0hCIEIlH+6eA5fnG6g57gxHdUNg0Geaa5B4dhozLXGw9vkSiZTjt228IoLxM4OzA8457tzzvZP8RL7fEbKdorq1j32EPYYokt2xaNkt7XR/vMu/X4Um1t7cM62ogoYMnSC1ktW7ZsqQfeMVKRkjDX8DBbnngCh4Wx3Eybjf+9+7sMFsYHEl6RmUZxemK1BJGYSSRmJjx9qgnHTJ5p7pl00OKxYib8trmHF9p6iQ4F6D/4Mh1P/pLmh/+d9id+QedTv6bzmUfpevZR+g68TCw0zAnTzU5fEZlOB6YZryHLdDlSPpTOdrgCeKGtl6M98f7YgpnZmIZBSX3iI0Wl9fcTcbvpT3BYpnH8S21trdpeiYzQJUJZcmprax/etWvXnwPfSXQewzRZ/8wzuIaGrAW6N7+bjrWbRv+22nj9ZN8QmS4Hq7LSFlQZm8CLbb2WLn01DwT4z3+pofnX/0Xg9DEwJw9mbY89CIbB21ZV8p533s77d38cXC5O9Q1R7HWTmaLdNwxFYzQPBifstX+6zvQPX/D3gbe8m1XPPEqOhbsKV+7dS29hIYPWe///JfB+HV1EXqUaLFmS6uvrn9uyZUspcEUi06+oq5tyrMGL9ZSv4qmPfxlzTLcJ2S4na3PSLS2nNRAizWEnx70wfg9FYiZ7WntpCyTe5cDTv/wZX//w+2h94ueEezpHIlpihrs72PPUkzz684fZcvkVFBaXjDSGB6/TTqrUZZnEG+S3BoLT6utqKj9uaCE4JrSZNhtdK9ex5olfYCRYnoZpktPWRuuqVZiJDyH0AvCm2traoI4sIgpYImzZsuVXwAZg02TT5Z07F7+V3crJ1G7nfz/9vUvGGwybJlcUWu/vtHUoiNdpJ9uV2iErEInxTHMPXQn2Rh4cGuILd9zOQ//wt4T7ZzYAcVdHB//1o3+jJzDM5p3XEBjpiNTrtONIcrusoUiMM7PUmH38co/y3yfaLn0+v4i03i4KjifepYgzGMQ1PExnYmNfNgA31tbW9uqIIqKAJQJAfX19rL6+/oEtW7a0AjcCl/RY6RkYYPOTT2KLWjsx7r/1vZy49uZxT7SXF2bhnMYAwy2BIBlOO1kpGrK6gxGebelOuF2RaZr81Sfu5OX/e2zW1sE0Ter2PIeRnknxxq20D4U43hdgcKTHd7d9fu8y7BwOc6QnwNHuQXqCYfpD0fEf4cQeAxM8f7hncLSB+yXhfMM2Vj/5S5xDgYTXO6O7m6GsLAI5kw6/8xvgrbW1ta06mohcylARiMCuXbs2AT8BNp9/zjU0RNXjj5PW12dpWe3rNvOrL91HzD5+ELp1dRHrstOnva7lmR6q8jNHuzVItphp0tAb4GhPwNKlr//4/nf4yd98e25+OTqc3P/kC+QXl17wfGGai7XZ6SxLd81ZeURiJo0Dw5zoCzAQmp/+uX7b1M2zLRPXAJbtfY6bvnaXpWVGnU72/e7vEsjOvvilAeCTtbW19+nIITLJcUhFIAL19fXtW7ZsqQHygO3pvb1seeIJ0vqtdfgZzMjiN39xD6FJetPOcjlYOYNG632hCGcGhsl0OpI+Dl9zIMjzrb00DwYtdQZ+YM+z3POpj83ZepmxGO60dLa89poLng9EopwZGKZpMMhQNIZJvD8u2wzvOuwPRWgaDHKsd4i6jv6RRuzmvG2HJ5u6J+1stb+kHE9/LwXHDia8TFssRsGZM3QtX07k1f6xfgvcXFtb+6iOGiKT012EIiNqa2uHgY98ctu2h1fu2/dzy98Pw+Dpj/4FgwXFk052qm8Iyma2rsORGM+19FCR6aEy10u6Y36DVm8owoGuAUsN2cd69Kc/wjTnNoDU73l20pDaF4pwNL7ZyHE7KfA4yXE7cdsNnDYbLpsNl90Y7fIhFIsRjMQIxmIEozGGIzG6ghE6hkMEZ3mMRUuhPhajJYHt8OJ7Pkpx/YvknD2Z8LJdw8NUPfYYjZs397WuWvWVmN3+3dra2piOFiIJnBJUBCKXuhc+B3zZ0gn9Le/hpXd/JKFpP7BxOfme2Rmk2DCgJN3Nqux0CjxzN/BxJGZybjDIqf4huodnNv7fey6vZKC3Z063YdnqtfzgN0/PeDk2w8DExDRTc1891hvgP48n1gwq79RR3vjp92GLWN5+t94J/6Mjg4iFY4eKQORSd8JXgD8CErr1vHXjZby8648TXv7B7oFZW1fTjPds/nRTN0+c6+Jk39Cs3a0WiZm0DYXY19HPrxo72NveN+NwFY2E5zxcAZStXDUry4mZqRuuAE70Jd43W9eKdZb2U+JD3/yRwpWIdbpEKDJxyKq5F54AvoZh7JroLNtfvJwn/uwbF/R3NWXA6hrk2pLcWV/n3mCEV4LxdmMuu40Cj5M8j5M8txO33YbLbhu3cXzUNAlFTUKxGL2hCF3DYbqGw/SHI7MeLjr7B+PVbnOcWl5/y1sX/T4aMU0OdlkL6wfe/C4KGw5Q8fzjU036KPDJO+EVHQ1EFLBEZjtkndrxwPPvLjh+6LYt//0vjrK9z2IPx9u7xOwOjr/uDey7/f0EM7MtLbc7GKY5EKRkDofBCUVjNA0GaRq8sBLOZjAStGxEY/FQFYnNfRVNhj1GhWuYyoFjXLFxJS8dODFn73X3B9/C59/2GpqNAEeGPQxGF2dl/aHuwYSHIhrr6Y9+nognjVW//SVG7ML5WzZdbi47sv/6j0bCv9URQGT61AZLZAo7Hnh+OXAGwDE8RP6Jw4TTvAwWFFkOVmOtz/Vyy8pli7780m0x1qcNU+oME+1tJDbQxCNP7uW2P/nrOWnofsdbr+Pvvvh+DJcXR+FmTAwaQy4aht0MxxZX0PrXI02XBGgrspobKa5/ifSudoZy8jl3+dUMFBYDVOy5bWejvv0i06caLJGprTz/n4gnjdaNl83KQg93D9JSHKI4zbVoCy7PEeFKbwCXYWIO9xAbaALgDa+7jL/57B187q9/St9AYFbeq7wkn7ve+wbef/sNAJihQWKDbdi8RVS4QpQ7QxwcTuNUcHGUd+tQaEbhCqCvxEdfiW+8l1YBClgiM6BG7iJTWzFXC/7tua5FW2jFzjCvzRjEZZgQDRHpPnbB6++//QYOPvIdPvKu1+NyTv+33roVJdz/5Q9Q/4vv8Me7fhfHmLZw0b4zEIvED3YGbE4b4kpvAKdhLvjyfWJu951V+tqLzIxqsESSGLBO9A1xZmCY8gzPoiqwDHuMbelDI20QTCJdDaNBZ6y8nAy+/al38dH3vJ5fP/UK+w6dYt+h0xw8dpZQ+NLpHXY7m9Yu54rNq7hy5LFxzXJsE/VqH4sQ7TmJPW8N51tEFDvDZGVGeW7Ay9ACvWR4uHsw3p/a3Fmpr72IApYsEHWN1blVvppuBawLPXK6gzvWl+KxL44KZcOAK9MHcYzUEsX6zmCGJu8Rv6K0gA++48bRv0PhCGeaO7HZDJwOB06HHafDjjfdg9viWIyxoU7otmHPXTUastJtMV6bMbggQ1YoFuOxs51z/TaqwRJRwJIUD1WbgE8BbwTy6hqrjwH3A9+t8tUslOs02XO58O5gmIdOtnH7muJFcddJmTNEhj1+Z1psoIlof5PlZbicDlb7imZtnWKBdoiFsWWUYLizLwhZTw1kEI4tnJJ/4lz3rPVztlQCVl1j9ZXAh4HXAieAnwE1Vb6aECJzRG2wZC4Pan8G1AHvIT7GH8Aa4NvA/9Q1Vi+UgD/n1+9O9g3x5CJpj7XGE294HetrJNqbOu2kY8M9RDoOEW5+kUjbfqKdR3D3HSdvqJEDXQM0DgzTE4oQTeFeRZ9r6WFve998vNWiuURY11h9N/Ac8Y6DN4z82LsPOFrXWH21jtQyV9RNg8zVQe1twH9OMdkXqnw1X0z1z7LjgecfBW6aj/e6piSHq0tyF+wX02uLcr3rDNGBFsxg74JYZxP4WGM5+4deHYA73WEny+Ug02Uny+kg0+Ugy2Un0+mIP++0z3iAaKv2dvTx68bO+XzLjD237Rxc4MehdwH/PskkAeB3qnw1L+ioLbNNlwhlriQyKN/n6hqr/7PKV3MgxT+Le77e6OnmHs4OBnnLikLS5nkA57EipslwZGRQ42iU4eirAxwPR2Pj/B0lGI1xTXoP1yxrWlA7qgHcltt9QcAKRKIEIlFaJulBwuuMh6/zQSxzzP+znA4yXHZssxSV93b0z3e4AigHDi/gcFVBvKZqMunAJ4B36pAtCliyUFQmuP99Gni3AtarTvUN8c+Hm7i+NJe1Oem4bNav5JswEo5iDEfGBKQxoWiy16d7mcyXPbQgd9aqkTserXzqwXCUwXCU5kBwwuDmdcZrws7XemWO/j9eI5bhdEwawXpCEX7d2MHJvqSUa/4CPwZ9EchIYLqbEFHAkgUk0d4c31nXWP35Kl/NSQWsV/WHIvzsVDsOm8Ga7HQqc7w4bcaENUfng1FwTO1SMoRiC/PiZrY9SpkrxNnQ7HVCagID4SgD4eiEHYIaBmQ4HWSNE766gxGeae4mHEtam7CchXrwqWus3ki87WciYogoYMkC8iJwcwLT2YFPAnem8GdJWidVkZjJ4e5BDncvjKYwfTH7gt1he6Pzv+6mGQ/T/aEIzLBX9jmQy8L1VRK/ieuMDtcyF3QXocyVn1uYtrqusboohT+LW5szMceHF2ZRdUQc9Eft2oCLIGDVNVbvBG6xMMtPtalFAUsWkh8DAwlO6wHuUsBa+F4OpNMRWXgV4/sC6dp4iyRgAV+3MG2Qye8yFFHAktQy0mP7fRZm+XBdY3WqtvlQwEqQCfyyN2tWlxmzuTBcGRjubPpJA2N2D1v9UTv3tRdo4y2CgFXXWP17wPUWZrm3yldzTpta5oLaYMlc+h6wO8GAkkW8HdbXFLAWtn/tzGdr+hBVadO78800HNizyrBnFGP3Fo32vA7wrwfO8sGNZZjhQWJDnUT7zhDrP4cZnX6H3D9oK6QzokPhQg9YdY3VBtZqr/pT9Hgji4RqsGTOVPlqmoF/sTDLx+saq9NS8KN4tDUTFzEN/uJcKc1hp4UjkRN7zkpcFdeTvul23L7rcOStuyBcAdhtBhgGhisDe3YFrvJr8Gy4HVfF9dgzSy2v60+7cvlNX5Y22iIIWMBtwOUWpv9ula+mQ5tZ5op+tslc+xbwPuJ3C06lcGTaH6TKyu944Hl7gusuY/RG7dx1Zjnvyuvi97L7cBuXdjUQsafhzizBnl2BPbMEjKmL2TFe7+mGgT2rHHtWOWZogEhXA9HuY5iR4QmXEzQNvttSxKMKV4siYI0Mu/VlC7O0E69hF1HAkoWpyldzvK6x+gES7yn5k3WN1fdV+WoiKfIRdHlwmlrDTr7XWsQ/dhRwRXoAl83EgUlf1M7piJefvHGH5eFmXPbJK90NVwbO4stwFm0lOtDM8aYThPubybVHcNtMWsNOfjuQwWN9mbPa55UCVtJVA+ssTP/VKl9NvzaxKGDJQvcNCwHLB7wLa5cW55Iuo89QX9TOE/2ZFzx3XWmu5XAVNU3SHQluDsOGPbOMlsx0/ny/gtRiDlgjzQr+0sIsp7F2A46ITh6Smqp8Na8Aj1iY5VMjDVZTwZC24OzbVpBpeZ7+UJQsl7XfhJlOXd1d7AEL+ChQZmH6L1T5aoLavKKAJYuFlbt7NmCto8A5s+e2nVHifeXILLIalAD6wxE8dmuHrAyXKulnIH3HA8+ndPVfXWN1NnC3hVkOAv+qTSsKWLJoVPlqngaetjDLp1No9Qe1BWeXy2790BOMxohaHJZPNVgzluq1WJ8E8ixM/9kqX43GHhQFLFl0rNRiba9rrL4xRdY7oE03ywHLZv3QYxgGUdNawvI6FLBmKDtVV2xkeK2PW5hlT5Wv5kFtUlHAkkWnylfzCFBnYZZUqcVSDdYsc9qsN7GzA9GYtYA1nZoyubAIU3jdPg94F+DxRBSwRObENyxMe2NdY/X2pH9JzNiwNtvs6hy23vO6zTCIWazBmk6QkwukZCO2usbqlcAHLczymypfzRPanKKAJYvZT4HjC+FX5567K+x77q64yxc4vlGbbXad7LeeWW0Gli8R2gwDZawZcaboen3JwrqZwGe0KUUBSxa1Kl9NFPi2hVluqWus3pCEcFUJPAN8zxMdcmrLza5TfdZ7v7AZBhFzOu+mhDVd17f+4rJUW6e6xuotwB9YmOU/q3w1L2lrynzTPcySDD8k3jFgSYJnx08B752nYGUDPgZ8FUgDcMXUS8OsB6z+6QUsq5cI+0IRy/PIq7b2+O/fc3fFbuDvgX/b8Y3TPSmwWl+zUDkQAT6nLSnJoBosmXcjnfz9lYVZ3lXXWO2bh3C1Cvg/4mOUjQ46rYA1+5oHgxy3WItlNyBisZF753BYhT0D0fj4kJuB7wNNe+6u+Jc9d1dclaz1qWusvhp4k4VZaqp8NUe1JUUBS5aS+4BEfw07gD+b6xVaU+r6yMoip68w2x7wemyjbXcUsObGgyfaLM/zmzOdlqbvCipgzULAwukwyPba0soKHDeuLXU9lMRVstLVyzDwRW1FUcCSJWVkoNUfWJjl/XWN1YVz+mUwaHM6jIrcDHt6Wb6D1aUufIVOXh99np3BvWTE1FvDbPrV6XaC0cT6fIzETL699xR72/t41ELIOtilbTYdBdEubhx6hss8LawsdrKyyElRjgOv21ZmGOQnY53qGqvfAFxrYZYfVPlqzmlrSrKoDZYk098AnwDSE5g2jXingp+dw/VpH/uHAXhcBjvMw+zoPoyJwUlHOftd66l3VbLftZ4eW5a24jT1h6M8eKKNd6wtnnS6qGny+T3H+G1TNwBfffEEuW4nVy6bvOzrOvv5+wNnVNAJyIn1sTV0MP4IHqIs2hJ/wXn+m3CBeW/UNjI26dcszNKLtdoukVmn22skqeoaq/8G+JMEJ+8BKqp8NX1zsS7d96x9E/AzK/OccZSy37We/a5K9jvX02HP00a18gvPZvD9a9dzeeH4YSlmmnx+z3H+9+yFtVYeu43dVT7euqrokm4YekMRfnS0mR8fbbbcZmupyIgNUhU6xNbQIbaFDlARsVTRE8nd3eCc5+PEHwA/sjDL56p8NV/VlhYFLFnKAauceL9YiR6w767y1XxzjgLWDuD5mSyj2b5stHZrv2s9zfZl2shTyHY5+Pvf2URFpueC5/tCEb758qlLwtVY63K8vGlFATuLcmgdCvHwyTb+71w34ZiGmxsrzRxmS+jwaKBaFW7EmH5FVDh3d4NrHo8RTuAQsDrBWVqB1VW+Gl0fFgUsWfIhq4bEu2FoAVZW+WpmvXf17nvWrsJaJ6hT6rTnst+5njrXeupd62l0lGqDj8NmwNb8TG5Ynk+ex8nBrgEeOtnGQDiqwpkGlxliU7iBbcEDbA0dYm34JHZmrSxDubsb3PN4fPgwcK+FWXZX+Wp+oL1Akk1tsCQVfBO4I8HAXwxUA383B+vRNtsLzI92c330Oa4ffg6AXlvmaO3Wftd6TjrKMfU7h5gJezv62dvRr2/DdA7kZoQN4WMj7agOsSF8DIcZmau3m7frrnWN1enExxxM1Engfu0Rkgp0ZJeUUNdY/V/ArRYOomtHeoWfVd33rB0CPPP1uQds6RxwVo624zrmXEEUu3YImZSdKGvDJ+OX/IIH2BRuwGWG5uvth3N3N6TN03Hh01hr3P6eKl/Nv2sPkZT44aMikBTxDQsBayXwTqw1ek1UO1A+Xx86IxZgR3AvO4J7ARgyPBx0raXeWUmdawNHnasIG/qa6pewyerwabaGDrItdJDNoSOkmUkbg3xearDqGqtzgT+3MMt+4MfaWyR1vrciKaKusfpR4KYEJ68Hqqp8NbN6sO++Z+1LwOWpUiYhw8kR52rqXBvY76rkkHMtQcOlnWUJqIicY1so3oaqKnQolfphC+TubvDOw/HgG8SHyUrUm6t8NT/TniOpQj+NJZV83ULA2kx8yIzZPqC2pVKBuMwwW0KH2RI6DEAEOw3OlaNtuA641hEw0rTnLAJl0Ra2BuNtqLaGDpIT60vVVZ3zWzTrGqtLSbz7FoBnFa5EAUtkAlW+msfrGqtfAF6T4CyfnoOA1Z7aX9goG8LH2BA+xu2DPyeGjRNOX/wuRWe8A9Q+W4Z2pgVgWbRjtNuEraFDFES7Fsqqz8clwr9gzHigCbhbe5QoYIlM7hvAfyc47WvrGqtfV+WreXKpBKyL2YixJnyKNeFT3MqvMDE47Sij3hXvGmK/az3dtmztVSkgL9YTb0MVPEhV6BAl0baF+lHmNGDVNVavAd5nYZZHqnw1T2kPEwUskck9SLxTwQ0JTv9pYDYDVsdCLjwDkxWRs6yInOVNgccAOGcvHtM1RCVt9gLtZfMgK9Y/crkvfsmvPNK0WD7aXNdgfdnCuckEPqO9TVLzeCySYuoaq+8AfmhhliuqfDUvz8Z7d9+z9qPAPYu5fNvsBfGhfUZC1zl7sXa6WeA1A6/2lh48wIrI2Zn0lp7KenJ3N+TO0Xd/G/CyhXNTbZWv5g+090kqUg2WpKIfAV8CfAlOfzdw+yy998BiL9xl0Q5uHOrgxqFnAOiy5YzWbtW71nPaUabOTxPgMYNsCh0dbUO1JnwKG0tiiJ65TI1ftxCuwljrhFRkXukoKimprrF6N/D9BCePARuqfDVHZ/q+3fesvQ346VIu+z5bBvWuSupHhvg54fQRw7bk90mXGWZDuIFtoXgbqsrQcRwsyaF8unJ3N+TPwXf+Oqxd7r+vylfzYR0tJVWpBktS1T+O/DotTGBaG/H+ct43C+87sNQLPis2wFXDL3HV8EsABIw0DrjWjV5SbHCuJLIEept3EKUydJyq0CG2hQ6yIdyAywzrmzl33TR8w8K0AeK13CIpSzVYkrLqGqs/C3wlwclDwOoqX83Zmbxn9z1rrf6KXnKChotDzrXsd8V7mz/iXE3IcC74z3X+jszzXSdsCh3FYwa1wS/Vnru7Ydksf9ffDDxkJYxV+Wo+rU0hqf0jTSR1/S3xmqnMBKZ1AX8K3DXD9xxQsU/ObYbYFjrAttABAMKGg6POVdS5NlDvrOSgay1DhiflP8f5Oy63BeNtqLaEDuM1A9rAU5vVNlh1jdU24KtWfgcRHyBeRAFLZDqqfDU9dY3Vf0fi45F9oK6x+itVvprOGbztoEreGqcZYVPoKJtC8SZwUewcc64YvVPxgLOSAVt6SqxreaSJraGDo90nZMX6tQGTHLCAdxEfmSFR36ry1fRoM4gClsjM/BXwMcCdwLRe4sNr/OUM3k81WDNkJ0pl+DiV4eO8ffARTAxOOsrH9MW1nl5b5rysS0m0Ld6GKniQraGD5MV0Xk6lgFXXWO3CWluqZhK/+UUkqdQGS1LeSC3WHyc4eRdQUeWrmVZQ6r5nbTags/Aca3SUvtrbvHM9nfbZ6VapINp1wfAzy6IdKuzZ15y7u6F0lr7bVu4WBvhwla/mPm0CWQhUgyULwbeBD0BCt67lAR8CvjvN99IlwnngizThizTxhsDj8TO2fRn7Xev5ccYttNgLLS0rMzZA9cADbA0epCzaosKde7NSg1XXWO0FPmdhlmPE7y4WWRDUuY2kvCpfzb2jS0sAACAASURBVAngPyzM8omRSw+W5e5uiAC6dWyelUTb+L2h37I1dNDyvKsjjbwh8LjC1fyZrW4a7gKs3I34F1W+moiKXxSwRGbXNyz8ci4F7pjBe6kWK0lKI63TmEfBap7NuAarrrE6H/ikhVn2AT9R0YsClsgsq/LV7Ad+YWGWP69rrJ5ub5hq6J6sgBW1HrCWq+ZqwQUs4oO0Z1mY/jNVvhpTRS8KWCJz4+sWpl0DvH2a76MarAUUsFSDtbACVl1j9XLgIxZm+W2Vr+aXKnZRwBKZI1W+mmeBpyz+Sp4O1WAlK2BN4xJh2TRCmSQvYBHvRsUzD99jEQUsEQus1GJtrWus/n8KWAtHmjlMbqzXwgEsRkm0TQW3QAJWXWN1JVBtYZafjfywElHAEplLI5cK9s3xr19dIkyiMguX/JZFO3GYurFsoQQs4mOLJto2MgZ8RsUtClgi8+cbFqa9tq6x+hqLy1cNVhJZaYdVpvZXyTCtbhrqGquvAN5mYZYfVflq6lXcooAlMn8eIN7pYKKs1mKpBiuJrISmUrW/Sobp1mB9ncRHDwkxsyGvRBSwRKyq8tXEgG9ZmOUNdY3VWy1MrxqsJFIN1uILWHWN1TcAv2thlr+v8tWcVFGLApbI/PsXoMnC9HdbmFY1WAslYKkPrAURsLB2c8og8bZaIgpYIvOtylcTAr5nYZbb6hqrVyc4rc7ayQxYEdVgpbiAlYnrGqvfCrzGwix/VeWr0bVfUcASSaL7ge4Ep7UDf57gtKdUtMmTZg6TGZv6Kq2BybJYpwps/nVZCFd24KsWl/0dFbEoYIkkUZWvZgC4x8Isd9Q1VpcoYKW+/FjPlNNkxgbURUNyJPqjhs6WvE+dOLB6w8kDa+hqzScambKHhq9X+Wp6VcSyGDhUBLLAfR/4U8A70QSxmMFgbyahoNOdnjn4OaYepuMIcAYoV/EmR16sh1Msn3EIkzlxKJGJnnj+y5mnD+V+MRxyA9B2dhmGESO/uIPl687g9gQvnuUs8AMVryhgiaSAKl9NZ11j9T8AHx/7vBmDzpZC2s4WMdibSSwWvzvc6Q59+NdPfuHbr3/dF05NtMzc3Q2h7nvWfgn4B5VwkgJWdOrwlB/tVkElx38lMtGzT9fd/5N/rXcEBkNs2bKFLVu24PP56GheRldbASs3HqegtH3sLF+s8tUMq3hFAUskdXyXeK2UEyDQ7+XYK+sYGkwbnaC9vZ0jR46QlWMzqsyc+4Cbp1jmD4FrgT9U8SYhYCVQO5WnGqxk+HXu7oZXEpgu49tfffj2nu54LdXx48d58MEH8fl8vP3tb2fDhg0c37+WQL8X37rTYJhHR75zIouGoSKQxaCusfqfgD9qO1vM6UMriMVs9Pf38dhj/8tzzz1Hd/ertR0rV+dF8wtcGS/uaZny13L3PWvfR7ydV5pKef48mP567st696TT7Bp4iDsG/lOFNX+OAa/J3d0wZdXh2vW59zcc7v7gRK/ffPPN3HrrrRiGwYoNJyjytdxe5at5QEUsi4kaucti8a3ejlzz5IFVxGI2XnzxRT7zmc/yyCOPXBCuAE4e77IbNiOhXqJzdzf8E7ATaFARz59EaqfUBmte9QNvSSRcAQUnj/VOWvP7q1/9invuuYeYGaavK7sTUFIWBSyRVFTlqznS1Zp3GExqa2u5//77GR6euILq6KGuD5DgoLO5uxvqgCuBh1TSqROwdIlw3pjAu3N3NxxMcPpPRyIxz1QT7d+/n7r9z+B0h79d5asxVcyigCWSqjuzI/q1Yydf5PHHH59y2t6eYD7w9kSXnbu7oQ946wvubS+ppOchYCXQyD1PjdznRdBwfT93d8PDCU5eztR36Y4613Kw5c2v//w3VcqigCWSwn7/d//y348d95+zMIulQaBzdzeYX8n5/+zdeXxcdb3/8df3zEz2tTttKbSltFDa0k4hKTuisggqS4rsIiBefqK44H4FRbyKqBdFZFGRRe1tQFAERGVRtoT2AN1YulDaUro3abPPzDnf3x8zbdPSZGaSTJbJ+/l45JFk5jvnzHzmzDnv+Z5zvucLf1mWc6iKnemApV2E/SVc8XDhGb9O4yE3ArmpNt6xY9s1qrIoYIkMAFu3bf1aGs1nAGekM/2ICdX/qPQaWkyeip1BebaNfNvxLl6DpdxTwMq0v+efxP1F56Y6dMIU4LJUp33AmKKaZ/+x9hFVWRSwRAaAf/9r3R+HjchfmcZDvpnmLBq3BIby77xKFTvDOttNWOI3EsRTkTLsldwjAQpSbP4DUjyuEfA3rG+8QhUWBSyRAWTr5pYvp9H8uMRPqizA0/nHqtCZDlid7AIc6uv4q0yzGN7MOYRLhmw/pmXx709oXvLAMY1L/jiyg+ZHAeemMfkHgDdUZclmGmhUstHfgKXAESm2/ybwsQ9sYKw1De6fhlIYtV6r75Xl+94pS/3cJuuwNGcymwLDGOltVbUzpNRv6PC+kk7uk56xOnggzSaf2UVbf2NxwFocYjQvvr8e7FsW8xbWeSkWbH24dOqVP0xj0m3ADaqwKGCJDMQv3/Aj4MEU259RnJc3c3Pt3eVgKn3HVhrfjG9Z8sDBwRyKiBqCgQAtkQCfG7ml6acbR2IxLMydzsean1G1M6SzY7DybZsKlGHvhMbF05D/gR0dZWAqDVRi/E8313t3/eTrF5n7HvkPS5evS2XSdwJrVGHJdtpFKNlqHrA6lYYBx+Hm6z9Vaw1PW2NvNpazMPYIoGg/yW33eD2bAsNV5QzK6yRE5Vldsi7T6pxSAFpt5xf8KC3ON//volOpmf8Dfv29Kxk1vKyz5g3AzaquKGCJDFwe8JNkjY4LT6b2oR9wZdWHQqlM1Fr8PQFrmKqcQZ32YPnqweqtgLWfHqz9b0wcw2Vnn8CzD3y3s5D1M2CLqisKWCID273Axo7uPGbmofz1zq9x+CFjU56gZU/A2qyA1WcBK0+7CDOuPsUerH0dNHoYf7njqxQVfGAok63EL8wuooAlMsC1Aj/f3x3jx47g4du/TF5uKK0JWky7gDVUFc4g7SLsW3WBRMDy099MTJs8jgvO/MCZtjcT30UoooAlkgXuNIYd+9541dwPUVpckPbEfLtn8KVdu1AkM/J99WD1pQZTCECz37XNxMWf2DP6yYihJa0HHXTQnaqqKGCJZAn77LPNn5374b2+NRtj+NTHjunS9DxM0+4Pj/VV4EwGLO0i7FOBxHeJRq9rm4kJB47Y/fdN152f98Zfv/8ZVVUUsESyROuQdV//9jVnj83PzdkTuqyltKSgS9OL+E7zrr9DxFTgDOosROVrF2HGBW0iYHWxB2vjlvhAsYdNHMOFZx2LMeaWlkX3j1dlRQFLZIBrW3zvFGv472HlxXz63BP3u/JPVxSa9myAFLAyST1YfWvXF4hGP9Clx//jxSUA3PD58wg4DkChb/iOKisKWCIDnGcCtwC5ANdddgah4J4Nxf2P/KdL04xYZ0/A0rXwMipPAatP7foC0dRuF2FjcysNTS1JH/vmqvV8//aHOGraRD5+Snj37SbNi6uLKGCJ9DN22fwiLKfu+v/AA4Zy/hlzdt//k98+xn8WvJn2dNv8PcdghWxUhc6g/E7PIlTAyrQ9PVh7NhPfv/1hjvjY9fzuoWeJeR/8ghGJxrjzT//ktCv+h7ZIjO9/ce6+TYpUWRk0X1JUAslGLbFIGYac9rd9+TNn8ofHXsRai+9bzvzsLXz63BP59ufOZuSwPWcEtkViLH57DS2tbZxw1OF7TXdnzNl98cHR3mYVOqMBq7VL90nPOCC2CXKhKbGLcN2Gbdwz/2naIjE+//17uf7Hf2D6lHHMPHw8nuez+r3NLFm+lk1b4yftnjLnCI4/6rC9pmkwz6uyooAlMpA3ziXRrS0NgS3A7uvZTJ4wmjNPnsVjz7gAxDyP38x/ht/Mf4bhQ0o4aPQwojGPN1a+RzTmcci4Ubz+1x/jOHsGWlwXzdm26+/x0bUqdAZpF2HfGh+LX1dw1y7Cm3/9CG2RPccdtrRFqF20ktpFKz/wWGMMN103l+Y2D4OhMM8BWG4sX1JlZbDQLkLJSmb85a3G2ushvp+jqc2nqdXna1eetd/2W7bvZOHSd1j01hqisfiuj5VrN/Lnf7zSvlndmkjO7i37wbH3VOhMhmRfuwj7Q8Bq8B371jvv84e/vpDyY8/56NEcedjBFOUFKMxziPm8lR9pmZk345K3VVlRwBIZ6BvoGZfdh3WOj3k2lp/jUJTnED5iAidXTE15Grf+7rFdf24w1qlq9Z3iXTdMiq5WkTMogNfhiQS5NqICZdi42HpybBTPGnPaVT9+3vNTG/ctGAhww7Xn7nVbyOF5M/vqZlVVFLBEskTBjItrggHzRru9fFx/1VkpP37xW2v52i1/vCn/rbwD82dc/DQwBOK9VxNi2kWYaV4Hqygfo+JkWI6NckJrLY0r32DzlrrjU33cpWefwCHjRu3zfrFIFRUFLJEsY7Fu+/9POvpwZh8xIeXH3/7g308yc+fu6kopBzi9+VkVNuPhKoDtIEjFjA4f7Q1nNj/Nuj/ckXL7/NwcvvW5T+57c7NjeULVFAUskSxjrPPPfW+7/sqz0pnE8cCuK9cOGeLX8+GWF1TYDIt2EqIihFSgXrBhyWJ2Ll2Ycvv/uvAjjB5Rvu8XnC/nz7hU+9NFAUsk2xTMuORPhr2/QZ958iwOmzgmncl8C8Bgh3y1/i4KrQ4nybTOeqnUg9U7bnpsW8pt83JCrV+87PQFQATYhuEFCx8rnH7ZXaqkDEZaS8mgEA3ZS4NRcwNwFZBnjOHzF59a//++97uyFCdxBjDjiob/GzMrslQF7Y33rJPVU4yACpRhb22I8Nra1Mcba41EbzropM//UJUTiVMPlgwKJYddtq1g+qVfyI+0DDXBwMGObyf/9rHXRwBrUp3GUePz5p3X9HiBqtlLAcuEOrlP3w0zbXNDWtfa3Aj8r6omsofWUjKoJE4Vbx+qbgV+mcpjF61tmxL1LKGAzmDrlYDVaQ+WVl2ZdtTB+ZQVONQ3pzQ8w02A9puLtKMeLBnsfgukdM2bqG/Z2eKrYr0VsHQMVp/KzzH87PyRmOTfJ1YB96hiIgpYIu21ALel0vDo8fkMLdKxP72lsxClXYS94+xZRVR/bgwjijtd7r8D6MrnIgpYIh/wK2BnZw3KChx+dfFIVaoXdbaLMKpdhL3mlMMLePWGg/n2mUMZVbqn7o7BArcA81QlkQ/SWkoEdgA/IX4cyQccf1g5v/pUGQcO0celVwNWJwe5axdh7yrMdfjqqUP48keH8NqGHOpzD2bSzBPtqPK8Z0ee8AUVSEQBS6RDNwMlwOeA4tycYOS00z+Wc9lll1FRUYFp2UJks4uz5VUCm1/FtG5VxTIesHSQe39gQ4X4w47EGz4Tf0SYw0rG77rLsev/fQcwQVUSUcAS6XA7AnyN+ICixStfevgd54DZObvvzB9O7KDT4KDT4luWhrU4W1wCm12cLa9joo2qYE8HLHQMVp8I5OINPQJ/eBhvxEz8sslgOrgm5Mijxm995LOTh51999sqnIgClkhnYpteumd8bNSsTgcg9YvH4RePIzbhbLA+Tv1yAptfjYeubUvBa1Mlu/tG6CzC3mEC+EMOwxs+C3/4LLyhU8FJ7VJENliAN2rODXD3hSqkiAKWSOcbjYIDbuzoG/v+N1AOfvkU/PIpMPlC8KMEti3F2ewS2OLi1C0H66mwaYp2cr1BjeTenUDl4JdOjAeqEbPwhk6HYH6XJ+cNnXamiiqigCWSlF868cPdmoATwhs+E2/4TKJcCX4UZ+e7ODtW4exYhdmxCmfHSkxkp4rdWcDqdJgGXew5pS8LOSX4pROwJRPxSyfgl07ELxkPgdyem0fhAcXvr3BPGD0p/B9VXEQBS2S/1q9fP85Cfo9O1Anhl03CL5u0d0dC69Z46KpPBK6d7+A0rAWrwUwhyThYWnXts4wF8YsOxC+diN0dpCZi84f1zuybNpwPKGCJKGCJdLChqF/x0X2DUMZ6F/KG4eUNwxtZsedGL4LT0L63ayXOjncGZW9Xp5fKGcTHYNm8IYkANQFbOjH+d/G4lI+byshzChZUau0hooAl0smWIvbhPp1/IAe/7FD8skP3utm0bsM0b8K0bMZp3oRp2bL7f9O8GdNWT/xEyOzR5HR8Xe0mk5+dy59xsHnDsAUjsPkj8BO/bf6I+G0Fo7A5Jf0w9A2dqJWHiAKWSCefiIKZ/TL35Q3F5g0FDme/h8t7EUzLFpyWTfHAtSt4tewKY5sxsYF1Ld5GU9jhfQ1O0cAMTzml2Pzh2IKRu0OTnz888ffI+HtsBt4FNmz+0NL169cXjxkzpkErEREFLJH9BJlh4wbkEw/kYIvG4BWN6biNH4uP1xVtxCR+9vzdFP87suu2hj33x1riZ0H6Xvy39TB7/Z/kmDETACeIdYK7/8YEscFcCBZhc4ogWIgNFWFDhRAqwoaKyNuWD7EOXm7hSCLjr0s8xyZMtKnd62mCWFP8efux+I+NYXwPbOL/JEEIE4gHIhNIPOfEbxOAQAgbLIw/78Rz3fU7/ndhu7/b/y4ATJZ+cgwm2lAB/EtrEREFLJG9rF+/fqyFvKx9gU4Qm1sGuWU9vzNxd+DyMdaLBxMnEaa6GCpyWhfGL2K0v4CVV05swindfL4xjB8DY/YOUlkbgjIcsZo3n6GAJaKAJfLBDURkx2E2p1SF6FLxAhCIj03VU+EtGijo0n3pPF/bg8MVDHrWP1JFEGn3nVYlEElsc5s2TFcV+g8v0HFnYqS7AUsysDUJjlERRBSwRPazRY9MVhH6j5jTccCKBvJVoH7GBguGqQoiClgiH2Sc8SpC/+F3svsu4GjV1e+EiopVBBEFLJH9fBpCo1WE/pR3Oz5ENGh0IHp/Y0OFofXr1+epEiIKWCL7bLXztYujP70dnYSokKOA1S/5UR2HJaKAJfKBb+AlqkL/Eepk7RRSD1b/3KDUvaUTRUQUsET2ZiINJtsuNzOQddaDFVC+6oefnx04DevUgyWyax2mEohA3S8nGf71aWNzSvCHTsMfOg1v2PT4NQEdfUz6Qn3U6+Q+XwXq62/nDetwti3B2b40/rthHcAWVUZEAUukvVFAjonsJLDhRQIbXiQEEMjFL58SD1tDp+GXT+mXF9vNRhtbO76kzabWmArUm7xWnPqVBLYlwtS2pZjIfofZP0jFElHAEkm+YfDacLYuwtm6aPdNNn8EfulE/LJD8EsPwS+diC0cPSAv0jtQA9ZGBayMMc2bcHas2uvHNK1Pfs1JBSwRBSyR/Uj5Is+mZTOBls0ENr7c7pOUh18yIR64yuKhyy+ZAEENiNlVnfVS1Uc9ol6MUECrsC7z2nB2rt47SO1YFb9odk9/URFRwBIZtLq3YYi14mx/A2f7G+2jGLZodKKXKxG6SidiC0aq2km0Rlpp8To/4aC+tZnhOvEz5S8Fzo53cHas3B2knMb3Uu2VUsASUcAS6bJxPT9Ji2lcT6BxPYH1/95za6gYv2witl3o8kvGgxPSu7A7PDUlbbO1JcLwQtVqL14Ep+FdnPpEkNq5Cqd+FSbaMDC+qIgoYIlknV7bMJhoA4Etr8OW19vdGMAvPhBbcAC2cDR+4QHYxI9fcMCg29W4raUtaZuNrVEOG4QLqok2Ypo2YJo34DRtwDRtxDRvwDStx2lcn4leqXQU1/1yUnn5tSvqtEoRBSwRwTvgmMOdrYu7e/xJ11kPZ+e7sPPd/d+dWxYPXAUH4BeO3it82YIRYAJZ9X7Ej7/qfLCr99qydDAsL4LTvCs0xX+cRKAyTRv6bhlNxgnglx8G+cNnwopntFYRBSyRQW7ZsmU5bSXFEzEQqF+B2ewS2Lwwfiq6H+0fvRZt9Zi2etj+Jh+IUiaALRiBzS2PB7GcUmxuGbT7O/67FHJKsaF+uF/N+vHgEG3ERBtZ1pQDdB4a32w2mLrlECqEnCJsqKh/Bk3rYyI74+9fZAcmsiPxfsb/pv3/rdswrdsZGAPeGvyS8XgjwvgjwnhDp0OogOB7z54OdytgiQKWSiCDXVlx/hE48Q2zVz4FyqcQm3wR+BECW5fgbHYJbHFx6lf09e6XDjbg3u6ejtR6GkLY3NI9QWx3CCuJD6pqglgnCE4ATLDdbYHdf3/gNicUDzcmAH5kT1iK7AlN7QOUiTZCpN1tsebdT8/H4blRv0/6Mt5qiLDzP99ipLe13RotDxtKhK3E7/Z/Eyrc+7acIgjkAz74MfA9sDGMH4v/b73E731u23W7H8PYxOO8lnhIaqtvF5x2YCINZMsVAvzC0fgjwvjDZ+ENnxlffvZdHPOHTdVaRUQBSwRa6+ZQOGo/QSQHb0QYb0SYKPFjp5zNrxHY7OJsceNnYQ3IrWQU07IV07K1Xz697YEyLKnt/tsaGLJ3wIq1YmKt/fa1DTh5Q/GGz8QbPgtvxCxswajki1du+UQVTkQBSwTHCcxOpV/KhorxxpyAN+YEIDEe1uZXCWxxCWx+FVq3qZg9YKtTnkbbISpYD7LBQvzhM/FGJHqoSsanP428oWNVSREFLBFsIOeILj0ufwSxg04jdtBp8cC1czXBbUsx9SviAzfufAdiLSpwmrYFyjPSVvb9ZpGDXzp+96C4dugReGWTun8cWzC/YO3ataPHjRv3voosClgig1kgb3xPTMaWjCe61zd+i9O4PjGw48o9o2U3b1LNO5FOr1Q6vV2D+ktE/vB4iEpc3skrnYAtGpuxkwIcxzkMUMASBSyRQb3xcUIZGg7c4BeNxS8aC2NO3HNrtCEetOrbha6dq/vNGYt9TT1Y3Uk2+/RKlR2CXzIRm1Pcq0/DGDNMb4YoYIkMYhs3biz0PK9Xh1C3oWK8YUfCsCP33Oh7mIY1iV2Lq3Aa12OaN2GaN2IiOwfVe5JeD9ZgPAbLYPPK8fNHxC+7VDS2V3ql0qSAJQpYKoEMZr7v948NgRPAlk7AK52Ax0f2vi/WgmneiNOyOR64mjYlBqLcFB98srWObBkGAGBrGr1SWwPZF7CsCUBBPDzFQ9QobMHIxM8o/IIR4OT095ehgCUKWCqBDHJD+/+nNB9bMh6vgzO6jB/DtGyKB66mRPBq2RQfgynakBjcsiE+HpP1+v3LTWsXoRMf0sEMhIAZyMWGirE5JfExx3JLsDll+IngtDtE5Q0F4wzwby6xEVq1iAKWyOA24L9pWyeILRwDhWNgeKct4wN6tu0KXDsgsnP33ybaEN8d2bYTEoNnml2DalovPsiqH8NYH2sT9yUG5sTa+GCc1gffw+76u4OBWa0JQCAPgrnYQF48fATyIJhHXRq9UjETpHHEHApjO8BrBa8NE4v/xmvt5Lg2gzUOJjGgqsUBE8A4Qaxx9tzmBDBm121BLA7GiQ+ouus2gvm7gxOJ8LT7/9xSbE7i7/7f69SDASsyWqsWUcASGcSstUMHz6s12GAhBAuxvXa1HLs7kMXDmIVALrtGzv/ghtmjtXZDvF2qZn2Z1oIOcrL142HL2nhYcoLxQUwHeg9Rvw9Y3kgVQRSwRAa3fJUgw6Fu1yV0Usg0Xmsdvk1vd19LSz1FHQUs40Awv13ck155161fpCrIYKevcTKoWWtDqkL/0dpSl/ZjGlubVLh+x89TDUQBS2Qwf9OONuqbdj/S1Nac9mPq2tpUuH73zcXPVRFEAUtkMH8AojtKVYX+o661Ne3HbG7zVLh+F7BsjoogClgig1lbowJWP/Jem0n7Masi2hvV/wKWr4AlClgqgQxmxmtRwOpHlkfTP71xSUyXy+l/HyyjYxtFAUslkEH9RdtrK1YV+o83Y+nn3fWRQIfjbUmf0RnqooClEsig3gpsfX27s3VxfNBM6eu4y8a29AdSiFmItjWofP1lo9L4HoH3X9CpnaLti0ogg/oDsHze/waXz7uIYF6+N3Q6/vBZeMNn4pdN0mCUvSza1kisiwNVNbQ2MyRPe3v7gmneRGDr6zibXQJbXsO0bAG4Q5URBSyRQaz82hXL6n456TpirXcFNr1CYNMrhAAbKsYfMRNv+Cz8odPwiw/uePRx6RFbG+oA06XHrmtqZUiZatgrgappA07dmwS2vIqz+VWcpvf3bfJv4PuqlAz6z4pKIAJ1v5w0H6jqsIGTg1c6EVs+Gb98Cl7ZodiSg+IjlEuP+MeKpdy5pWu9UB8uaeWaIyapiD0ept4nUL8cU7ccp/5tnPrl8YuGd5KTgRnl1654X9WTwU49WCJxVwGzgfH7vdePEKh7E+re3HNbIA+/7BD88sl4ZYfil0/BFh2oXYtd9Fx918PqfxrzuCbWCkEN2dBjYapuOSaa1rFtFrhU4Uok8ZlSCUTi6n45aRbwL6Dr5/0H8/HLJuGVTcYvn4wtm4xfPFYftWRb5oa1nLukezV6YMI2CkcdqWKmG6bq3sKpX5FumNqfb5Zfu+JHqq6IApbI/kLWDOAfwIgem2ioEK90En55InSVT8YvHK2PXztvrl7ItzeM7NY0Plu+idMOm61i7sNpeh+n/u1EmHq7p8LUXvkYuK782hW/ULVFFLBEOgtZk4GngTGZmocNFWHLDsEvHIMtGhv/XXwgfuEBEBhku7lizVztbmSL172xKYMG/niEQ7B4zOBbaGMt8SDV+B40vhf/u2k9pn4lJtqYyTl7wBXl1664T2sOEQUskVRC1vhEyBrf2x9JmzcUv2gstmhwhK9FK17me1vG9si0Lip8j3NnzMnOlXWsCdMQD0+maT2m8T2cxvXxs/hat/XFU4oAF5Rfu+LPWmOIKGCJpBOyxgBPAtP6y8fV5g3FFo/F5o/Ezy2DvCHx37lDsHlDsLnl2NzSAXN2o9+8hU+/vpNGcnqqQjwwqZGC4YcPnJWwH4XW7Zi2uvhP63ZorcOJ1EHrdpzmTZjG9ZjIjv70tOuB88uvXfEPBQqhYQAAIABJREFUrSlEFLBEuhKycoGbLOZ6gx0gn2oHm1OKzS3D5g2BvKH7hLAyyCnBOiGsE8QkfmOCEAhhTQgTCGHTCWm+h4k1QbQRE23ERNv/3QjRpvjvSEO8XSR+2015F1NjJvToyz/I1PHz5jvIC+Vgg4WQU4wNFmBDRRAqiv/OKcQGiyCnCBsswg8VQE4xOGkEPeuDjYEXxdgY+Hv+tl4kfpsXwUTqMa3twlNbHU5bPDyZ1rp4PQaWp4jvFlyvNYSIApZIt1z34K+evmrnnz402ts0qFYP1gkmwlYQnCA4ObtDGbAnMMVa0p76owWncmfJxRl55qe2/Jsv7fhN2o+zThBCxdhQITghsDFMIjh9IEwNvssrNQBfKb92xT1aI4gkp1ESRVLZ8F7w3SlPFZx4fJFtZlJ09aD5ZmKsD34U47VhYi3xHqnITkxbffwn1hwPG2l6L3gAPyi7Fi9DuzJXhQ7mkOgaxnob0n69xmvd8xojO+OvOdYcv92PJoKVHWwfgWeBU8uvXfGM1gYiqdGIiCKpeafV5HJ7yWV8a8jX2RIYqop0UYNTxA1lXyZicjI6n1vKPse7wQNV8G6ImmAMuBY4pfzaFWtUEREFLJGetmrXH6/lTOVzw37IXwo+SluGQ0K2iZkg3y/7IuuDozI+r2aTz3+Xf4VtTrkKnyYfhxfzZvPd8q/8pPzaFbeXX7vCqioi6dExWCIpqKiuOQh4d9/bi/1Gzmh5lo83/ZOhfp0K1QmL4SelV/NM/rG9Ot+J0TXcuv0H5NtWvQkphNK/F5zIXwpOZVNgGMCs2qrK11QZEQUskUwFLAdogf2PJxDE46SWlzm7+e9MjGpPyr6iJsitpVfz77zKPpn/hNhavl/3U4Z52/Vm7MeGwAgeLTyVf+SfQIvZPdbaNmB4bVWleq9EFLBEMhqylgOTkrU7MvIG5zQ9yVFtizBo27TTKeKmsi+yJGdKnz6PoX4dN9T9nEOjq7UwJyzOOYxHCk+jJncm9oObg/m1VZXnq0oiXRNUCURStiqVgPV6zuG8nnM4B8be5+zmpziudQElfsOgK9b7gZE8Wngq/8w/vn2vSJ/Z5pTzxaHfo6LtdT7Z9HeOjLwxKBfiRqeQl3Nn8WjBqawKHdRZ03/pIy/SderBEklRRXXNr4Br0v+QWSZG1zArspRZbUs5PLqcHBvNyhrtcIpxc6fxn7xKanOP3F+vSL8xPraOj7b8h3DbYsbF3s/a5TZqgiwLHcpruUfwWs5UVoTGp/q+TKitqlR3n4gClkjGA9ZXgFu7O50cG2Fa5G1mJgLX+Ni6Absr0cfhzZxDWJgzHTd3OitCB/frUNWR4d42ZkWWMrttMUdG3qDYbxywy6nF8E5oHK/lxAPVkpzJXRkS453aqsqJ+tSLdJ12EYqkbmVPTCRicnBzp+HmToNiKPN37g5bk6OrOMDbTMjG+t2L9wiwPjiK1cEDWR06kNXBA1kWmkyjUzDg39gtgaE8lX8iT+WfiMEyKbqaQ6LvMj62joNj7zE+to4iv39e0iZicng/MIK3QofwWu5UXsuZyk6nuLuTfVofdxEFLJHesiATE613Sng27xiezTsGiO9SHO5tY4y3idGxTYzxNjI6tonR3sZeCV8tJo86p5QNwRGsDh7Iu8F4mFobHEPUZP8qw2JYHprA8tDe10gc6tUlAtc6xsfWcVBsPUO8ekr9BgJ4GX9PNgRG8H5wJO8HRu75HRjJtkB5JnoNdfyVSDdpF6FIGiqqa94BxvfdBzYevkZ7mxgT28QQv56QjRIkRsjGCOARsjGC1tt9W5AYQRsjRAwfhzqnlDqnlHqnhHqnhLpAKfWJ2+qckoyPsJ59K1FLsd9Emb+Dcn8HZf7O3T/l3g7K/B0U2yZ8HGIEiJng7t9REyRGMP534neMABETYnNg2O4wVeeU9m7GjA/PsE3vrkjXqQdLJD0v9GXAshg2B4axOTCM13Om6t3oByyGnU4RO50i1jImG17S6wpXIt2nS+WIpOd5lUCynHYPiihgifS6F1QCUcASEQUskZ71FvFLiIhkoybUSyuigCXS2xLXZXtGlZAs9YfaqsoWlUFEAUukLzyiEkiWukMlEFHAEukrjwMRlUGyzEu1VZWLVAYRBSyRPlFbVbkTHQgs2Ue9VyIKWCJ97s8qgWSRLcBDKoOIApZIX/srZPj6KCK953e1VZVtKoOIApZIn6qtqtwCPKdKSBbwgTtVBhEFLJH+QhslyQZP1lZVvqsyiChgifQXjwLvqQwywOngdhEFLJH+o7aqMgbcpUrIALYa+LvKIKKAJdLf3I3GxJKB687aqkpfZRBRwBLpV2qrKjcD1aqEDEBtwO9UBhEFLJH+6n9VAhmA7qitqtyqMogoYIn0S7VVlQuBh1UJGUC2At9XGUQUsET6u28BMZVBBojv1lZV1qsMIgpYIv1abVXlcuAeVUIGgKXET84QEQUskQHhe0CjyiD93Jdqqyp1mScRBSyRgaG2qnITcKsqIf3YY7VVlf9SGUQUsEQGmluBVSqD9EN1wOdVBhEFLJEBp7aqsgm4jPgFdEX6kytrqyrXqgwiClgiAzVkvQjcokpIP/Lr2qrKP6sMIgpYIgPdDcAilUH6gSXAl1UGkd5lVAKRzKiorpkGvALkqRrSR5qB2bVVlW+qFCK9Sz1YIhlSW1W5BLhclZA+dI3ClYgClkg2hqx5wI2qhPSB79RWVd6nMoj0De0iFOkFFdU1fwI+pUpIL7mttqryOpVBpO+oB0ukd1wO1KgM0gseBL6kMoj0LfVgifSSiuqaUuAvwImqhmTIE8AnaqsqdeFxkT6mHiyRXlJbVbkDOBXQeESSCc8BVQpXIgpYIoMxZLUBVcCdqob0lHBB88a/HbLihZrzKlpUDZH+QbsIRfpIRXXNjcQHJBXpsnPK6/n8iM2Y+Ar98VbPu7h85uX1qoxI31IPlkgfqRmz9sdjcyLfRtctlC5+O756+FauTYQrAAsfyw0EFjQsuv8IVUik7z+jItLLmhbfd7XB/AwoeL6hiJs2HEDU6uMoqQkay9dGbeIjJTs7XMQw5jMF0y6Zr2qJKGCJZL2db943NBg1vwE+2f72Rc35fHv9GJp8dSpL5w4IRfnu6A1MyWtN3tjaW/Onr/66MTeql1REAUskO7UsevAUa7z7wYze3/3rIjn8eONIlrXkq1iyXx8p2cl1IzdT4KSelyz8rmDaJVcaY6wqKKKAJZI17MK7Qi05+T8Ark/2mbPAI3Vl3LN1GK3qzZKEAsfnupGbO9slmMz/Fky/VIOPiihgiWSHutfuLcsNBB4lzcFFN0ZD3LpxJG5zgYo4yE3Ja+W/R29gdCjavaBv7fcKZ1x2oyoqooAlMqA1L3pwrDH+kxa6fEbXEztKuWPzcB2bNQgVBzyuGLaNj5fV99yK2pjzdeC7iAKWyIDVuPjBaQ7+E8DY7k5rWyzIzzaN4KXGIhV2kKyUTy/dwVXDt1IW8Hp68vUmGDgy//CL1qjSIgpYIgNKy5IHTsLaRy2U9uR0n95ZzC83j2CHF1CRs9TE3LbIV0ZtyjkslTMEu8qaF/Pfzj3RzJ3rqeIimaP9DiI9qHnR/Z+y1j7V0+EK4JSSBh4Y/y6XD9tGSUDbxizzzjGFjT+/++B3t2Y0XAEYe2zLlLavquQiGf6oqQQiPaPl9fuPsw7PARnvYmrzDY/tKOMP24a01XuBXFV/wFoJ/BB4oLaqMmZfmp/fWtx6HZavZyKkt1vzb81vyBtnjpmraxeKKGCJ9F/1i/9QnoO3CDiwN+cbs4Z7tw77xx+3lx8MHKp3YsBYDtwM/KG2qvID3ZFNr/5ptBOMPtWdEySSsdZcUzjjkl/rrRBRwBLpt5oXP1AN9ry+mn/MNxd+ZMWkKPBNYJbekX7r38CvgYf2F6z2E9r/BhyToeeyMn/aO5M1yruIApZIv9T62h8m+QFveR/Nfp2Fp43hsYJpl/4ZoKK65lTga8DJ+oz3C9uA+4C7a6sq307ngXbhXQWtOQUPWezpmXhivrEziqZdtlhvkYgClki/07TkvpuNNd/qxVn6GB4B87OCaZe81FGjiuqaMcBc4FPA0XqnepUPPA/cDTxcW1XZ1tUJ2RW/yG1pLfsXluN6fgtgzymYdtkjertEFLBE+p3mxfe/B4zplZlZnnWC5rN5Uy9Zmc7DKqprxgPnJ8LWDL1rGVEPPAU8Dvy9tqpyS49NOL678CVgSs9uAcz1BdMuuVVvnYgClkh/DFi9cRHdCMZ8O/+Ii3/a3Yv2VlTXTE4ErU/1+AZ78FmWCFSPAy/VVlXGMjWjltfuPdgGAi8Do3pwsrcUTL/063obRRSwRAZdwDKw1DP2okwcK1NRXTMdOBM4DpgDlOkd7VQr8CzwN+CJ2qrKd3tz5k2LHphljP030CPD+hvLKfkzLn1Gb6uIApbI4ApYxt6Wn7fj62bSF9oy/Toqqmsc4sMCHJsIXMcB4wb52xsB3gJeIt5L9XRtVWWfjh3VuOiB0xxjHwOC3ZzUpvy38sZoRHcRBSyR/hqwXgGO6ukNu7HmqvwZl9zfl6+torrmwHZh6zjg8B7YsPdXa4DFwJJ2P29ncrdfV7Usuf8Ka/lNtyZi7a0FMy67Xp9gEQUskX6pZdEDl1pj7+vBSW7B8c8uOOLTL/a311pRXRMEJgCTiQ9sOrnd36MGyFtWt0+IWgIsra2q3Dmglrsl93/TWn7YpWxluL9g64FXmJNPjukTLKKAJdIvJU6jfw/LsB74QC7F887Kn3n5uwOtDhXVNSXtQtckYCQwpN3P0MTv4gzMvh7YksLPhtqqyg3Zsuw1L37g82B/kda63PLT/OmXXN/dkyVERAFLJOOaFt13jTHmF3TvOoSP5udELzVTrmjI5lpVVNeEgPJ2wat496Z/z2+b5Da/XajaWltVGR2sy17L4gcustjfk3zXbROYbxRMv+R2fWJFFLBEBk5vwqIHKy3+lcZwAVCQxkMbjeG6/GmX/lZVlK4uexj/R8CJ+29h/2oC5tr8qZeuVbVEFLBEBujG7r7rMeaWFJu/5BC4JG/6Re+octJdrYvv+7CH+bqBw4AcDG9ba35aOP2SR1UdEQUskQHNzp8faJ7S9luDvayTZlFjzY15b+f+WKfJi4goYIlIKiHLWtOy5IGfAZ9n72NjWjDmXuPbW/NnXLpalRIRUcASkTQ1L3pwLI49xlq/3DHO23l55lUz6eKdqoyIiIiIiIhIGtSDJSIywITDYQcYA2xyXTeiiogoYImIZHv4mQJ8CDgeGE18rK9y9j9OVSvgAte5rrsuhWmfBdwATAXygBiwHPiR67oP9NDzLyd+FuJWYJXrujoJQ0QBS0SkT0JVAJgLfAOY3oVJLHRd96gk8/gNcEUnTf4MnOe6ru3iaxgF/BS4sN3Na4CrXdd9Su+ySHoclUBEpFvhagLwKvDHLoYrgNnhcPjQTuZxYZJwBXAOcG0XX0MO8Pg+4QrgIOBv4XC4Qu+0iAKWiEhvhauTgAXdCFbtHdPJfV9OcRpf7OK8LwJmdXBfELhF77ZIeoIqgQySDWGA+HEr44A3XdddpapIN5epCcAjQFkPTM4D/t7BfBzg8BSnMz4cDhe6rtuU5vxndPN+EdmHerBkMGwIjyK+C2cR8BiwIhwO3xkOh3UMonR1mcoBqnsoXAE84bruxg7uy0v8pMKw5+LZ6RiZ5P7ScDicq3deJHXqwZLB0MvwFPGzuNpvhK4GaoDfq0rSBXPpeJfavnzgfeDdxO/2B6G3AYuBX3X0YNd1m8Ph8DvAxBTmta2ToJYsmPVEGxFRwJJB4kv7hKv2TlbAki76rxTaWOAnwHdd123r5vweB76QYjsRUcASybhjO7lvhMoj6QqHw4fT+QHpu8LVJ1zXfayHZvtt4CxgfCdtNpH6wfAikmE6Bkuy3QGd3KddHtIVx6fQ5oUeDFe4rtsInADM66DJ34BjXNfdprdHpH9QD5ZkrcRB7MNUCelhs1NoM6+nZ+q67nvABeFw+BvANOK9WWuBZa7rrtTbIqKAJdJbhmgZlz4IWB7xMwwzwnXdNcRHWBeRfky7CCWbDVcJJAPGJ7n/Ldd1t6hMIgpYItlKB7FLj0oM+lmSpFmjKiUiCliigCWSuhKSnxyhgCUiCliS1bSLUHpaKiO3K2CJiAKWZDX1YElPS+WSNU0qk4goYIkClkjPUg+WiChgSVbTLkLpCy0qgYhojCDJZurBStOc+S/lm4AdESU0wvh2JJaSAN52GzCbvUhgy7DSrZufPOOMtkw/j2P/8kKx3+aM9HFG4TDSYoZj2YZhNQ6rXzmnQiOWi4gClogCVs8Ih8OhYDA4sra2dj3x6911b3oPLzwgaGPnWGuqDDbsQxE+OPjxBgZ8HPDBCfpsbxpCRXXNTmvMFsf6i60xf/N954kFc4/e2J3ncdKzzwabtxScYBz7cSxnxSJM2H2ungWz66VawIOK6pqdWFYDq3FYjOGe2nMr39MiP6CX7TzXdVtVCVHAEun/+ssuQjN79uxDfd+f5DjO+vr6+jdWrlyZUi/QzJkzT3Ec58PAYcAUYGIsFguGw+E6Y8xVCxcufLgrT6hifs0lGK7Cjx0LOCa9rFZirC2xmIlYznaMbyvnv7zQYv7mBwIPLjj3qHdSfh5/rBlJiO+1bOV8Y2xZGk+jBMMMYAaWT2L5VkV1TbXvOD9fcO7RC7I8iOQAc4BJwHrgZdd16wfoaykErgSuAqaEw2EX+Kzruou0+pKBThe7lYG6kRkC/A/wIeLXG9zfslyaZDIxkp/xFQPWAXe6rntXus9z1qxZlcaYXwGz2t38vrX2S6+++ur8Tl7fFGvtz4wxp3cy+WgkEhm5ZMmSulSfz1EPL5jg+N49ibplQivwwyGF22/pbFfi1PnLcgpN43UG+x2guEefgeVFHH5eu7TiEW40fprL1dnAN4GDgdB+mgRSeL5tdH4clk0Eo/td1/1Jms/vBOAe4NB2N28FPue67sPd+DzNA85P0iy/J3uYwuHwMOBJPnjpoRZgtuu6b2hNJwpYIr0fsG4DvtDLs53huu7iNJ7jRGAh+x87yTfGnLlw4cIn29945JFHlgUCge8D/0UKPczW2s+8+uqr96byfI5+qPZLxtofAAW9sGZZ7lvnmgVVRz+9710V82vC1jH/Z6ydmOFn8echhdsvTPWYsXA4XA5sAHJ7cZk63nXdF1J8fgcCiztYnqJApeu6rw6EgBUOh8cB/wAmd9DkGdd1T9GaTgYynUUoAzFc5QGX9sGsr0insbX2s3Q8MKVjrb2+/Q1Tp04tCgaD/wSuJcXd98aYj6cUrqprrzbW/qxXwhWA5VAH/18V1TVf3StcPVxTieHpXghXAOdsbxzy5LF/eSHVHrKqXg5XAJen0fbznSxPIeDrA+TzOxV4qZNwBVAZDofVASAKWCK9rA3oi2NOouk0NsYckaTJzHYbnVBeXt5D1trZaYa4ZSk2vbSP3qtbKqtfvgjgqIdfOQGff5J81y3AMmvMrw3258BPMfzEYn5soNpiUr+QsuHkWFvwuePn/yeV4/H6YvyqdAYlPaKb9/eHcDUH+A8wJknTza7rWkQGMB3kLgOO67o2HA7fA9zcy7O+N53G1tpCYzr9Ep6zOwbAb4BT0/6G5DgpHXdjsKkcp9WC5UUMzwAbDTZgrXEMNuDjBAw2YIw9yMeZZbAzSX7RYwBjMfdWVr881vr+d+m8B63OYm71bOBBd+7stZ0U1lQ8XDsNy3XAJUnXY4ZZEXLmAcl2OT2SCO5lvbhM/T6NtkO7eX9fh6vTgYdIrRf1Z1rTiQKWSN+ErB+Gw+EngbOBo9j/8YQfofNe2q2Am2RWbYlv3E9m4KBbD2DWrFlXkn4Pk2et/anruq+lFMTwf+gR+LDBtt8FFgMWAE/j8MyQ/O0vpTzGlbXmqD8vmB3wvc9YzAV03isVspgfJZniHW3B3G+/fvbM5D2Txtja+LFInzl6fu1NBvt7DCckedSHjp5f+7FX5lY83sky1RIOh8cDHwfO7CBAFgLHJZnXGuCtTu6PEd9F9rd0jukbyMLh8EWJLyihFJr/ynXdX2otJwOd9nFLNq/UW+n8mJqnXNc9LVPznzVr1nPGmBM7aVLvuu6QcDj8BvEhGPbbxlq7whizPPF7hbX27dzc3DdefvnltEYMP/qh2tmO9S+0xsSA54Kh2PMvfuK4hm7X+bGFBcHW2M3AF7u0TjH8pPa8yq91ef53LQwFh8R+CVydpOkb4+za6dVz53rdWKamAG8maXab67rXZWB5rgEqOmmyyXXdUV2cdsYOcg+Hw18Efp7isvFt13V/qLWXZAP1YIn0HX/27NmnW2v3DVcxY8w8Y8xPFyxY8HpPzeyV8yoWEj+rsUe5Z81uBr5UUV3zpMX8dZ9esmR+2p1wBeBePTuKtf9V8VDtJDoffuLwtYy7Arhbi16vfcn5AfDtFJrGgKtc1/29qibZQge5i/Qdz/f9L+1z26ue5x2+cOHCS3oyXPWG2qrKfxhrUz+TzXBbbVXlV3tk5sZYP+Z8GogkmefHtdj1SrBywuHw3SmGqybg4wpXooAlIj2l3Bjz4Xb//6a1tXXO66+/vmKgvqDaqopfAKmc2fh+o1/8tZ6c94ILjl5H/NiszgLWBC12GQ9XuUA18dHZk9kCnOy67pOqnChgiUhP2b2L3hjzmOu6Vy9btiwyoF+RMdYa81SyZhZz27K5UzPxWt0kMx6PtTr2NHPhqpj46OznpNB8FXCM67oLVDlRwBKRTFjT0tJyIeBnw4sx2KeTNGnwbOCujMzckmwk87xj5714gBa5jISrEcBzwMkpBuFjXNddqcqJApaIZMoNy5Yta8yWFxMwXrJdhHe7c2fvyNDstydr0JabO0SLXI+Hq4OBF9j7mpsdeQo4yXXdzaqcKGCJSKascV33gWx6QZ4NdDpSu4nZ2zM1b4Mdl6xNTiTSosWuR8PVNOBFYFIKze8HznRdt1GVk2ynYRpE+tYCsmTX4O6QY+0Q2/GQRxtqLpjzbqbmbR0zjiQXWGkL5TZrseuxcHUs8DdSG/3+R67rflNVk8FCPVgifchauzQLX1bHu+Asr2WwmAb4aJJWm9xzZ2/Qktcj4epjwD9TCFc+cK3ClQw26sES6ctvOI4zuAKWSXoQepcd/fArn8ByWJJmz2ip65FwdSnw2xS2IW3ARa7rPqyqiQKWiPSmvg1Y1pojH329ND/aMswPOMOsZ4biMMzx/aEW41lMozG2yWIajWObfM+py8mNrOrsEju+cQ421naQr2xGerBOf+KJ3G1NfDeFpv/UItftcPVl4FaSX/qmnvgAos+raqKAJSK9KTZ+/PiVCxcu7NWZHj2v9lDH8ausMefxUO0RQNA3DvhgjAUL1phdgWjPbx8c4xOLBKmortkIrABWGOxyYIW15q1YXXCFsbE5Hb5gG1zW06+nav78wJqmofcb7MwkTbfn25ZqLXbdClc/AlIZrf894DTXdZepaqKAJSK9zauurvZ6Y0ZHz68d7xj/IoupAjvddv8676MSP8fvnpaB4JBYjI6P7YzZOvNOT76uiodrKtf45o4UwhUYbn+u6mSdvdZ19wAXp9BuWSJcvaeSiQKWiGSlqvnzA2sZd7013Ggxub0wy87WKU5wSMytqK5ZC6wx2LUWs8ZasyaAt/blN+Zs4EbT6RmVpz/xRG59Y9mhvnFOwXIJPrNMstMG49Y7vn+blohuSSVc1SbCVb3KJQpYIpKVZs9fMHmt8f4AhFMMIZnmANMSP+zq+TLG4uNQMbU2RnXNemATgLHWWGMcLAaDA5Rsb+LgxN+k0QkXtdZUvTz3mO1aKjLuYGAE8eOvRBSwRCS7hOcvHBcwsWeA0QNsfXRQ4mf3cWDd3JsZs5grX5lb8bKWim77EfCNJG1GAk+Hw+HjXNddo5KJApaIZI05818a4pvYU10IV00Y1uKzFsNaIGiwwy1mBDCceM9E4QAqxTYcql45t+JZLRU94ntALvClJO3GJkLW8a7raswxUcASkezgG+ceYEqKzd+2mD/51pm3cO5Rb6cQ3vJNwI6I2eBwgx1hMcMd64/CMNZacyDxC/2W9HEJWoB7/ZjzowUXHL1OS0SP+kri/b0iSbuJwL/C4fCJrutuVdlEAUtEBrQ581+a5sPZKTRtAD5bW1U5L53pvzz3mBZgTeLnAyqqaxaTOMZqP94hvvsvkKGXX2+N+VWu33bb83NP2KKloee5rmvD4fBngWJgbpLmhwNPhcPhD7muu0PVk8FGl8oRySKeCXyH5EctLcEQTjdcJRW/VM0hHdy7s7aqcmJ+Y0uRb52Z1pqLgJuAB7G8CLwPaR2Jb4HVBvuIxdwIfDKYExv3ynkV31G4ynjI8omfUfhECs1nAY+Hw+FCVU4GG/VgiWSJY/784gjPs+clTSYBc8kr51Ss6On5HzVvwViC5Hdw95sAz11+civweuJnL6c/8UTulsbhBwcCXrn1jAkYz1jHGOsZY40x1jEm6MWMH3DaaOGN2osrd+pd77OQFQ2Hw+cBfwdOSNL8WODRcDh8puu6baqeKGCJyIDieYE5JOmVNti/1Z5TuShDa5NDO7k36bFQT55xRhvwtt7JAROyWsLh8JnEr+84O0nzDwPzw+Hwua7rxlQ9GQy0i1AkSxjsMcnaWMfcnKn5B6zXWcDarHcoK0NWA3Aa8dHbk/k48EA4HNZ2RxSwRGTgsJg5SRLYm7XnVtZkav6+cQ7rJPzpuKjsDVnbgI8QP4khmU8Bd4XDYaPKiQKWiAwUByRJYE0Zm/ON1nHwP9FJi216e7I6ZG0gvhtwfQrNrwR+rqqJApZI9irKqldjkh5TmbELSx81dcHJFjOuw2xnjc4iy/6QtZp4T1Yq4159MRwO36SqiQKWyMAUSXL/sKx6tZZQkvszdnCxwV6epMEwLY6DImTY29rzAAAITUlEQVS9CZwKpHKG53fC4fDXVDVRwBIZeJKduTY8y15vfZKQ42dipsf8+cURBntOkmYnaXEcNCHrVeBM4iPqJ/PjcDh8jaomClgiA8u7Se4vD4fDgWx5scbYZAewz6x4sKbHL2Pje86d0OH4V7uEj36o9pNaJAdNyHoeOIfkvcgAt4fD4UtVNVHAEsmegGWAqVnzai3JAlYRuXymJ2d59EO1F1hMKpfmwVj7PW60WucMnpD1d+Aikh/7Z4DfJQYuFVHAEsmCgAWQNd+cAzHvCYtJNlL2zXPmvzStR8LVvNpDjbW3p/GQ6RVTa/8ZfnjhAVo0B03Iegi4iuSXQQoAfwyHw6eraqKAJZIdAeuibNlN+OIFx71vsL9J0qzAN85jRz9UO7s786qorvmECdgFwJA0H/qhgO8tqnio5oyeeM3hxxYWVMyvOa/ioZp5FdU1T1RWv/x19ZL1u5B1L/ClFJqGgIfD4fBJqpooYIn0b6tTaDMKuCNbQpZj/f8BWpM0O8hY+1JFdc1XEhdoTj3Q3LUwdPRDtT8AHgG6dDyXwQ7H8nhFdc2yiuqa/654qGZSOo+ffv+iwsr5L59fUV1THWyNbcFQjeV84HSL+VHF1NpfatHvdyHrNuCGFJrmA4+Fw+EKVU0GOo2mK1krHA4HgTXA6BSa/xW4EVjSU9dKmzVr1nPGmBM7adLmum5eT7/uiodqLsbyQEorAGuXWmP+aK2Z98rcig4D6Zz5L02zxlzu41xssJ2dfekb7HVYPmuNOSKNNdFyY+06H2ejwW4ENmJoMb7NtcbkAsXAZOBw4BA6v45qa0tL/rDFl85oysAyNYXEhas7cZvrutdlYN41QGfBY5PruqO6OO15wPnJwo/ruq3dfA0/Bb6cQtM64CTXdRdrTSYDlS72LNn8rTkWDofvTgSnZD6e+GkOh8NLiB+YW5T4yQVWAb92XXdef3/dtedVPljxUM1ULN9I1jYRgn5ojP1hxfyaRRjeN8bWWWvqE70JQ4DxPkyP56BOD6WJGGMvqTlvzvxj//TCw7Fg8HlgQkpP2nKoxRy61/QtWNOl74ChIXnb9eWxf34mvxIOh0uIj+bemXLgz+FweLrrus2qnAxE2kUo2e4uUhv0cJeCRC/BMcRDxQRgDHAC8KdwOHzqQHjRtUsrvo3htrQeZJgBnG6tuRC4Brgc+ESiDsk0+Dhn1Jw3Zz7EjwcLON6HMEnHIsuEPz039+TGLFyWbTfv7+5jbQ+9jquB/0uh3USS96qJKGCJ9NE35o1AT+6uuTrlvGJMso18Q8Ze+I3Grz2v8jrgAsjgNQjjNhvHnrSg6uin29/40rnHriHCURYzv7cCiMHe12iLr8jgPLb2UJsu1TnJ/RsyOO0druu29dBn0gcuAR5Pofl4rcVEAUuk/4ase4H7emhyZ6RxQPySJPe/lunXXltVOQ/DzETIsT08+Shwb8Dxjq45d86r+53/hZWbXqmqON8Y+3FgZeaiFS861q+sqZrz6WVzp0YyuCxtBTZ2833vqqVJ7l+YwWkv7uE6RoHzgH/3US1FFLBEesjlwM09MJ3XXddN6aLJgUDgbmBHR+HE9/0f9MYLrz2vcsUrVRXne4HAdGAe0N1jWpqA/8VhQm1V5WdeOvfYNckeUHPenMdqqyonOfjHAnfQc7087xhjz6+dW3ncy3OPeaWXlqXOLlJcQ2o9M11xO/GDv/enPsnzSuaPxI8z7ChIfz0DYbUVOAtY0ElgfFSrLhmodCCoDCrhcPh44BagsgsPbwGucF33T6k+YNasWccbY+4kfvbb7lAAfMF13cf7ogYn3ftsXktx/oeMtWdZzDHEz8or6OQhrVheMca+YKx93sn1X3zxE8d1a/dm+K6FoZzyyCkWE7bGTAEOI36WYFGSh74NvIjhRc8PvLhw7lFv98EyZIBvAN/a5/k+Anzedd33Mzjv44C7E/XaZSlwpeu6td2c9lTgN/t8NtYC/+W67hMZfE0lwP3Ej/fb5d/ARa7rrtdaSxSwRAZW0DoSmEb8AO5piZ/2wznEEoGqGVhOfHfeL1zXXZXuvKqqqgLvvvvuFM/zJhhj3i0uLn7zueeei/WnesyZ/9IY4BCPQJE1pjVIrMU6ppUoLQ1OyapM7nbbzVpz1LwFY4OB2AGeE/ADeJ7nBHwfxwtGYp6f42x+5ZyKbf1oGSpOLDclwDLXddf10nwDiYA1nvhYb2+m2quaYng8FJgErAfe6Kljr1KY7+HAlMQXkEWJY7VERERERERERERERERERERERERERERERERERERERERERERERERERERERERERERERERERERERERERERERERERERERERERERERERERERERERERERERERERERERERERERERERERERERERERERERERERERERERERERERERERERERERERERERERERERERERERERERERERERERERERERERERERERERERERERERERERERERERERERERERERERERERERERERERERERERERERERERERERERERERERERERERERERERERERERERERERERERERERERERERERERERERERERERERERERERERERERERERERERERERERERERERERERERERERERERERERERERERERERERERERERERERERERERERERERERERERERERERERERERERERERERERERERERERERERERERERERERERERERERERERERERERERERERERERERERERERERERERERERERERERERERERERERERERERERERETk/7cHBwQAAAAAQv6/bkgAAAAAAAAAAAAAYCF0bEkh90PvtAAAAABJRU5ErkJggg==;" vertex="1" parent="1">
          <mxGeometry x="450" y="145" width="110" height="110" as="geometry" />
        </mxCell>
        <mxCell id="y6cjsjqeQ_f7NjafJzEn-18" style="rounded=0;orthogonalLoop=1;jettySize=auto;html=1;exitX=1;exitY=0.5;exitDx=0;exitDy=0;entryX=0;entryY=0.75;entryDx=0;entryDy=0;startArrow=classic;startFill=1;" edge="1" parent="1" source="y6cjsjqeQ_f7NjafJzEn-11" target="y6cjsjqeQ_f7NjafJzEn-13">
          <mxGeometry relative="1" as="geometry" />
        </mxCell>
        <mxCell id="y6cjsjqeQ_f7NjafJzEn-11" value="" style="rounded=0;whiteSpace=wrap;html=1;fillColor=none;" vertex="1" parent="1">
          <mxGeometry x="70" y="220" width="190" height="140" as="geometry" />
        </mxCell>
        <mxCell id="y6cjsjqeQ_f7NjafJzEn-17" style="rounded=0;orthogonalLoop=1;jettySize=auto;html=1;exitX=1;exitY=0.5;exitDx=0;exitDy=0;entryX=0;entryY=0.25;entryDx=0;entryDy=0;startArrow=classic;startFill=1;" edge="1" parent="1" source="y6cjsjqeQ_f7NjafJzEn-12" target="y6cjsjqeQ_f7NjafJzEn-13">
          <mxGeometry relative="1" as="geometry" />
        </mxCell>
        <mxCell id="y6cjsjqeQ_f7NjafJzEn-12" value="" style="rounded=0;whiteSpace=wrap;html=1;fillColor=none;" vertex="1" parent="1">
          <mxGeometry x="69" y="60" width="190" height="140" as="geometry" />
        </mxCell>
        <mxCell id="y6cjsjqeQ_f7NjafJzEn-19" style="rounded=0;orthogonalLoop=1;jettySize=auto;html=1;exitX=1;exitY=0.5;exitDx=0;exitDy=0;entryX=0;entryY=0.5;entryDx=0;entryDy=0;startArrow=classic;startFill=1;" edge="1" parent="1" source="y6cjsjqeQ_f7NjafJzEn-13" target="y6cjsjqeQ_f7NjafJzEn-14">
          <mxGeometry relative="1" as="geometry" />
        </mxCell>
        <mxCell id="y6cjsjqeQ_f7NjafJzEn-13" value="" style="rounded=0;whiteSpace=wrap;html=1;fillColor=none;" vertex="1" parent="1">
          <mxGeometry x="410" y="130" width="190" height="140" as="geometry" />
        </mxCell>
        <mxCell id="y6cjsjqeQ_f7NjafJzEn-14" value="" style="rounded=0;whiteSpace=wrap;html=1;fillColor=none;" vertex="1" parent="1">
          <mxGeometry x="750" y="130" width="190" height="140" as="geometry" />
        </mxCell>
        <mxCell id="y6cjsjqeQ_f7NjafJzEn-20" value="Conteneur API" style="text;html=1;align=center;verticalAlign=middle;resizable=0;points=[];autosize=1;strokeColor=none;fillColor=none;" vertex="1" parent="1">
          <mxGeometry x="114" y="360" width="100" height="30" as="geometry" />
        </mxCell>
        <mxCell id="y6cjsjqeQ_f7NjafJzEn-21" value="Conteneur Postgres" style="text;html=1;align=center;verticalAlign=middle;resizable=0;points=[];autosize=1;strokeColor=none;fillColor=none;" vertex="1" parent="1">
          <mxGeometry x="99" y="30" width="130" height="30" as="geometry" />
        </mxCell>
        <mxCell id="y6cjsjqeQ_f7NjafJzEn-22" value="Conteneur reverse proxy" style="text;html=1;align=center;verticalAlign=middle;resizable=0;points=[];autosize=1;strokeColor=none;fillColor=none;" vertex="1" parent="1">
          <mxGeometry x="425" y="270" width="160" height="30" as="geometry" />
        </mxCell>
        <mxCell id="y6cjsjqeQ_f7NjafJzEn-23" value="Conteneur interface" style="text;html=1;align=center;verticalAlign=middle;resizable=0;points=[];autosize=1;strokeColor=none;fillColor=none;" vertex="1" parent="1">
          <mxGeometry x="780" y="270" width="130" height="30" as="geometry" />
        </mxCell>
        <mxCell id="y6cjsjqeQ_f7NjafJzEn-25" value="" style="rounded=0;whiteSpace=wrap;html=1;fillColor=none;strokeColor=#b85450;" vertex="1" parent="1">
          <mxGeometry x="24" y="10" width="286" height="400" as="geometry" />
        </mxCell>
        <mxCell id="y6cjsjqeQ_f7NjafJzEn-26" value="Backend" style="text;html=1;align=center;verticalAlign=middle;resizable=0;points=[];autosize=1;strokeColor=#b85450;fillColor=#f8cecc;" vertex="1" parent="1">
          <mxGeometry x="129" y="410" width="70" height="30" as="geometry" />
        </mxCell>
        <mxCell id="y6cjsjqeQ_f7NjafJzEn-27" value="" style="rounded=0;whiteSpace=wrap;html=1;fillColor=none;strokeColor=#b85450;" vertex="1" parent="1">
          <mxGeometry x="700" y="10" width="286" height="400" as="geometry" />
        </mxCell>
        <mxCell id="y6cjsjqeQ_f7NjafJzEn-28" value="Frontend" style="text;html=1;align=center;verticalAlign=middle;resizable=0;points=[];autosize=1;strokeColor=#b85450;fillColor=#f8cecc;" vertex="1" parent="1">
          <mxGeometry x="810" y="410" width="70" height="30" as="geometry" />
        </mxCell>
      </root>
    </mxGraphModel>
  </diagram>
</mxfile>
